STARTFONT 2.1
FONT -eldur-Medium-R-Medium--13-13-75-75-c-80-iso10646-1
SIZE 13 75 75
FONTBOUNDINGBOX 7 21 -1 -3
STARTPROPERTIES 10
FAMILY_NAME "eldur"
WEIGHT_NAME "Medium"
FONT_VERSION "Version 1.0"
COPYRIGHT "Copyright (c) 2023, Benjamin Pang (@molarmanful)"
FOUNDRY "Benjamin Pang"
FONT_ASCENT 10
FONT_DESCENT 3
POINT_SIZE 13
X_HEIGHT 5
CAP_HEIGHT 8
ENDPROPERTIES
CHARS 2390
STARTCHAR U+0020
ENCODING 32
SWIDTH 714 0
DWIDTH 5 0
BBX 0 0 0 0
BITMAP
ENDCHAR
STARTCHAR U+0021
ENCODING 33
SWIDTH 714 0
DWIDTH 5 0
BBX 1 8 2 0
BITMAP
80
80
80
80
80
80
00
80
ENDCHAR
STARTCHAR U+0022
ENCODING 34
SWIDTH 714 0
DWIDTH 5 0
BBX 3 3 1 5
BITMAP
A0
A0
A0
ENDCHAR
STARTCHAR U+0023
ENCODING 35
SWIDTH 714 0
DWIDTH 5 0
BBX 5 5 0 1
BITMAP
50
F8
50
F8
50
ENDCHAR
STARTCHAR U+0024
ENCODING 36
SWIDTH 714 0
DWIDTH 5 0
BBX 4 9 0 -1
BITMAP
20
20
70
80
60
10
E0
40
40
ENDCHAR
STARTCHAR U+0025
ENCODING 37
SWIDTH 714 0
DWIDTH 5 0
BBX 4 4 0 2
BITMAP
90
20
40
90
ENDCHAR
STARTCHAR U+0026
ENCODING 38
SWIDTH 714 0
DWIDTH 5 0
BBX 5 8 0 0
BITMAP
60
A0
80
58
B0
90
90
68
ENDCHAR
STARTCHAR U+0027
ENCODING 39
SWIDTH 714 0
DWIDTH 5 0
BBX 1 3 2 5
BITMAP
80
80
80
ENDCHAR
STARTCHAR U+0028
ENCODING 40
SWIDTH 714 0
DWIDTH 5 0
BBX 3 11 0 -2
BITMAP
20
40
40
80
80
80
80
80
40
40
20
ENDCHAR
STARTCHAR U+0029
ENCODING 41
SWIDTH 714 0
DWIDTH 5 0
BBX 3 11 1 -2
BITMAP
80
40
40
20
20
20
20
20
40
40
80
ENDCHAR
STARTCHAR U+002A
ENCODING 42
SWIDTH 714 0
DWIDTH 5 0
BBX 5 5 0 1
BITMAP
50
20
F8
20
50
ENDCHAR
STARTCHAR U+002B
ENCODING 43
SWIDTH 714 0
DWIDTH 5 0
BBX 5 5 0 1
BITMAP
20
20
F8
20
20
ENDCHAR
STARTCHAR U+002C
ENCODING 44
SWIDTH 714 0
DWIDTH 5 0
BBX 2 3 1 -1
BITMAP
40
40
80
ENDCHAR
STARTCHAR U+002D
ENCODING 45
SWIDTH 714 0
DWIDTH 5 0
BBX 4 1 0 3
BITMAP
F0
ENDCHAR
STARTCHAR U+002E
ENCODING 46
SWIDTH 714 0
DWIDTH 5 0
BBX 1 1 2 0
BITMAP
80
ENDCHAR
STARTCHAR U+002F
ENCODING 47
SWIDTH 714 0
DWIDTH 5 0
BBX 4 10 0 -1
BITMAP
10
10
20
20
20
40
40
40
80
80
ENDCHAR
STARTCHAR U+0030
ENCODING 48
SWIDTH 714 0
DWIDTH 5 0
BBX 4 8 0 0
BITMAP
60
90
90
B0
D0
90
90
60
ENDCHAR
STARTCHAR U+0031
ENCODING 49
SWIDTH 714 0
DWIDTH 5 0
BBX 3 8 1 0
BITMAP
40
C0
40
40
40
40
40
E0
ENDCHAR
STARTCHAR U+0032
ENCODING 50
SWIDTH 714 0
DWIDTH 5 0
BBX 4 8 0 0
BITMAP
60
90
10
10
20
40
90
F0
ENDCHAR
STARTCHAR U+0033
ENCODING 51
SWIDTH 714 0
DWIDTH 5 0
BBX 4 8 0 0
BITMAP
60
90
10
20
10
10
90
60
ENDCHAR
STARTCHAR U+0034
ENCODING 52
SWIDTH 714 0
DWIDTH 5 0
BBX 4 8 0 0
BITMAP
80
80
A0
A0
F0
20
20
20
ENDCHAR
STARTCHAR U+0035
ENCODING 53
SWIDTH 714 0
DWIDTH 5 0
BBX 4 8 0 0
BITMAP
F0
90
80
E0
10
10
90
60
ENDCHAR
STARTCHAR U+0036
ENCODING 54
SWIDTH 714 0
DWIDTH 5 0
BBX 4 8 0 0
BITMAP
60
90
80
E0
90
90
90
60
ENDCHAR
STARTCHAR U+0037
ENCODING 55
SWIDTH 714 0
DWIDTH 5 0
BBX 4 8 0 0
BITMAP
F0
90
10
20
20
40
40
40
ENDCHAR
STARTCHAR U+0038
ENCODING 56
SWIDTH 714 0
DWIDTH 5 0
BBX 4 8 0 0
BITMAP
60
90
90
60
90
90
90
60
ENDCHAR
STARTCHAR U+0039
ENCODING 57
SWIDTH 714 0
DWIDTH 5 0
BBX 4 8 0 0
BITMAP
60
90
90
90
70
10
90
60
ENDCHAR
STARTCHAR U+003A
ENCODING 58
SWIDTH 714 0
DWIDTH 5 0
BBX 1 4 2 1
BITMAP
80
00
00
80
ENDCHAR
STARTCHAR U+003B
ENCODING 59
SWIDTH 714 0
DWIDTH 5 0
BBX 2 6 1 -1
BITMAP
40
00
00
40
40
80
ENDCHAR
STARTCHAR U+003C
ENCODING 60
SWIDTH 714 0
DWIDTH 5 0
BBX 4 7 0 0
BITMAP
10
20
40
80
40
20
10
ENDCHAR
STARTCHAR U+003D
ENCODING 61
SWIDTH 714 0
DWIDTH 5 0
BBX 4 3 0 2
BITMAP
F0
00
F0
ENDCHAR
STARTCHAR U+003E
ENCODING 62
SWIDTH 714 0
DWIDTH 5 0
BBX 4 7 0 0
BITMAP
80
40
20
10
20
40
80
ENDCHAR
STARTCHAR U+003F
ENCODING 63
SWIDTH 714 0
DWIDTH 5 0
BBX 4 8 0 0
BITMAP
E0
90
10
20
40
40
00
40
ENDCHAR
STARTCHAR U+0040
ENCODING 64
SWIDTH 714 0
DWIDTH 5 0
BBX 4 7 0 0
BITMAP
60
90
B0
B0
B0
80
70
ENDCHAR
STARTCHAR U+0041
ENCODING 65
SWIDTH 714 0
DWIDTH 5 0
BBX 4 8 0 0
BITMAP
60
90
90
B0
D0
90
90
90
ENDCHAR
STARTCHAR U+0042
ENCODING 66
SWIDTH 714 0
DWIDTH 5 0
BBX 4 8 0 0
BITMAP
40
A0
A0
D0
90
90
A0
C0
ENDCHAR
STARTCHAR U+0043
ENCODING 67
SWIDTH 714 0
DWIDTH 5 0
BBX 4 8 0 0
BITMAP
60
A0
80
80
80
80
90
60
ENDCHAR
STARTCHAR U+0044
ENCODING 68
SWIDTH 714 0
DWIDTH 5 0
BBX 4 8 0 0
BITMAP
E0
90
90
90
90
90
A0
C0
ENDCHAR
STARTCHAR U+0045
ENCODING 69
SWIDTH 714 0
DWIDTH 5 0
BBX 4 8 0 0
BITMAP
60
A0
80
40
80
80
90
60
ENDCHAR
STARTCHAR U+0046
ENCODING 70
SWIDTH 714 0
DWIDTH 5 0
BBX 4 8 0 0
BITMAP
70
90
80
E0
80
80
80
80
ENDCHAR
STARTCHAR U+0047
ENCODING 71
SWIDTH 714 0
DWIDTH 5 0
BBX 4 8 0 0
BITMAP
70
90
80
B0
90
90
A0
40
ENDCHAR
STARTCHAR U+0048
ENCODING 72
SWIDTH 714 0
DWIDTH 5 0
BBX 4 8 0 0
BITMAP
10
90
90
B0
D0
90
90
90
ENDCHAR
STARTCHAR U+0049
ENCODING 73
SWIDTH 714 0
DWIDTH 5 0
BBX 4 8 0 0
BITMAP
30
C0
20
20
20
20
30
C0
ENDCHAR
STARTCHAR U+004A
ENCODING 74
SWIDTH 714 0
DWIDTH 5 0
BBX 4 8 0 0
BITMAP
30
C0
20
20
20
20
A0
40
ENDCHAR
STARTCHAR U+004B
ENCODING 75
SWIDTH 714 0
DWIDTH 5 0
BBX 4 8 0 0
BITMAP
10
A0
A0
C0
A0
A0
A0
90
ENDCHAR
STARTCHAR U+004C
ENCODING 76
SWIDTH 714 0
DWIDTH 5 0
BBX 4 8 0 0
BITMAP
80
80
80
80
80
80
90
70
ENDCHAR
STARTCHAR U+004D
ENCODING 77
SWIDTH 714 0
DWIDTH 5 0
BBX 4 8 0 0
BITMAP
10
B0
F0
D0
D0
90
90
90
ENDCHAR
STARTCHAR U+004E
ENCODING 78
SWIDTH 714 0
DWIDTH 5 0
BBX 4 8 0 0
BITMAP
10
90
D0
D0
B0
B0
90
90
ENDCHAR
STARTCHAR U+004F
ENCODING 79
SWIDTH 714 0
DWIDTH 5 0
BBX 4 8 0 0
BITMAP
60
90
90
90
90
90
90
60
ENDCHAR
STARTCHAR U+0050
ENCODING 80
SWIDTH 714 0
DWIDTH 5 0
BBX 4 8 0 0
BITMAP
60
90
90
A0
C0
80
80
80
ENDCHAR
STARTCHAR U+0051
ENCODING 81
SWIDTH 714 0
DWIDTH 5 0
BBX 4 10 0 -2
BITMAP
60
90
90
90
90
90
90
60
C0
30
ENDCHAR
STARTCHAR U+0052
ENCODING 82
SWIDTH 714 0
DWIDTH 5 0
BBX 4 8 0 0
BITMAP
60
90
90
A0
C0
A0
A0
90
ENDCHAR
STARTCHAR U+0053
ENCODING 83
SWIDTH 714 0
DWIDTH 5 0
BBX 4 8 0 0
BITMAP
70
90
80
60
10
10
A0
C0
ENDCHAR
STARTCHAR U+0054
ENCODING 84
SWIDTH 714 0
DWIDTH 5 0
BBX 5 8 0 0
BITMAP
18
E0
20
20
20
20
20
20
ENDCHAR
STARTCHAR U+0055
ENCODING 85
SWIDTH 714 0
DWIDTH 5 0
BBX 4 8 0 0
BITMAP
10
90
90
90
90
90
90
60
ENDCHAR
STARTCHAR U+0056
ENCODING 86
SWIDTH 714 0
DWIDTH 5 0
BBX 4 8 0 0
BITMAP
10
90
90
90
50
50
20
20
ENDCHAR
STARTCHAR U+0057
ENCODING 87
SWIDTH 714 0
DWIDTH 5 0
BBX 4 8 0 0
BITMAP
10
90
90
90
B0
F0
F0
90
ENDCHAR
STARTCHAR U+0058
ENCODING 88
SWIDTH 714 0
DWIDTH 5 0
BBX 4 8 0 0
BITMAP
10
A0
A0
60
50
50
50
90
ENDCHAR
STARTCHAR U+0059
ENCODING 89
SWIDTH 714 0
DWIDTH 5 0
BBX 4 8 0 0
BITMAP
10
90
50
50
30
10
A0
C0
ENDCHAR
STARTCHAR U+005A
ENCODING 90
SWIDTH 714 0
DWIDTH 5 0
BBX 4 8 0 0
BITMAP
F0
90
20
20
40
40
90
F0
ENDCHAR
STARTCHAR U+005B
ENCODING 91
SWIDTH 714 0
DWIDTH 5 0
BBX 3 11 0 -2
BITMAP
E0
80
80
80
80
80
80
80
80
80
E0
ENDCHAR
STARTCHAR U+005C
ENCODING 92
SWIDTH 714 0
DWIDTH 5 0
BBX 4 10 0 -1
BITMAP
80
80
40
40
40
20
20
20
10
10
ENDCHAR
STARTCHAR U+005D
ENCODING 93
SWIDTH 714 0
DWIDTH 5 0
BBX 3 11 1 -2
BITMAP
E0
20
20
20
20
20
20
20
20
20
E0
ENDCHAR
STARTCHAR U+005E
ENCODING 94
SWIDTH 714 0
DWIDTH 5 0
BBX 5 3 0 5
BITMAP
20
50
88
ENDCHAR
STARTCHAR U+005F
ENCODING 95
SWIDTH 714 0
DWIDTH 5 0
BBX 4 1 0 0
BITMAP
F0
ENDCHAR
STARTCHAR U+0060
ENCODING 96
SWIDTH 714 0
DWIDTH 5 0
BBX 3 3 1 5
BITMAP
80
40
20
ENDCHAR
STARTCHAR U+0061
ENCODING 97
SWIDTH 714 0
DWIDTH 5 0
BBX 4 5 0 0
BITMAP
60
10
70
90
50
ENDCHAR
STARTCHAR U+0062
ENCODING 98
SWIDTH 714 0
DWIDTH 5 0
BBX 4 8 0 0
BITMAP
80
80
80
A0
D0
90
90
60
ENDCHAR
STARTCHAR U+0063
ENCODING 99
SWIDTH 714 0
DWIDTH 5 0
BBX 4 5 0 0
BITMAP
60
A0
80
90
60
ENDCHAR
STARTCHAR U+0064
ENCODING 100
SWIDTH 714 0
DWIDTH 5 0
BBX 4 8 0 0
BITMAP
10
10
10
50
B0
90
90
60
ENDCHAR
STARTCHAR U+0065
ENCODING 101
SWIDTH 714 0
DWIDTH 5 0
BBX 4 5 0 0
BITMAP
60
A0
C0
90
60
ENDCHAR
STARTCHAR U+0066
ENCODING 102
SWIDTH 714 0
DWIDTH 5 0
BBX 4 9 0 -1
BITMAP
20
50
40
E0
40
40
40
40
80
ENDCHAR
STARTCHAR U+0067
ENCODING 103
SWIDTH 714 0
DWIDTH 5 0
BBX 4 8 0 -3
BITMAP
60
90
90
B0
50
10
A0
C0
ENDCHAR
STARTCHAR U+0068
ENCODING 104
SWIDTH 714 0
DWIDTH 5 0
BBX 4 8 0 0
BITMAP
80
80
80
A0
D0
90
90
90
ENDCHAR
STARTCHAR U+0069
ENCODING 105
SWIDTH 714 0
DWIDTH 5 0
BBX 4 7 0 0
BITMAP
40
00
40
C0
40
50
20
ENDCHAR
STARTCHAR U+006A
ENCODING 106
SWIDTH 714 0
DWIDTH 5 0
BBX 3 10 0 -3
BITMAP
20
00
20
60
20
20
20
20
A0
40
ENDCHAR
STARTCHAR U+006B
ENCODING 107
SWIDTH 714 0
DWIDTH 5 0
BBX 4 8 0 0
BITMAP
80
80
80
A0
C0
A0
A0
90
ENDCHAR
STARTCHAR U+006C
ENCODING 108
SWIDTH 714 0
DWIDTH 5 0
BBX 4 8 0 0
BITMAP
40
C0
40
40
40
40
50
20
ENDCHAR
STARTCHAR U+006D
ENCODING 109
SWIDTH 714 0
DWIDTH 5 0
BBX 4 5 0 0
BITMAP
90
F0
B0
90
90
ENDCHAR
STARTCHAR U+006E
ENCODING 110
SWIDTH 714 0
DWIDTH 5 0
BBX 4 5 0 0
BITMAP
A0
D0
90
90
90
ENDCHAR
STARTCHAR U+006F
ENCODING 111
SWIDTH 714 0
DWIDTH 5 0
BBX 4 5 0 0
BITMAP
60
90
90
90
60
ENDCHAR
STARTCHAR U+0070
ENCODING 112
SWIDTH 714 0
DWIDTH 5 0
BBX 4 8 0 -3
BITMAP
60
90
90
A0
C0
80
80
80
ENDCHAR
STARTCHAR U+0071
ENCODING 113
SWIDTH 714 0
DWIDTH 5 0
BBX 4 8 0 -3
BITMAP
60
90
90
B0
50
10
10
10
ENDCHAR
STARTCHAR U+0072
ENCODING 114
SWIDTH 714 0
DWIDTH 5 0
BBX 4 5 0 0
BITMAP
B0
D0
80
80
80
ENDCHAR
STARTCHAR U+0073
ENCODING 115
SWIDTH 714 0
DWIDTH 5 0
BBX 4 5 0 0
BITMAP
60
80
60
10
E0
ENDCHAR
STARTCHAR U+0074
ENCODING 116
SWIDTH 714 0
DWIDTH 5 0
BBX 4 7 0 0
BITMAP
40
40
E0
40
40
50
20
ENDCHAR
STARTCHAR U+0075
ENCODING 117
SWIDTH 714 0
DWIDTH 5 0
BBX 4 5 0 0
BITMAP
90
90
90
B0
50
ENDCHAR
STARTCHAR U+0076
ENCODING 118
SWIDTH 714 0
DWIDTH 5 0
BBX 4 5 0 0
BITMAP
90
50
50
20
20
ENDCHAR
STARTCHAR U+0077
ENCODING 119
SWIDTH 714 0
DWIDTH 5 0
BBX 4 5 0 0
BITMAP
90
90
B0
F0
90
ENDCHAR
STARTCHAR U+0078
ENCODING 120
SWIDTH 714 0
DWIDTH 5 0
BBX 4 5 0 0
BITMAP
90
A0
60
50
90
ENDCHAR
STARTCHAR U+0079
ENCODING 121
SWIDTH 714 0
DWIDTH 5 0
BBX 4 8 0 -3
BITMAP
90
90
90
B0
50
10
A0
C0
ENDCHAR
STARTCHAR U+007A
ENCODING 122
SWIDTH 714 0
DWIDTH 5 0
BBX 4 5 0 0
BITMAP
F0
20
40
90
F0
ENDCHAR
STARTCHAR U+007B
ENCODING 123
SWIDTH 714 0
DWIDTH 5 0
BBX 3 11 0 -2
BITMAP
20
40
40
40
40
80
40
40
40
40
20
ENDCHAR
STARTCHAR U+007C
ENCODING 124
SWIDTH 714 0
DWIDTH 5 0
BBX 1 11 2 -2
BITMAP
80
80
80
80
80
80
80
80
80
80
80
ENDCHAR
STARTCHAR U+007D
ENCODING 125
SWIDTH 714 0
DWIDTH 5 0
BBX 3 11 1 -2
BITMAP
80
40
40
40
40
20
40
40
40
40
80
ENDCHAR
STARTCHAR U+007E
ENCODING 126
SWIDTH 714 0
DWIDTH 5 0
BBX 5 3 0 2
BITMAP
48
A8
90
ENDCHAR
STARTCHAR U+00A0
ENCODING 160
SWIDTH 714 0
DWIDTH 5 0
BBX 0 0 0 0
BITMAP
ENDCHAR
STARTCHAR U+00A1
ENCODING 161
SWIDTH 714 0
DWIDTH 5 0
BBX 1 8 2 -1
BITMAP
80
00
80
80
80
80
80
80
ENDCHAR
STARTCHAR U+00A2
ENCODING 162
SWIDTH 714 0
DWIDTH 5 0
BBX 4 7 0 0
BITMAP
20
60
90
80
90
60
40
ENDCHAR
STARTCHAR U+00A3
ENCODING 163
SWIDTH 714 0
DWIDTH 5 0
BBX 4 8 0 0
BITMAP
20
50
40
E0
40
40
50
B0
ENDCHAR
STARTCHAR U+00A4
ENCODING 164
SWIDTH 714 0
DWIDTH 5 0
BBX 5 5 0 1
BITMAP
88
70
50
70
88
ENDCHAR
STARTCHAR U+00A5
ENCODING 165
SWIDTH 714 0
DWIDTH 5 0
BBX 5 8 0 0
BITMAP
88
50
20
70
20
70
20
20
ENDCHAR
STARTCHAR U+00A6
ENCODING 166
SWIDTH 714 0
DWIDTH 5 0
BBX 1 11 2 -2
BITMAP
80
80
80
80
00
00
00
80
80
80
80
ENDCHAR
STARTCHAR U+00A7
ENCODING 167
SWIDTH 714 0
DWIDTH 5 0
BBX 4 9 0 -1
BITMAP
60
90
80
60
90
60
10
90
60
ENDCHAR
STARTCHAR U+00A8
ENCODING 168
SWIDTH 714 0
DWIDTH 5 0
BBX 3 1 1 7
BITMAP
A0
ENDCHAR
STARTCHAR U+00A9
ENCODING 169
SWIDTH 714 0
DWIDTH 5 0
BBX 5 6 0 0
BITMAP
70
D8
A8
B8
C8
70
ENDCHAR
STARTCHAR U+00AA
ENCODING 170
SWIDTH 714 0
DWIDTH 5 0
BBX 3 5 0 4
BITMAP
40
20
60
A0
60
ENDCHAR
STARTCHAR U+00AB
ENCODING 171
SWIDTH 714 0
DWIDTH 5 0
BBX 4 3 0 2
BITMAP
50
A0
50
ENDCHAR
STARTCHAR U+00AC
ENCODING 172
SWIDTH 714 0
DWIDTH 5 0
BBX 4 2 0 2
BITMAP
F0
10
ENDCHAR
STARTCHAR U+00AD
ENCODING 173
SWIDTH 714 0
DWIDTH 5 0
BBX 4 1 0 3
BITMAP
F0
ENDCHAR
STARTCHAR U+00AE
ENCODING 174
SWIDTH 714 0
DWIDTH 5 0
BBX 5 6 0 0
BITMAP
70
D8
A8
98
A8
70
ENDCHAR
STARTCHAR U+00AF
ENCODING 175
SWIDTH 714 0
DWIDTH 5 0
BBX 4 1 0 7
BITMAP
F0
ENDCHAR
STARTCHAR U+00B0
ENCODING 176
SWIDTH 714 0
DWIDTH 5 0
BBX 3 3 1 5
BITMAP
40
A0
40
ENDCHAR
STARTCHAR U+00B1
ENCODING 177
SWIDTH 714 0
DWIDTH 5 0
BBX 3 5 1 1
BITMAP
40
E0
40
00
E0
ENDCHAR
STARTCHAR U+00B2
ENCODING 178
SWIDTH 714 0
DWIDTH 5 0
BBX 3 5 0 4
BITMAP
40
A0
20
40
E0
ENDCHAR
STARTCHAR U+00B3
ENCODING 179
SWIDTH 714 0
DWIDTH 5 0
BBX 3 5 0 4
BITMAP
C0
20
40
20
C0
ENDCHAR
STARTCHAR U+00B4
ENCODING 180
SWIDTH 714 0
DWIDTH 5 0
BBX 2 2 1 6
BITMAP
40
80
ENDCHAR
STARTCHAR U+00B5
ENCODING 181
SWIDTH 714 0
DWIDTH 5 0
BBX 4 8 0 -3
BITMAP
90
90
90
B0
D0
80
80
80
ENDCHAR
STARTCHAR U+00B6
ENCODING 182
SWIDTH 714 0
DWIDTH 5 0
BBX 4 9 0 -1
BITMAP
70
D0
D0
D0
D0
50
50
50
50
ENDCHAR
STARTCHAR U+00B7
ENCODING 183
SWIDTH 714 0
DWIDTH 5 0
BBX 1 1 2 3
BITMAP
80
ENDCHAR
STARTCHAR U+00B8
ENCODING 184
SWIDTH 714 0
DWIDTH 5 0
BBX 2 2 1 -2
BITMAP
40
C0
ENDCHAR
STARTCHAR U+00B9
ENCODING 185
SWIDTH 714 0
DWIDTH 5 0
BBX 3 5 0 4
BITMAP
40
C0
40
40
E0
ENDCHAR
STARTCHAR U+00BA
ENCODING 186
SWIDTH 714 0
DWIDTH 5 0
BBX 3 4 0 4
BITMAP
60
A0
A0
40
ENDCHAR
STARTCHAR U+00BB
ENCODING 187
SWIDTH 714 0
DWIDTH 5 0
BBX 4 3 0 2
BITMAP
A0
50
A0
ENDCHAR
STARTCHAR U+00BC
ENCODING 188
SWIDTH 714 0
DWIDTH 5 0
BBX 3 11 1 -2
BITMAP
40
C0
40
40
E0
00
80
A0
E0
20
20
ENDCHAR
STARTCHAR U+00BD
ENCODING 189
SWIDTH 714 0
DWIDTH 5 0
BBX 3 11 1 -2
BITMAP
40
C0
40
40
E0
00
40
A0
20
40
E0
ENDCHAR
STARTCHAR U+00BE
ENCODING 190
SWIDTH 714 0
DWIDTH 5 0
BBX 3 11 1 -2
BITMAP
C0
20
40
20
C0
00
80
A0
E0
20
20
ENDCHAR
STARTCHAR U+00BF
ENCODING 191
SWIDTH 714 0
DWIDTH 5 0
BBX 4 8 0 -1
BITMAP
20
00
20
20
40
80
90
70
ENDCHAR
STARTCHAR U+00C0
ENCODING 192
SWIDTH 714 0
DWIDTH 5 0
BBX 4 10 0 0
BITMAP
40
20
00
60
90
B0
D0
90
90
90
ENDCHAR
STARTCHAR U+00C1
ENCODING 193
SWIDTH 714 0
DWIDTH 5 0
BBX 4 10 0 0
BITMAP
20
40
00
60
90
B0
D0
90
90
90
ENDCHAR
STARTCHAR U+00C2
ENCODING 194
SWIDTH 714 0
DWIDTH 5 0
BBX 4 10 0 0
BITMAP
20
50
00
60
90
B0
D0
90
90
90
ENDCHAR
STARTCHAR U+00C3
ENCODING 195
SWIDTH 714 0
DWIDTH 5 0
BBX 4 10 0 0
BITMAP
D0
B0
00
60
90
B0
D0
90
90
90
ENDCHAR
STARTCHAR U+00C4
ENCODING 196
SWIDTH 714 0
DWIDTH 5 0
BBX 4 9 0 0
BITMAP
90
00
60
90
B0
D0
90
90
90
ENDCHAR
STARTCHAR U+00C5
ENCODING 197
SWIDTH 714 0
DWIDTH 5 0
BBX 4 10 0 0
BITMAP
20
50
20
00
60
90
B0
D0
90
90
ENDCHAR
STARTCHAR U+00C6
ENCODING 198
SWIDTH 714 0
DWIDTH 5 0
BBX 4 8 0 0
BITMAP
70
A0
A0
F0
A0
A0
A0
B0
ENDCHAR
STARTCHAR U+00C7
ENCODING 199
SWIDTH 714 0
DWIDTH 5 0
BBX 4 10 0 -2
BITMAP
60
A0
80
80
80
80
90
60
20
60
ENDCHAR
STARTCHAR U+00C8
ENCODING 200
SWIDTH 714 0
DWIDTH 5 0
BBX 4 10 0 0
BITMAP
40
20
00
60
80
40
80
80
90
60
ENDCHAR
STARTCHAR U+00C9
ENCODING 201
SWIDTH 714 0
DWIDTH 5 0
BBX 4 10 0 0
BITMAP
20
40
00
60
80
40
80
80
90
60
ENDCHAR
STARTCHAR U+00CA
ENCODING 202
SWIDTH 714 0
DWIDTH 5 0
BBX 4 10 0 0
BITMAP
40
A0
00
60
80
40
80
80
90
60
ENDCHAR
STARTCHAR U+00CB
ENCODING 203
SWIDTH 714 0
DWIDTH 5 0
BBX 4 9 0 0
BITMAP
A0
00
60
80
40
80
80
90
60
ENDCHAR
STARTCHAR U+00CC
ENCODING 204
SWIDTH 714 0
DWIDTH 5 0
BBX 4 10 0 0
BITMAP
40
20
00
30
C0
20
20
20
30
C0
ENDCHAR
STARTCHAR U+00CD
ENCODING 205
SWIDTH 714 0
DWIDTH 5 0
BBX 4 10 0 0
BITMAP
10
20
00
30
C0
20
20
20
30
C0
ENDCHAR
STARTCHAR U+00CE
ENCODING 206
SWIDTH 714 0
DWIDTH 5 0
BBX 4 10 0 0
BITMAP
20
50
00
30
C0
20
20
20
30
C0
ENDCHAR
STARTCHAR U+00CF
ENCODING 207
SWIDTH 714 0
DWIDTH 5 0
BBX 4 9 0 0
BITMAP
50
00
30
C0
20
20
20
30
C0
ENDCHAR
STARTCHAR U+00D0
ENCODING 208
SWIDTH 714 0
DWIDTH 5 0
BBX 5 8 -1 0
BITMAP
70
48
48
E8
48
48
50
60
ENDCHAR
STARTCHAR U+00D1
ENCODING 209
SWIDTH 714 0
DWIDTH 5 0
BBX 4 10 0 0
BITMAP
D0
B0
00
90
D0
D0
B0
B0
90
90
ENDCHAR
STARTCHAR U+00D2
ENCODING 210
SWIDTH 714 0
DWIDTH 5 0
BBX 4 10 0 0
BITMAP
40
20
00
60
90
90
90
90
90
60
ENDCHAR
STARTCHAR U+00D3
ENCODING 211
SWIDTH 714 0
DWIDTH 5 0
BBX 4 10 0 0
BITMAP
20
40
00
60
90
90
90
90
90
60
ENDCHAR
STARTCHAR U+00D4
ENCODING 212
SWIDTH 714 0
DWIDTH 5 0
BBX 4 10 0 0
BITMAP
20
50
00
60
90
90
90
90
90
60
ENDCHAR
STARTCHAR U+00D5
ENCODING 213
SWIDTH 714 0
DWIDTH 5 0
BBX 4 10 0 0
BITMAP
D0
B0
00
60
90
90
90
90
90
60
ENDCHAR
STARTCHAR U+00D6
ENCODING 214
SWIDTH 714 0
DWIDTH 5 0
BBX 4 9 0 0
BITMAP
90
00
60
90
90
90
90
90
60
ENDCHAR
STARTCHAR U+00D7
ENCODING 215
SWIDTH 714 0
DWIDTH 5 0
BBX 5 5 0 1
BITMAP
88
50
20
50
88
ENDCHAR
STARTCHAR U+00D8
ENCODING 216
SWIDTH 714 0
DWIDTH 5 0
BBX 6 8 -1 0
BITMAP
34
48
48
58
68
48
48
B0
ENDCHAR
STARTCHAR U+00D9
ENCODING 217
SWIDTH 714 0
DWIDTH 5 0
BBX 4 10 0 0
BITMAP
40
20
00
90
90
90
90
90
90
60
ENDCHAR
STARTCHAR U+00DA
ENCODING 218
SWIDTH 714 0
DWIDTH 5 0
BBX 4 10 0 0
BITMAP
20
40
00
90
90
90
90
90
90
60
ENDCHAR
STARTCHAR U+00DB
ENCODING 219
SWIDTH 714 0
DWIDTH 5 0
BBX 4 10 0 0
BITMAP
20
50
00
90
90
90
90
90
90
60
ENDCHAR
STARTCHAR U+00DC
ENCODING 220
SWIDTH 714 0
DWIDTH 5 0
BBX 4 9 0 0
BITMAP
90
00
90
90
90
90
90
90
60
ENDCHAR
STARTCHAR U+00DD
ENCODING 221
SWIDTH 714 0
DWIDTH 5 0
BBX 4 10 0 0
BITMAP
20
40
00
90
50
50
30
10
A0
C0
ENDCHAR
STARTCHAR U+00DE
ENCODING 222
SWIDTH 714 0
DWIDTH 5 0
BBX 4 8 0 0
BITMAP
80
80
E0
90
90
E0
80
80
ENDCHAR
STARTCHAR U+00DF
ENCODING 223
SWIDTH 714 0
DWIDTH 5 0
BBX 4 7 0 0
BITMAP
60
90
A0
90
90
90
A0
ENDCHAR
STARTCHAR U+00E0
ENCODING 224
SWIDTH 714 0
DWIDTH 5 0
BBX 4 8 0 0
BITMAP
40
20
00
60
10
70
90
50
ENDCHAR
STARTCHAR U+00E1
ENCODING 225
SWIDTH 714 0
DWIDTH 5 0
BBX 4 8 0 0
BITMAP
20
40
00
60
10
70
90
50
ENDCHAR
STARTCHAR U+00E2
ENCODING 226
SWIDTH 714 0
DWIDTH 5 0
BBX 4 8 0 0
BITMAP
20
50
00
60
10
70
90
50
ENDCHAR
STARTCHAR U+00E3
ENCODING 227
SWIDTH 714 0
DWIDTH 5 0
BBX 4 8 0 0
BITMAP
D0
B0
00
60
10
70
90
50
ENDCHAR
STARTCHAR U+00E4
ENCODING 228
SWIDTH 714 0
DWIDTH 5 0
BBX 4 7 0 0
BITMAP
50
00
60
10
70
90
50
ENDCHAR
STARTCHAR U+00E5
ENCODING 229
SWIDTH 714 0
DWIDTH 5 0
BBX 4 9 0 0
BITMAP
20
50
20
00
60
10
70
90
50
ENDCHAR
STARTCHAR U+00E6
ENCODING 230
SWIDTH 714 0
DWIDTH 5 0
BBX 6 5 -1 0
BITMAP
50
28
70
A4
58
ENDCHAR
STARTCHAR U+00E7
ENCODING 231
SWIDTH 714 0
DWIDTH 5 0
BBX 4 7 0 -2
BITMAP
60
A0
80
90
60
20
60
ENDCHAR
STARTCHAR U+00E8
ENCODING 232
SWIDTH 714 0
DWIDTH 5 0
BBX 4 8 0 0
BITMAP
40
20
00
60
A0
C0
90
60
ENDCHAR
STARTCHAR U+00E9
ENCODING 233
SWIDTH 714 0
DWIDTH 5 0
BBX 4 8 0 0
BITMAP
20
40
00
60
A0
C0
90
60
ENDCHAR
STARTCHAR U+00EA
ENCODING 234
SWIDTH 714 0
DWIDTH 5 0
BBX 4 8 0 0
BITMAP
40
A0
00
60
A0
C0
90
60
ENDCHAR
STARTCHAR U+00EB
ENCODING 235
SWIDTH 714 0
DWIDTH 5 0
BBX 4 7 0 0
BITMAP
A0
00
60
A0
C0
90
60
ENDCHAR
STARTCHAR U+00EC
ENCODING 236
SWIDTH 714 0
DWIDTH 5 0
BBX 4 8 0 0
BITMAP
80
40
00
40
C0
40
50
20
ENDCHAR
STARTCHAR U+00ED
ENCODING 237
SWIDTH 714 0
DWIDTH 5 0
BBX 4 8 0 0
BITMAP
20
40
00
40
C0
40
50
20
ENDCHAR
STARTCHAR U+00EE
ENCODING 238
SWIDTH 714 0
DWIDTH 5 0
BBX 4 8 0 0
BITMAP
40
A0
00
40
C0
40
50
20
ENDCHAR
STARTCHAR U+00EF
ENCODING 239
SWIDTH 714 0
DWIDTH 5 0
BBX 4 7 0 0
BITMAP
A0
00
40
C0
40
50
20
ENDCHAR
STARTCHAR U+00F0
ENCODING 240
SWIDTH 714 0
DWIDTH 5 0
BBX 4 8 0 0
BITMAP
A0
40
A0
10
50
90
90
60
ENDCHAR
STARTCHAR U+00F1
ENCODING 241
SWIDTH 714 0
DWIDTH 5 0
BBX 4 8 0 0
BITMAP
D0
B0
00
A0
D0
90
90
90
ENDCHAR
STARTCHAR U+00F2
ENCODING 242
SWIDTH 714 0
DWIDTH 5 0
BBX 4 8 0 0
BITMAP
40
20
00
60
90
90
90
60
ENDCHAR
STARTCHAR U+00F3
ENCODING 243
SWIDTH 714 0
DWIDTH 5 0
BBX 4 8 0 0
BITMAP
20
40
00
60
90
90
90
60
ENDCHAR
STARTCHAR U+00F4
ENCODING 244
SWIDTH 714 0
DWIDTH 5 0
BBX 4 8 0 0
BITMAP
20
50
00
60
90
90
90
60
ENDCHAR
STARTCHAR U+00F5
ENCODING 245
SWIDTH 714 0
DWIDTH 5 0
BBX 4 8 0 0
BITMAP
D0
B0
00
60
90
90
90
60
ENDCHAR
STARTCHAR U+00F6
ENCODING 246
SWIDTH 714 0
DWIDTH 5 0
BBX 4 7 0 0
BITMAP
90
00
60
90
90
90
60
ENDCHAR
STARTCHAR U+00F7
ENCODING 247
SWIDTH 714 0
DWIDTH 5 0
BBX 5 5 0 1
BITMAP
20
00
F8
00
20
ENDCHAR
STARTCHAR U+00F8
ENCODING 248
SWIDTH 714 0
DWIDTH 5 0
BBX 6 6 -1 0
BITMAP
34
48
58
68
48
B0
ENDCHAR
STARTCHAR U+00F9
ENCODING 249
SWIDTH 714 0
DWIDTH 5 0
BBX 4 8 0 0
BITMAP
40
20
00
90
90
90
B0
50
ENDCHAR
STARTCHAR U+00FA
ENCODING 250
SWIDTH 714 0
DWIDTH 5 0
BBX 4 8 0 0
BITMAP
20
40
00
90
90
90
B0
50
ENDCHAR
STARTCHAR U+00FB
ENCODING 251
SWIDTH 714 0
DWIDTH 5 0
BBX 4 8 0 0
BITMAP
20
50
00
90
90
90
B0
50
ENDCHAR
STARTCHAR U+00FC
ENCODING 252
SWIDTH 714 0
DWIDTH 5 0
BBX 4 7 0 0
BITMAP
90
00
90
90
90
B0
50
ENDCHAR
STARTCHAR U+00FD
ENCODING 253
SWIDTH 714 0
DWIDTH 5 0
BBX 4 11 0 -3
BITMAP
20
40
00
90
90
90
B0
50
10
A0
C0
ENDCHAR
STARTCHAR U+00FE
ENCODING 254
SWIDTH 714 0
DWIDTH 5 0
BBX 4 11 0 -3
BITMAP
80
80
80
E0
90
90
A0
C0
80
80
80
ENDCHAR
STARTCHAR U+00FF
ENCODING 255
SWIDTH 714 0
DWIDTH 5 0
BBX 4 10 0 -3
BITMAP
90
00
90
90
90
B0
50
10
A0
C0
ENDCHAR
STARTCHAR U+0100
ENCODING 256
SWIDTH 714 0
DWIDTH 5 0
BBX 4 9 0 0
BITMAP
F0
00
60
90
B0
D0
90
90
90
ENDCHAR
STARTCHAR U+0101
ENCODING 257
SWIDTH 714 0
DWIDTH 5 0
BBX 4 7 0 0
BITMAP
70
00
60
10
70
90
50
ENDCHAR
STARTCHAR U+0102
ENCODING 258
SWIDTH 714 0
DWIDTH 5 0
BBX 4 10 0 0
BITMAP
90
60
00
60
90
B0
D0
90
90
90
ENDCHAR
STARTCHAR U+0103
ENCODING 259
SWIDTH 714 0
DWIDTH 5 0
BBX 4 8 0 0
BITMAP
90
60
00
60
10
70
90
50
ENDCHAR
STARTCHAR U+0104
ENCODING 260
SWIDTH 714 0
DWIDTH 5 0
BBX 4 10 0 -2
BITMAP
60
90
90
B0
D0
90
90
90
20
30
ENDCHAR
STARTCHAR U+0105
ENCODING 261
SWIDTH 714 0
DWIDTH 5 0
BBX 4 7 0 -2
BITMAP
60
10
70
90
70
20
30
ENDCHAR
STARTCHAR U+0106
ENCODING 262
SWIDTH 714 0
DWIDTH 5 0
BBX 4 10 0 0
BITMAP
20
40
00
60
A0
80
80
80
90
60
ENDCHAR
STARTCHAR U+0107
ENCODING 263
SWIDTH 714 0
DWIDTH 5 0
BBX 4 8 0 0
BITMAP
20
40
00
60
A0
80
90
60
ENDCHAR
STARTCHAR U+0108
ENCODING 264
SWIDTH 714 0
DWIDTH 5 0
BBX 4 10 0 0
BITMAP
40
A0
00
60
A0
80
80
80
90
60
ENDCHAR
STARTCHAR U+0109
ENCODING 265
SWIDTH 714 0
DWIDTH 5 0
BBX 4 8 0 0
BITMAP
40
A0
00
60
A0
80
90
60
ENDCHAR
STARTCHAR U+010A
ENCODING 266
SWIDTH 714 0
DWIDTH 5 0
BBX 4 9 0 0
BITMAP
40
00
60
A0
80
80
80
90
60
ENDCHAR
STARTCHAR U+010B
ENCODING 267
SWIDTH 714 0
DWIDTH 5 0
BBX 4 7 0 0
BITMAP
40
00
60
A0
80
90
60
ENDCHAR
STARTCHAR U+010C
ENCODING 268
SWIDTH 714 0
DWIDTH 5 0
BBX 4 10 0 0
BITMAP
A0
40
00
60
A0
80
80
80
90
60
ENDCHAR
STARTCHAR U+010D
ENCODING 269
SWIDTH 714 0
DWIDTH 5 0
BBX 4 8 0 0
BITMAP
A0
40
00
60
A0
80
90
60
ENDCHAR
STARTCHAR U+010E
ENCODING 270
SWIDTH 714 0
DWIDTH 5 0
BBX 4 10 0 0
BITMAP
A0
40
00
E0
90
90
90
90
A0
C0
ENDCHAR
STARTCHAR U+010F
ENCODING 271
SWIDTH 714 0
DWIDTH 5 0
BBX 5 8 0 0
BITMAP
28
28
20
60
A0
A0
A0
60
ENDCHAR
STARTCHAR U+0110
ENCODING 272
SWIDTH 714 0
DWIDTH 5 0
BBX 5 8 -1 0
BITMAP
70
48
48
E8
48
48
50
60
ENDCHAR
STARTCHAR U+0111
ENCODING 273
SWIDTH 714 0
DWIDTH 5 0
BBX 4 8 0 0
BITMAP
10
70
10
50
B0
90
90
60
ENDCHAR
STARTCHAR U+0112
ENCODING 274
SWIDTH 714 0
DWIDTH 5 0
BBX 4 9 0 0
BITMAP
E0
00
60
80
40
80
80
90
60
ENDCHAR
STARTCHAR U+0113
ENCODING 275
SWIDTH 714 0
DWIDTH 5 0
BBX 4 7 0 0
BITMAP
E0
00
60
A0
C0
90
60
ENDCHAR
STARTCHAR U+0114
ENCODING 276
SWIDTH 714 0
DWIDTH 5 0
BBX 4 10 0 0
BITMAP
90
60
00
60
80
40
80
80
90
60
ENDCHAR
STARTCHAR U+0115
ENCODING 277
SWIDTH 714 0
DWIDTH 5 0
BBX 4 8 0 0
BITMAP
90
60
00
60
A0
C0
90
60
ENDCHAR
STARTCHAR U+0116
ENCODING 278
SWIDTH 714 0
DWIDTH 5 0
BBX 4 9 0 0
BITMAP
40
00
60
80
40
80
80
90
60
ENDCHAR
STARTCHAR U+0117
ENCODING 279
SWIDTH 714 0
DWIDTH 5 0
BBX 4 7 0 0
BITMAP
40
00
60
A0
C0
90
60
ENDCHAR
STARTCHAR U+0118
ENCODING 280
SWIDTH 714 0
DWIDTH 5 0
BBX 4 10 0 -2
BITMAP
60
A0
80
40
80
80
90
60
20
30
ENDCHAR
STARTCHAR U+0119
ENCODING 281
SWIDTH 714 0
DWIDTH 5 0
BBX 4 7 0 -2
BITMAP
60
A0
C0
90
60
20
30
ENDCHAR
STARTCHAR U+011A
ENCODING 282
SWIDTH 714 0
DWIDTH 5 0
BBX 4 10 0 0
BITMAP
A0
40
00
60
80
40
80
80
90
60
ENDCHAR
STARTCHAR U+011B
ENCODING 283
SWIDTH 714 0
DWIDTH 5 0
BBX 4 8 0 0
BITMAP
A0
40
00
60
A0
C0
90
60
ENDCHAR
STARTCHAR U+011C
ENCODING 284
SWIDTH 714 0
DWIDTH 5 0
BBX 4 10 0 0
BITMAP
20
50
00
70
80
B0
90
90
A0
40
ENDCHAR
STARTCHAR U+011D
ENCODING 285
SWIDTH 714 0
DWIDTH 5 0
BBX 4 11 0 -3
BITMAP
20
50
00
60
90
90
B0
50
10
A0
C0
ENDCHAR
STARTCHAR U+011E
ENCODING 286
SWIDTH 714 0
DWIDTH 5 0
BBX 4 10 0 0
BITMAP
90
60
00
70
80
B0
90
90
A0
40
ENDCHAR
STARTCHAR U+011F
ENCODING 287
SWIDTH 714 0
DWIDTH 5 0
BBX 4 11 0 -3
BITMAP
90
60
00
60
90
90
B0
50
10
A0
C0
ENDCHAR
STARTCHAR U+0120
ENCODING 288
SWIDTH 714 0
DWIDTH 5 0
BBX 4 9 0 0
BITMAP
20
00
70
80
B0
90
90
A0
40
ENDCHAR
STARTCHAR U+0121
ENCODING 289
SWIDTH 714 0
DWIDTH 5 0
BBX 4 10 0 -3
BITMAP
20
00
60
90
90
B0
50
10
A0
C0
ENDCHAR
STARTCHAR U+0122
ENCODING 290
SWIDTH 714 0
DWIDTH 5 0
BBX 4 11 0 -3
BITMAP
70
90
80
B0
90
90
A0
40
00
20
40
ENDCHAR
STARTCHAR U+0123
ENCODING 291
SWIDTH 714 0
DWIDTH 5 0
BBX 4 11 0 -3
BITMAP
10
20
00
60
90
90
B0
50
10
A0
C0
ENDCHAR
STARTCHAR U+0124
ENCODING 292
SWIDTH 714 0
DWIDTH 5 0
BBX 4 10 0 0
BITMAP
20
50
00
90
90
B0
D0
90
90
90
ENDCHAR
STARTCHAR U+0125
ENCODING 293
SWIDTH 714 0
DWIDTH 5 0
BBX 4 10 0 0
BITMAP
40
A0
00
80
80
A0
D0
90
90
90
ENDCHAR
STARTCHAR U+0126
ENCODING 294
SWIDTH 714 0
DWIDTH 5 0
BBX 4 8 0 0
BITMAP
10
90
90
F0
90
F0
90
90
ENDCHAR
STARTCHAR U+0127
ENCODING 295
SWIDTH 714 0
DWIDTH 5 0
BBX 4 8 0 0
BITMAP
80
E0
80
A0
D0
90
90
90
ENDCHAR
STARTCHAR U+0128
ENCODING 296
SWIDTH 714 0
DWIDTH 5 0
BBX 4 10 0 0
BITMAP
D0
B0
00
30
C0
20
20
20
30
C0
ENDCHAR
STARTCHAR U+0129
ENCODING 297
SWIDTH 714 0
DWIDTH 5 0
BBX 4 8 0 0
BITMAP
D0
B0
00
40
C0
40
50
20
ENDCHAR
STARTCHAR U+012A
ENCODING 298
SWIDTH 714 0
DWIDTH 5 0
BBX 4 9 0 0
BITMAP
F0
00
30
C0
20
20
20
30
C0
ENDCHAR
STARTCHAR U+012B
ENCODING 299
SWIDTH 714 0
DWIDTH 5 0
BBX 4 7 0 0
BITMAP
E0
00
40
C0
40
50
20
ENDCHAR
STARTCHAR U+012C
ENCODING 300
SWIDTH 714 0
DWIDTH 5 0
BBX 4 10 0 0
BITMAP
90
60
00
30
C0
20
20
20
30
C0
ENDCHAR
STARTCHAR U+012D
ENCODING 301
SWIDTH 714 0
DWIDTH 5 0
BBX 4 8 0 0
BITMAP
90
60
00
40
C0
40
50
20
ENDCHAR
STARTCHAR U+012E
ENCODING 302
SWIDTH 714 0
DWIDTH 5 0
BBX 4 10 0 -2
BITMAP
30
C0
20
20
20
20
30
C0
20
30
ENDCHAR
STARTCHAR U+012F
ENCODING 303
SWIDTH 714 0
DWIDTH 5 0
BBX 3 9 0 -2
BITMAP
40
00
40
C0
40
40
20
40
60
ENDCHAR
STARTCHAR U+0130
ENCODING 304
SWIDTH 714 0
DWIDTH 5 0
BBX 4 9 0 0
BITMAP
20
00
30
C0
20
20
20
30
C0
ENDCHAR
STARTCHAR U+0131
ENCODING 305
SWIDTH 714 0
DWIDTH 5 0
BBX 4 5 0 0
BITMAP
40
C0
40
50
20
ENDCHAR
STARTCHAR U+0132
ENCODING 306
SWIDTH 714 0
DWIDTH 5 0
BBX 4 10 0 -2
BITMAP
90
B0
90
90
90
90
90
90
10
60
ENDCHAR
STARTCHAR U+0133
ENCODING 307
SWIDTH 714 0
DWIDTH 5 0
BBX 4 10 0 -3
BITMAP
90
00
90
B0
90
90
50
10
50
20
ENDCHAR
STARTCHAR U+0134
ENCODING 308
SWIDTH 714 0
DWIDTH 5 0
BBX 4 10 0 0
BITMAP
20
50
00
30
C0
20
20
20
A0
40
ENDCHAR
STARTCHAR U+0135
ENCODING 309
SWIDTH 714 0
DWIDTH 5 0
BBX 4 11 0 -3
BITMAP
20
50
00
20
60
20
20
20
20
A0
40
ENDCHAR
STARTCHAR U+0136
ENCODING 310
SWIDTH 714 0
DWIDTH 5 0
BBX 4 10 0 -2
BITMAP
10
A0
A0
C0
A0
A0
A0
90
20
30
ENDCHAR
STARTCHAR U+0137
ENCODING 311
SWIDTH 714 0
DWIDTH 5 0
BBX 4 10 0 -2
BITMAP
80
80
80
A0
C0
A0
A0
90
20
30
ENDCHAR
STARTCHAR U+0138
ENCODING 312
SWIDTH 714 0
DWIDTH 5 0
BBX 4 6 0 0
BITMAP
10
A0
C0
C0
A0
90
ENDCHAR
STARTCHAR U+0139
ENCODING 313
SWIDTH 714 0
DWIDTH 5 0
BBX 4 10 0 0
BITMAP
20
40
00
80
80
80
80
80
90
70
ENDCHAR
STARTCHAR U+013A
ENCODING 314
SWIDTH 714 0
DWIDTH 5 0
BBX 4 10 0 0
BITMAP
20
40
00
40
C0
40
40
40
50
20
ENDCHAR
STARTCHAR U+013B
ENCODING 315
SWIDTH 714 0
DWIDTH 5 0
BBX 4 11 0 -3
BITMAP
80
80
80
80
80
80
90
70
00
20
40
ENDCHAR
STARTCHAR U+013C
ENCODING 316
SWIDTH 714 0
DWIDTH 5 0
BBX 4 11 0 -3
BITMAP
40
C0
40
40
40
40
50
20
00
20
40
ENDCHAR
STARTCHAR U+013D
ENCODING 317
SWIDTH 714 0
DWIDTH 5 0
BBX 4 8 0 0
BITMAP
A0
A0
80
80
80
80
90
70
ENDCHAR
STARTCHAR U+013E
ENCODING 318
SWIDTH 714 0
DWIDTH 5 0
BBX 4 8 0 0
BITMAP
50
D0
40
40
40
40
50
20
ENDCHAR
STARTCHAR U+013F
ENCODING 319
SWIDTH 714 0
DWIDTH 5 0
BBX 4 8 0 0
BITMAP
80
80
80
A0
80
80
90
70
ENDCHAR
STARTCHAR U+0140
ENCODING 320
SWIDTH 714 0
DWIDTH 5 0
BBX 4 8 0 0
BITMAP
40
C0
40
50
40
40
50
20
ENDCHAR
STARTCHAR U+0141
ENCODING 321
SWIDTH 714 0
DWIDTH 5 0
BBX 4 8 0 0
BITMAP
80
80
80
A0
C0
80
90
70
ENDCHAR
STARTCHAR U+0142
ENCODING 322
SWIDTH 714 0
DWIDTH 5 0
BBX 4 8 0 0
BITMAP
40
C0
50
60
40
C0
50
20
ENDCHAR
STARTCHAR U+0143
ENCODING 323
SWIDTH 714 0
DWIDTH 5 0
BBX 4 10 0 0
BITMAP
20
40
00
90
D0
D0
B0
B0
90
90
ENDCHAR
STARTCHAR U+0144
ENCODING 324
SWIDTH 714 0
DWIDTH 5 0
BBX 4 8 0 0
BITMAP
20
40
00
A0
D0
90
90
90
ENDCHAR
STARTCHAR U+0145
ENCODING 325
SWIDTH 714 0
DWIDTH 5 0
BBX 4 10 0 -2
BITMAP
10
90
D0
D0
B0
B0
90
90
20
30
ENDCHAR
STARTCHAR U+0146
ENCODING 326
SWIDTH 714 0
DWIDTH 5 0
BBX 4 7 0 -2
BITMAP
A0
D0
90
90
90
20
30
ENDCHAR
STARTCHAR U+0147
ENCODING 327
SWIDTH 714 0
DWIDTH 5 0
BBX 4 10 0 0
BITMAP
50
20
00
90
D0
D0
B0
B0
90
90
ENDCHAR
STARTCHAR U+0148
ENCODING 328
SWIDTH 714 0
DWIDTH 5 0
BBX 4 8 0 0
BITMAP
50
20
00
A0
D0
90
90
90
ENDCHAR
STARTCHAR U+0149
ENCODING 329
SWIDTH 714 0
DWIDTH 5 0
BBX 4 8 0 0
BITMAP
40
80
00
A0
D0
90
90
90
ENDCHAR
STARTCHAR U+014A
ENCODING 330
SWIDTH 714 0
DWIDTH 5 0
BBX 4 11 0 -3
BITMAP
10
90
D0
D0
B0
B0
90
90
10
10
20
ENDCHAR
STARTCHAR U+014B
ENCODING 331
SWIDTH 714 0
DWIDTH 5 0
BBX 4 8 0 -3
BITMAP
A0
D0
90
90
90
10
10
20
ENDCHAR
STARTCHAR U+014C
ENCODING 332
SWIDTH 714 0
DWIDTH 5 0
BBX 4 9 0 0
BITMAP
F0
00
60
90
90
90
90
90
60
ENDCHAR
STARTCHAR U+014D
ENCODING 333
SWIDTH 714 0
DWIDTH 5 0
BBX 4 7 0 0
BITMAP
F0
00
60
90
90
90
60
ENDCHAR
STARTCHAR U+014E
ENCODING 334
SWIDTH 714 0
DWIDTH 5 0
BBX 4 10 0 0
BITMAP
90
60
00
60
90
90
90
90
90
60
ENDCHAR
STARTCHAR U+014F
ENCODING 335
SWIDTH 714 0
DWIDTH 5 0
BBX 4 8 0 0
BITMAP
90
60
00
60
90
90
90
60
ENDCHAR
STARTCHAR U+0150
ENCODING 336
SWIDTH 714 0
DWIDTH 5 0
BBX 4 10 0 0
BITMAP
50
A0
00
60
90
90
90
90
90
60
ENDCHAR
STARTCHAR U+0151
ENCODING 337
SWIDTH 714 0
DWIDTH 5 0
BBX 4 8 0 0
BITMAP
50
A0
00
60
90
90
90
60
ENDCHAR
STARTCHAR U+0152
ENCODING 338
SWIDTH 714 0
DWIDTH 5 0
BBX 4 8 0 0
BITMAP
70
A0
A0
B0
A0
A0
A0
70
ENDCHAR
STARTCHAR U+0153
ENCODING 339
SWIDTH 714 0
DWIDTH 5 0
BBX 6 5 -1 0
BITMAP
50
A8
B0
A4
58
ENDCHAR
STARTCHAR U+0154
ENCODING 340
SWIDTH 714 0
DWIDTH 5 0
BBX 4 10 0 0
BITMAP
20
40
00
60
90
A0
C0
A0
A0
90
ENDCHAR
STARTCHAR U+0155
ENCODING 341
SWIDTH 714 0
DWIDTH 5 0
BBX 4 8 0 0
BITMAP
20
40
00
B0
D0
80
80
80
ENDCHAR
STARTCHAR U+0156
ENCODING 342
SWIDTH 714 0
DWIDTH 5 0
BBX 4 11 0 -3
BITMAP
60
90
90
A0
C0
A0
A0
90
00
20
40
ENDCHAR
STARTCHAR U+0157
ENCODING 343
SWIDTH 714 0
DWIDTH 5 0
BBX 4 7 0 -2
BITMAP
B0
D0
80
80
80
20
40
ENDCHAR
STARTCHAR U+0158
ENCODING 344
SWIDTH 714 0
DWIDTH 5 0
BBX 4 10 0 0
BITMAP
A0
40
00
60
90
A0
C0
A0
A0
90
ENDCHAR
STARTCHAR U+0159
ENCODING 345
SWIDTH 714 0
DWIDTH 5 0
BBX 4 8 0 0
BITMAP
A0
40
00
B0
D0
80
80
80
ENDCHAR
STARTCHAR U+015A
ENCODING 346
SWIDTH 714 0
DWIDTH 5 0
BBX 4 10 0 0
BITMAP
20
40
00
70
80
60
10
10
A0
C0
ENDCHAR
STARTCHAR U+015B
ENCODING 347
SWIDTH 714 0
DWIDTH 5 0
BBX 4 8 0 0
BITMAP
20
40
00
60
80
60
10
E0
ENDCHAR
STARTCHAR U+015C
ENCODING 348
SWIDTH 714 0
DWIDTH 5 0
BBX 4 10 0 0
BITMAP
20
50
00
70
80
60
10
10
A0
C0
ENDCHAR
STARTCHAR U+015D
ENCODING 349
SWIDTH 714 0
DWIDTH 5 0
BBX 4 8 0 0
BITMAP
40
A0
00
60
80
60
10
E0
ENDCHAR
STARTCHAR U+015E
ENCODING 350
SWIDTH 714 0
DWIDTH 5 0
BBX 4 10 0 -2
BITMAP
70
90
80
60
10
10
A0
C0
20
60
ENDCHAR
STARTCHAR U+015F
ENCODING 351
SWIDTH 714 0
DWIDTH 5 0
BBX 4 7 0 -2
BITMAP
60
80
60
10
E0
20
60
ENDCHAR
STARTCHAR U+0160
ENCODING 352
SWIDTH 714 0
DWIDTH 5 0
BBX 4 10 0 0
BITMAP
50
20
00
70
80
60
10
10
A0
C0
ENDCHAR
STARTCHAR U+0161
ENCODING 353
SWIDTH 714 0
DWIDTH 5 0
BBX 4 8 0 0
BITMAP
A0
40
00
60
80
60
10
E0
ENDCHAR
STARTCHAR U+0162
ENCODING 354
SWIDTH 714 0
DWIDTH 5 0
BBX 5 11 0 -3
BITMAP
18
E0
20
20
20
20
20
20
10
20
60
ENDCHAR
STARTCHAR U+0163
ENCODING 355
SWIDTH 714 0
DWIDTH 5 0
BBX 4 9 0 -2
BITMAP
40
40
E0
40
40
50
20
20
60
ENDCHAR
STARTCHAR U+0164
ENCODING 356
SWIDTH 714 0
DWIDTH 5 0
BBX 5 10 0 0
BITMAP
50
20
00
18
E0
20
20
20
20
20
ENDCHAR
STARTCHAR U+0165
ENCODING 357
SWIDTH 714 0
DWIDTH 5 0
BBX 4 8 0 0
BITMAP
10
50
40
E0
40
40
50
20
ENDCHAR
STARTCHAR U+0166
ENCODING 358
SWIDTH 714 0
DWIDTH 5 0
BBX 5 8 0 0
BITMAP
18
E0
20
30
60
20
20
20
ENDCHAR
STARTCHAR U+0167
ENCODING 359
SWIDTH 714 0
DWIDTH 5 0
BBX 4 7 0 0
BITMAP
40
E0
40
E0
40
50
20
ENDCHAR
STARTCHAR U+0168
ENCODING 360
SWIDTH 714 0
DWIDTH 5 0
BBX 4 10 0 0
BITMAP
D0
B0
00
90
90
90
90
90
90
60
ENDCHAR
STARTCHAR U+0169
ENCODING 361
SWIDTH 714 0
DWIDTH 5 0
BBX 4 8 0 0
BITMAP
D0
B0
00
90
90
90
B0
50
ENDCHAR
STARTCHAR U+016A
ENCODING 362
SWIDTH 714 0
DWIDTH 5 0
BBX 4 9 0 0
BITMAP
F0
00
90
90
90
90
90
90
60
ENDCHAR
STARTCHAR U+016B
ENCODING 363
SWIDTH 714 0
DWIDTH 5 0
BBX 4 7 0 0
BITMAP
F0
00
90
90
90
B0
50
ENDCHAR
STARTCHAR U+016C
ENCODING 364
SWIDTH 714 0
DWIDTH 5 0
BBX 4 10 0 0
BITMAP
90
60
00
90
90
90
90
90
90
60
ENDCHAR
STARTCHAR U+016D
ENCODING 365
SWIDTH 714 0
DWIDTH 5 0
BBX 4 8 0 0
BITMAP
90
60
00
90
90
90
B0
50
ENDCHAR
STARTCHAR U+016E
ENCODING 366
SWIDTH 714 0
DWIDTH 5 0
BBX 4 10 0 0
BITMAP
20
50
20
80
90
90
90
90
90
60
ENDCHAR
STARTCHAR U+016F
ENCODING 367
SWIDTH 714 0
DWIDTH 5 0
BBX 4 9 0 0
BITMAP
20
50
20
00
90
90
90
B0
50
ENDCHAR
STARTCHAR U+0170
ENCODING 368
SWIDTH 714 0
DWIDTH 5 0
BBX 4 10 0 0
BITMAP
50
A0
00
90
90
90
90
90
90
60
ENDCHAR
STARTCHAR U+0171
ENCODING 369
SWIDTH 714 0
DWIDTH 5 0
BBX 4 8 0 0
BITMAP
50
A0
00
90
90
90
B0
50
ENDCHAR
STARTCHAR U+0172
ENCODING 370
SWIDTH 714 0
DWIDTH 5 0
BBX 4 10 0 -2
BITMAP
90
90
90
90
90
90
B0
40
20
30
ENDCHAR
STARTCHAR U+0173
ENCODING 371
SWIDTH 714 0
DWIDTH 5 0
BBX 4 7 0 -2
BITMAP
90
90
90
B0
40
20
30
ENDCHAR
STARTCHAR U+0174
ENCODING 372
SWIDTH 714 0
DWIDTH 5 0
BBX 4 10 0 0
BITMAP
20
50
00
90
90
90
B0
F0
F0
90
ENDCHAR
STARTCHAR U+0175
ENCODING 373
SWIDTH 714 0
DWIDTH 5 0
BBX 4 8 0 0
BITMAP
20
50
00
10
90
B0
F0
90
ENDCHAR
STARTCHAR U+0176
ENCODING 374
SWIDTH 714 0
DWIDTH 5 0
BBX 4 10 0 0
BITMAP
20
50
00
90
50
50
30
10
A0
C0
ENDCHAR
STARTCHAR U+0177
ENCODING 375
SWIDTH 714 0
DWIDTH 5 0
BBX 4 11 0 -3
BITMAP
20
50
00
90
90
90
B0
50
10
A0
C0
ENDCHAR
STARTCHAR U+0178
ENCODING 376
SWIDTH 714 0
DWIDTH 5 0
BBX 4 9 0 0
BITMAP
90
00
90
50
50
30
10
A0
C0
ENDCHAR
STARTCHAR U+0179
ENCODING 377
SWIDTH 714 0
DWIDTH 5 0
BBX 4 10 0 0
BITMAP
20
40
00
F0
A0
20
40
40
90
F0
ENDCHAR
STARTCHAR U+017A
ENCODING 378
SWIDTH 714 0
DWIDTH 5 0
BBX 4 8 0 0
BITMAP
20
40
00
F0
20
40
90
F0
ENDCHAR
STARTCHAR U+017B
ENCODING 379
SWIDTH 714 0
DWIDTH 5 0
BBX 4 9 0 0
BITMAP
20
00
F0
A0
20
40
40
90
F0
ENDCHAR
STARTCHAR U+017C
ENCODING 380
SWIDTH 714 0
DWIDTH 5 0
BBX 4 7 0 0
BITMAP
20
00
F0
20
40
90
F0
ENDCHAR
STARTCHAR U+017D
ENCODING 381
SWIDTH 714 0
DWIDTH 5 0
BBX 4 10 0 0
BITMAP
50
20
00
F0
A0
20
40
40
90
F0
ENDCHAR
STARTCHAR U+017E
ENCODING 382
SWIDTH 714 0
DWIDTH 5 0
BBX 4 8 0 0
BITMAP
50
20
00
F0
20
40
90
F0
ENDCHAR
STARTCHAR U+017F
ENCODING 383
SWIDTH 714 0
DWIDTH 5 0
BBX 4 9 0 -1
BITMAP
20
50
40
40
40
40
40
40
80
ENDCHAR
STARTCHAR U+0180
ENCODING 384
SWIDTH 714 0
DWIDTH 5 0
BBX 4 8 0 0
BITMAP
80
E0
80
A0
D0
90
90
60
ENDCHAR
STARTCHAR U+0181
ENCODING 385
SWIDTH 714 0
DWIDTH 5 0
BBX 5 8 -1 0
BITMAP
E0
10
50
68
48
48
50
60
ENDCHAR
STARTCHAR U+0182
ENCODING 386
SWIDTH 714 0
DWIDTH 5 0
BBX 4 7 0 0
BITMAP
F0
80
80
E0
90
90
E0
ENDCHAR
STARTCHAR U+0183
ENCODING 387
SWIDTH 714 0
DWIDTH 5 0
BBX 4 8 0 0
BITMAP
E0
80
80
A0
D0
90
90
E0
ENDCHAR
STARTCHAR U+0184
ENCODING 388
SWIDTH 714 0
DWIDTH 5 0
BBX 4 7 0 0
BITMAP
80
80
80
E0
90
90
60
ENDCHAR
STARTCHAR U+0185
ENCODING 389
SWIDTH 714 0
DWIDTH 5 0
BBX 4 8 0 0
BITMAP
80
80
80
E0
90
90
90
60
ENDCHAR
STARTCHAR U+0186
ENCODING 390
SWIDTH 714 0
DWIDTH 5 0
BBX 4 8 0 0
BITMAP
60
90
10
10
10
10
90
60
ENDCHAR
STARTCHAR U+0187
ENCODING 391
SWIDTH 714 0
DWIDTH 5 0
BBX 5 9 0 0
BITMAP
18
60
A0
80
80
80
80
90
60
ENDCHAR
STARTCHAR U+0188
ENCODING 392
SWIDTH 714 0
DWIDTH 5 0
BBX 5 6 0 0
BITMAP
18
60
A0
80
90
60
ENDCHAR
STARTCHAR U+0189
ENCODING 393
SWIDTH 714 0
DWIDTH 5 0
BBX 5 8 -1 0
BITMAP
70
48
48
E8
48
48
50
60
ENDCHAR
STARTCHAR U+018A
ENCODING 394
SWIDTH 714 0
DWIDTH 5 0
BBX 5 8 -1 0
BITMAP
F0
08
48
48
48
48
50
60
ENDCHAR
STARTCHAR U+018B
ENCODING 395
SWIDTH 714 0
DWIDTH 5 0
BBX 4 7 0 0
BITMAP
F0
10
10
70
90
90
70
ENDCHAR
STARTCHAR U+018C
ENCODING 396
SWIDTH 714 0
DWIDTH 5 0
BBX 4 8 0 0
BITMAP
70
10
10
50
B0
90
90
70
ENDCHAR
STARTCHAR U+018D
ENCODING 397
SWIDTH 714 0
DWIDTH 5 0
BBX 4 7 0 -2
BITMAP
60
90
90
90
60
10
60
ENDCHAR
STARTCHAR U+018E
ENCODING 398
SWIDTH 714 0
DWIDTH 5 0
BBX 4 8 0 0
BITMAP
60
50
10
20
10
10
90
60
ENDCHAR
STARTCHAR U+018F
ENCODING 399
SWIDTH 714 0
DWIDTH 5 0
BBX 4 8 0 0
BITMAP
60
90
10
F0
90
90
90
60
ENDCHAR
STARTCHAR U+0190
ENCODING 400
SWIDTH 714 0
DWIDTH 5 0
BBX 4 8 0 0
BITMAP
60
90
80
60
80
80
90
60
ENDCHAR
STARTCHAR U+0191
ENCODING 401
SWIDTH 714 0
DWIDTH 5 0
BBX 5 10 -1 -2
BITMAP
38
48
40
70
40
40
40
40
40
80
ENDCHAR
STARTCHAR U+0192
ENCODING 402
SWIDTH 714 0
DWIDTH 5 0
BBX 4 10 0 -2
BITMAP
20
50
40
E0
40
40
40
40
40
80
ENDCHAR
STARTCHAR U+0193
ENCODING 403
SWIDTH 714 0
DWIDTH 5 0
BBX 5 9 0 0
BITMAP
18
60
A0
80
B0
90
90
A0
40
ENDCHAR
STARTCHAR U+0194
ENCODING 404
SWIDTH 714 0
DWIDTH 5 0
BBX 5 9 0 -2
BITMAP
88
88
50
50
50
20
20
50
20
ENDCHAR
STARTCHAR U+0195
ENCODING 405
SWIDTH 714 0
DWIDTH 5 0
BBX 5 8 0 0
BITMAP
80
80
80
C0
A8
A8
A8
90
ENDCHAR
STARTCHAR U+0196
ENCODING 406
SWIDTH 714 0
DWIDTH 5 0
BBX 4 8 0 0
BITMAP
40
C0
40
40
40
40
50
20
ENDCHAR
STARTCHAR U+0197
ENCODING 407
SWIDTH 714 0
DWIDTH 5 0
BBX 4 8 0 0
BITMAP
30
C0
20
30
60
20
30
C0
ENDCHAR
STARTCHAR U+0198
ENCODING 408
SWIDTH 714 0
DWIDTH 5 0
BBX 5 8 0 0
BITMAP
90
A8
A0
C0
A0
A0
A0
90
ENDCHAR
STARTCHAR U+0199
ENCODING 409
SWIDTH 714 0
DWIDTH 5 0
BBX 4 8 0 0
BITMAP
60
80
80
A0
C0
A0
A0
90
ENDCHAR
STARTCHAR U+019A
ENCODING 410
SWIDTH 714 0
DWIDTH 5 0
BBX 4 8 0 0
BITMAP
40
C0
40
40
E0
40
50
20
ENDCHAR
STARTCHAR U+019B
ENCODING 411
SWIDTH 714 0
DWIDTH 5 0
BBX 4 8 0 0
BITMAP
40
20
70
20
60
60
A0
90
ENDCHAR
STARTCHAR U+019C
ENCODING 412
SWIDTH 714 0
DWIDTH 5 0
BBX 4 8 0 0
BITMAP
90
90
90
90
B0
F0
D0
80
ENDCHAR
STARTCHAR U+019D
ENCODING 413
SWIDTH 714 0
DWIDTH 5 0
BBX 5 10 -1 -2
BITMAP
08
48
68
68
58
58
48
48
40
80
ENDCHAR
STARTCHAR U+019E
ENCODING 414
SWIDTH 714 0
DWIDTH 5 0
BBX 4 7 0 -2
BITMAP
A0
D0
90
90
90
10
10
ENDCHAR
STARTCHAR U+019F
ENCODING 415
SWIDTH 714 0
DWIDTH 5 0
BBX 4 8 0 0
BITMAP
60
90
90
F0
90
90
90
60
ENDCHAR
STARTCHAR U+01A0
ENCODING 416
SWIDTH 714 0
DWIDTH 5 0
BBX 5 9 0 0
BITMAP
08
70
90
90
90
90
90
90
60
ENDCHAR
STARTCHAR U+01A1
ENCODING 417
SWIDTH 714 0
DWIDTH 5 0
BBX 5 6 0 0
BITMAP
08
70
90
90
90
60
ENDCHAR
STARTCHAR U+01A2
ENCODING 418
SWIDTH 714 0
DWIDTH 5 0
BBX 5 9 0 -2
BITMAP
50
A8
A8
A8
A8
A8
68
08
10
ENDCHAR
STARTCHAR U+01A3
ENCODING 419
SWIDTH 714 0
DWIDTH 5 0
BBX 5 8 0 -3
BITMAP
50
A8
A8
A8
68
08
08
10
ENDCHAR
STARTCHAR U+01A4
ENCODING 420
SWIDTH 714 0
DWIDTH 5 0
BBX 5 8 -1 0
BITMAP
F0
08
48
50
60
40
40
40
ENDCHAR
STARTCHAR U+01A5
ENCODING 421
SWIDTH 714 0
DWIDTH 5 0
BBX 4 10 0 -3
BITMAP
40
80
E0
90
90
A0
C0
80
80
80
ENDCHAR
STARTCHAR U+01A6
ENCODING 422
SWIDTH 714 0
DWIDTH 5 0
BBX 4 9 0 -1
BITMAP
80
E0
90
90
A0
C0
A0
A0
10
ENDCHAR
STARTCHAR U+01A7
ENCODING 423
SWIDTH 714 0
DWIDTH 5 0
BBX 4 8 0 0
BITMAP
60
90
10
20
40
80
90
60
ENDCHAR
STARTCHAR U+01A8
ENCODING 424
SWIDTH 714 0
DWIDTH 5 0
BBX 4 5 0 0
BITMAP
60
10
60
80
70
ENDCHAR
STARTCHAR U+01A9
ENCODING 425
SWIDTH 714 0
DWIDTH 5 0
BBX 4 8 0 0
BITMAP
F0
90
40
20
40
40
90
F0
ENDCHAR
STARTCHAR U+01AA
ENCODING 426
SWIDTH 714 0
DWIDTH 5 0
BBX 5 11 -1 -2
BITMAP
40
A0
60
20
20
20
20
20
20
28
10
ENDCHAR
STARTCHAR U+01AB
ENCODING 427
SWIDTH 714 0
DWIDTH 5 0
BBX 4 9 0 -2
BITMAP
40
40
E0
40
40
40
30
10
20
ENDCHAR
STARTCHAR U+01AC
ENCODING 428
SWIDTH 714 0
DWIDTH 5 0
BBX 6 8 -1 0
BITMAP
7C
90
10
10
10
10
10
10
ENDCHAR
STARTCHAR U+01AD
ENCODING 429
SWIDTH 714 0
DWIDTH 5 0
BBX 4 7 0 0
BITMAP
20
40
E0
40
40
50
20
ENDCHAR
STARTCHAR U+01AE
ENCODING 430
SWIDTH 714 0
DWIDTH 5 0
BBX 5 10 0 -2
BITMAP
18
E0
20
20
20
20
20
20
20
10
ENDCHAR
STARTCHAR U+01AF
ENCODING 431
SWIDTH 714 0
DWIDTH 5 0
BBX 5 9 0 0
BITMAP
08
10
90
90
90
90
90
90
60
ENDCHAR
STARTCHAR U+01B0
ENCODING 432
SWIDTH 714 0
DWIDTH 5 0
BBX 5 6 0 0
BITMAP
08
90
90
90
B0
50
ENDCHAR
STARTCHAR U+01B1
ENCODING 433
SWIDTH 714 0
DWIDTH 5 0
BBX 5 7 0 0
BITMAP
D8
50
88
88
88
88
70
ENDCHAR
STARTCHAR U+01B2
ENCODING 434
SWIDTH 714 0
DWIDTH 5 0
BBX 4 8 0 0
BITMAP
A0
90
90
90
90
90
A0
40
ENDCHAR
STARTCHAR U+01B3
ENCODING 435
SWIDTH 714 0
DWIDTH 5 0
BBX 5 9 0 0
BITMAP
10
28
A0
A0
60
20
20
A0
40
ENDCHAR
STARTCHAR U+01B4
ENCODING 436
SWIDTH 714 0
DWIDTH 5 0
BBX 5 9 0 -3
BITMAP
10
28
A0
A0
A0
60
20
A0
40
ENDCHAR
STARTCHAR U+01B5
ENCODING 437
SWIDTH 714 0
DWIDTH 5 0
BBX 4 8 0 0
BITMAP
F0
90
20
F0
40
40
90
F0
ENDCHAR
STARTCHAR U+01B6
ENCODING 438
SWIDTH 714 0
DWIDTH 5 0
BBX 4 6 0 0
BITMAP
F0
10
E0
40
90
F0
ENDCHAR
STARTCHAR U+01B7
ENCODING 439
SWIDTH 714 0
DWIDTH 5 0
BBX 4 9 0 -1
BITMAP
F0
90
20
60
10
10
10
90
60
ENDCHAR
STARTCHAR U+01B8
ENCODING 440
SWIDTH 714 0
DWIDTH 5 0
BBX 4 9 0 -1
BITMAP
F0
90
40
60
80
80
80
90
60
ENDCHAR
STARTCHAR U+01B9
ENCODING 441
SWIDTH 714 0
DWIDTH 5 0
BBX 4 7 0 -2
BITMAP
E0
80
40
80
80
90
60
ENDCHAR
STARTCHAR U+01BA
ENCODING 442
SWIDTH 714 0
DWIDTH 5 0
BBX 4 8 0 -3
BITMAP
70
10
20
10
10
60
80
60
ENDCHAR
STARTCHAR U+01BB
ENCODING 443
SWIDTH 714 0
DWIDTH 5 0
BBX 4 8 0 0
BITMAP
60
90
10
F0
20
40
90
F0
ENDCHAR
STARTCHAR U+01BC
ENCODING 444
SWIDTH 714 0
DWIDTH 5 0
BBX 4 8 0 0
BITMAP
70
40
40
60
10
10
90
60
ENDCHAR
STARTCHAR U+01BD
ENCODING 445
SWIDTH 714 0
DWIDTH 5 0
BBX 4 6 0 0
BITMAP
70
40
60
10
90
60
ENDCHAR
STARTCHAR U+01BE
ENCODING 446
SWIDTH 714 0
DWIDTH 5 0
BBX 4 7 0 0
BITMAP
40
E0
40
60
10
90
60
ENDCHAR
STARTCHAR U+01BF
ENCODING 447
SWIDTH 714 0
DWIDTH 5 0
BBX 4 8 0 -3
BITMAP
A0
D0
90
90
A0
C0
80
80
ENDCHAR
STARTCHAR U+01C0
ENCODING 448
SWIDTH 714 0
DWIDTH 5 0
BBX 1 8 2 0
BITMAP
80
80
80
80
80
80
80
80
ENDCHAR
STARTCHAR U+01C1
ENCODING 449
SWIDTH 714 0
DWIDTH 5 0
BBX 3 8 1 0
BITMAP
A0
A0
A0
A0
A0
A0
A0
A0
ENDCHAR
STARTCHAR U+01C2
ENCODING 450
SWIDTH 714 0
DWIDTH 5 0
BBX 5 8 0 0
BITMAP
20
20
20
F8
20
F8
20
20
ENDCHAR
STARTCHAR U+01C3
ENCODING 451
SWIDTH 714 0
DWIDTH 5 0
BBX 1 8 2 0
BITMAP
80
80
80
80
80
80
00
80
ENDCHAR
STARTCHAR U+01C4
ENCODING 452
SWIDTH 714 0
DWIDTH 5 0
BBX 6 10 -1 0
BITMAP
14
08
C0
BC
A4
A8
A8
B0
B4
DC
ENDCHAR
STARTCHAR U+01C5
ENCODING 453
SWIDTH 714 0
DWIDTH 5 0
BBX 6 8 -1 0
BITMAP
14
C8
A0
BC
A4
A8
B0
DC
ENDCHAR
STARTCHAR U+01C6
ENCODING 454
SWIDTH 714 0
DWIDTH 5 0
BBX 6 8 -1 0
BITMAP
54
48
20
7C
A4
A8
B0
5C
ENDCHAR
STARTCHAR U+01C7
ENCODING 455
SWIDTH 714 0
DWIDTH 5 0
BBX 4 10 0 -2
BITMAP
90
B0
90
90
90
90
90
D0
10
60
ENDCHAR
STARTCHAR U+01C8
ENCODING 456
SWIDTH 714 0
DWIDTH 5 0
BBX 4 11 0 -3
BITMAP
80
90
80
90
B0
90
90
D0
10
50
20
ENDCHAR
STARTCHAR U+01C9
ENCODING 457
SWIDTH 714 0
DWIDTH 5 0
BBX 4 11 0 -3
BITMAP
80
90
80
90
B0
90
90
50
10
50
20
ENDCHAR
STARTCHAR U+01CA
ENCODING 458
SWIDTH 714 0
DWIDTH 5 0
BBX 5 10 0 -2
BITMAP
C8
A8
A8
A8
A8
A8
A8
A8
08
30
ENDCHAR
STARTCHAR U+01CB
ENCODING 459
SWIDTH 714 0
DWIDTH 5 0
BBX 5 11 0 -3
BITMAP
C0
A8
A0
A8
A8
A8
A8
A8
08
28
10
ENDCHAR
STARTCHAR U+01CC
ENCODING 460
SWIDTH 714 0
DWIDTH 5 0
BBX 5 9 0 -2
BITMAP
08
00
C8
A8
A8
A8
A8
08
10
ENDCHAR
STARTCHAR U+01CD
ENCODING 461
SWIDTH 714 0
DWIDTH 5 0
BBX 4 10 0 0
BITMAP
50
20
00
60
90
B0
D0
90
90
90
ENDCHAR
STARTCHAR U+01CE
ENCODING 462
SWIDTH 714 0
DWIDTH 5 0
BBX 4 8 0 0
BITMAP
50
20
00
60
10
70
90
50
ENDCHAR
STARTCHAR U+01CF
ENCODING 463
SWIDTH 714 0
DWIDTH 5 0
BBX 4 10 0 0
BITMAP
50
20
00
30
C0
20
20
20
30
C0
ENDCHAR
STARTCHAR U+01D0
ENCODING 464
SWIDTH 714 0
DWIDTH 5 0
BBX 4 8 0 0
BITMAP
A0
40
00
40
C0
40
50
20
ENDCHAR
STARTCHAR U+01D1
ENCODING 465
SWIDTH 714 0
DWIDTH 5 0
BBX 4 10 0 0
BITMAP
50
20
00
60
90
90
90
90
90
60
ENDCHAR
STARTCHAR U+01D2
ENCODING 466
SWIDTH 714 0
DWIDTH 5 0
BBX 4 8 0 0
BITMAP
50
20
00
60
90
90
90
60
ENDCHAR
STARTCHAR U+01D3
ENCODING 467
SWIDTH 714 0
DWIDTH 5 0
BBX 4 10 0 0
BITMAP
50
20
00
90
90
90
90
90
90
60
ENDCHAR
STARTCHAR U+01D4
ENCODING 468
SWIDTH 714 0
DWIDTH 5 0
BBX 4 8 0 0
BITMAP
50
20
00
90
90
90
B0
50
ENDCHAR
STARTCHAR U+01D5
ENCODING 469
SWIDTH 714 0
DWIDTH 5 0
BBX 4 10 0 0
BITMAP
F0
00
90
00
90
90
90
90
90
60
ENDCHAR
STARTCHAR U+01D6
ENCODING 470
SWIDTH 714 0
DWIDTH 5 0
BBX 4 9 0 0
BITMAP
F0
00
90
00
90
90
90
B0
50
ENDCHAR
STARTCHAR U+01D7
ENCODING 471
SWIDTH 714 0
DWIDTH 5 0
BBX 4 10 0 0
BITMAP
20
40
10
80
10
90
90
90
90
60
ENDCHAR
STARTCHAR U+01D8
ENCODING 472
SWIDTH 714 0
DWIDTH 5 0
BBX 4 9 0 0
BITMAP
20
40
00
90
00
90
90
B0
50
ENDCHAR
STARTCHAR U+01D9
ENCODING 473
SWIDTH 714 0
DWIDTH 5 0
BBX 4 10 0 0
BITMAP
50
20
80
10
80
90
90
90
90
60
ENDCHAR
STARTCHAR U+01DA
ENCODING 474
SWIDTH 714 0
DWIDTH 5 0
BBX 4 9 0 0
BITMAP
50
20
00
90
00
90
90
B0
50
ENDCHAR
STARTCHAR U+01DB
ENCODING 475
SWIDTH 714 0
DWIDTH 5 0
BBX 4 10 0 0
BITMAP
40
20
80
10
80
90
90
90
90
60
ENDCHAR
STARTCHAR U+01DC
ENCODING 476
SWIDTH 714 0
DWIDTH 5 0
BBX 4 9 0 0
BITMAP
40
20
00
90
00
90
90
B0
50
ENDCHAR
STARTCHAR U+01DD
ENCODING 477
SWIDTH 714 0
DWIDTH 5 0
BBX 4 5 0 0
BITMAP
E0
10
F0
90
60
ENDCHAR
STARTCHAR U+01DE
ENCODING 478
SWIDTH 714 0
DWIDTH 5 0
BBX 4 10 0 0
BITMAP
F0
00
90
00
60
90
B0
D0
90
90
ENDCHAR
STARTCHAR U+01DF
ENCODING 479
SWIDTH 714 0
DWIDTH 5 0
BBX 4 9 0 0
BITMAP
F0
00
90
00
60
10
70
90
50
ENDCHAR
STARTCHAR U+01E0
ENCODING 480
SWIDTH 714 0
DWIDTH 5 0
BBX 4 10 0 0
BITMAP
70
00
20
00
60
90
B0
D0
90
90
ENDCHAR
STARTCHAR U+01E1
ENCODING 481
SWIDTH 714 0
DWIDTH 5 0
BBX 4 9 0 0
BITMAP
70
00
20
00
60
10
70
90
50
ENDCHAR
STARTCHAR U+01E2
ENCODING 482
SWIDTH 714 0
DWIDTH 5 0
BBX 4 10 0 0
BITMAP
70
00
70
A0
A0
F0
A0
A0
A0
B0
ENDCHAR
STARTCHAR U+01E3
ENCODING 483
SWIDTH 714 0
DWIDTH 5 0
BBX 6 7 -1 0
BITMAP
70
00
50
28
70
A4
58
ENDCHAR
STARTCHAR U+01E4
ENCODING 484
SWIDTH 714 0
DWIDTH 5 0
BBX 5 8 0 0
BITMAP
70
90
80
B0
98
B0
90
60
ENDCHAR
STARTCHAR U+01E5
ENCODING 485
SWIDTH 714 0
DWIDTH 5 0
BBX 4 8 0 -3
BITMAP
60
90
90
70
10
70
10
60
ENDCHAR
STARTCHAR U+01E6
ENCODING 486
SWIDTH 714 0
DWIDTH 5 0
BBX 4 10 0 0
BITMAP
50
20
00
70
80
B0
90
90
A0
40
ENDCHAR
STARTCHAR U+01E7
ENCODING 487
SWIDTH 714 0
DWIDTH 5 0
BBX 4 11 0 -3
BITMAP
50
20
00
60
90
90
B0
50
10
A0
C0
ENDCHAR
STARTCHAR U+01E8
ENCODING 488
SWIDTH 714 0
DWIDTH 5 0
BBX 4 10 0 0
BITMAP
A0
40
10
A0
A0
C0
A0
A0
A0
90
ENDCHAR
STARTCHAR U+01E9
ENCODING 489
SWIDTH 714 0
DWIDTH 5 0
BBX 4 10 0 0
BITMAP
A0
40
00
80
80
A0
C0
A0
A0
90
ENDCHAR
STARTCHAR U+01EA
ENCODING 490
SWIDTH 714 0
DWIDTH 5 0
BBX 4 10 0 -2
BITMAP
60
90
90
90
90
90
90
60
40
60
ENDCHAR
STARTCHAR U+01EB
ENCODING 491
SWIDTH 714 0
DWIDTH 5 0
BBX 4 7 0 -2
BITMAP
60
90
90
90
60
40
60
ENDCHAR
STARTCHAR U+01EC
ENCODING 492
SWIDTH 714 0
DWIDTH 5 0
BBX 4 11 0 -2
BITMAP
F0
00
60
90
90
90
90
90
60
40
60
ENDCHAR
STARTCHAR U+01ED
ENCODING 493
SWIDTH 714 0
DWIDTH 5 0
BBX 4 9 0 -2
BITMAP
F0
00
60
90
90
90
60
40
60
ENDCHAR
STARTCHAR U+01EE
ENCODING 494
SWIDTH 714 0
DWIDTH 5 0
BBX 4 11 0 -1
BITMAP
50
20
00
F0
20
60
10
10
10
90
60
ENDCHAR
STARTCHAR U+01EF
ENCODING 495
SWIDTH 714 0
DWIDTH 5 0
BBX 4 10 0 -2
BITMAP
50
20
00
70
10
20
10
10
90
60
ENDCHAR
STARTCHAR U+01F0
ENCODING 496
SWIDTH 714 0
DWIDTH 5 0
BBX 4 11 0 -3
BITMAP
50
20
00
20
60
20
20
20
20
A0
40
ENDCHAR
STARTCHAR U+01F1
ENCODING 497
SWIDTH 714 0
DWIDTH 5 0
BBX 6 8 -1 0
BITMAP
DC
B4
A4
A8
A8
B0
B4
DC
ENDCHAR
STARTCHAR U+01F2
ENCODING 498
SWIDTH 714 0
DWIDTH 5 0
BBX 6 8 -1 0
BITMAP
C0
A0
A0
BC
A4
A8
B0
DC
ENDCHAR
STARTCHAR U+01F3
ENCODING 499
SWIDTH 714 0
DWIDTH 5 0
BBX 6 8 -1 0
BITMAP
20
20
20
7C
A4
A8
B0
5C
ENDCHAR
STARTCHAR U+01F4
ENCODING 500
SWIDTH 714 0
DWIDTH 5 0
BBX 4 10 0 0
BITMAP
20
40
00
70
80
B0
90
90
A0
40
ENDCHAR
STARTCHAR U+01F5
ENCODING 501
SWIDTH 714 0
DWIDTH 5 0
BBX 4 11 0 -3
BITMAP
20
40
00
60
90
90
50
30
10
A0
C0
ENDCHAR
STARTCHAR U+01F6
ENCODING 502
SWIDTH 714 0
DWIDTH 5 0
BBX 5 8 0 0
BITMAP
20
A0
A0
E8
A8
A8
A8
90
ENDCHAR
STARTCHAR U+01F7
ENCODING 503
SWIDTH 714 0
DWIDTH 5 0
BBX 4 11 0 -3
BITMAP
A0
D0
90
90
90
90
A0
A0
C0
80
80
ENDCHAR
STARTCHAR U+01F8
ENCODING 504
SWIDTH 714 0
DWIDTH 5 0
BBX 4 10 0 0
BITMAP
40
20
00
90
D0
D0
B0
B0
90
90
ENDCHAR
STARTCHAR U+01F9
ENCODING 505
SWIDTH 714 0
DWIDTH 5 0
BBX 4 8 0 0
BITMAP
40
20
00
A0
D0
90
90
90
ENDCHAR
STARTCHAR U+01FA
ENCODING 506
SWIDTH 714 0
DWIDTH 5 0
BBX 4 10 0 0
BITMAP
10
20
50
20
60
90
B0
D0
90
90
ENDCHAR
STARTCHAR U+01FB
ENCODING 507
SWIDTH 714 0
DWIDTH 5 0
BBX 4 9 0 0
BITMAP
10
20
50
20
60
10
70
90
50
ENDCHAR
STARTCHAR U+01FC
ENCODING 508
SWIDTH 714 0
DWIDTH 5 0
BBX 4 10 0 0
BITMAP
10
20
00
70
A0
F0
A0
A0
A0
B0
ENDCHAR
STARTCHAR U+01FD
ENCODING 509
SWIDTH 714 0
DWIDTH 5 0
BBX 6 8 -1 0
BITMAP
10
20
00
50
28
70
A4
58
ENDCHAR
STARTCHAR U+01FE
ENCODING 510
SWIDTH 714 0
DWIDTH 5 0
BBX 6 10 -1 0
BITMAP
10
20
00
34
48
48
58
68
48
B0
ENDCHAR
STARTCHAR U+01FF
ENCODING 511
SWIDTH 714 0
DWIDTH 5 0
BBX 6 9 -1 0
BITMAP
10
20
00
34
48
58
68
48
B0
ENDCHAR
STARTCHAR U+0200
ENCODING 512
SWIDTH 714 0
DWIDTH 5 0
BBX 4 10 0 0
BITMAP
A0
50
00
60
90
B0
D0
90
90
90
ENDCHAR
STARTCHAR U+0201
ENCODING 513
SWIDTH 714 0
DWIDTH 5 0
BBX 4 8 0 0
BITMAP
A0
50
00
60
10
70
90
50
ENDCHAR
STARTCHAR U+0202
ENCODING 514
SWIDTH 714 0
DWIDTH 5 0
BBX 4 10 0 0
BITMAP
60
90
00
60
90
B0
D0
90
90
90
ENDCHAR
STARTCHAR U+0203
ENCODING 515
SWIDTH 714 0
DWIDTH 5 0
BBX 4 8 0 0
BITMAP
60
90
00
60
10
70
90
50
ENDCHAR
STARTCHAR U+0204
ENCODING 516
SWIDTH 714 0
DWIDTH 5 0
BBX 4 10 0 0
BITMAP
A0
50
00
60
80
40
80
80
90
60
ENDCHAR
STARTCHAR U+0205
ENCODING 517
SWIDTH 714 0
DWIDTH 5 0
BBX 4 8 0 0
BITMAP
A0
50
00
60
A0
C0
90
60
ENDCHAR
STARTCHAR U+0206
ENCODING 518
SWIDTH 714 0
DWIDTH 5 0
BBX 4 10 0 0
BITMAP
60
90
00
60
80
40
80
80
90
60
ENDCHAR
STARTCHAR U+0207
ENCODING 519
SWIDTH 714 0
DWIDTH 5 0
BBX 4 8 0 0
BITMAP
60
90
00
60
A0
C0
90
60
ENDCHAR
STARTCHAR U+0208
ENCODING 520
SWIDTH 714 0
DWIDTH 5 0
BBX 4 10 0 0
BITMAP
A0
50
00
30
C0
20
20
20
30
C0
ENDCHAR
STARTCHAR U+0209
ENCODING 521
SWIDTH 714 0
DWIDTH 5 0
BBX 4 8 0 0
BITMAP
A0
50
00
40
C0
40
50
20
ENDCHAR
STARTCHAR U+020A
ENCODING 522
SWIDTH 714 0
DWIDTH 5 0
BBX 4 10 0 0
BITMAP
60
90
00
30
C0
20
20
20
30
C0
ENDCHAR
STARTCHAR U+020B
ENCODING 523
SWIDTH 714 0
DWIDTH 5 0
BBX 4 8 0 0
BITMAP
60
90
00
40
C0
40
50
20
ENDCHAR
STARTCHAR U+020C
ENCODING 524
SWIDTH 714 0
DWIDTH 5 0
BBX 4 10 0 0
BITMAP
A0
50
00
60
90
90
90
90
90
60
ENDCHAR
STARTCHAR U+020D
ENCODING 525
SWIDTH 714 0
DWIDTH 5 0
BBX 4 8 0 0
BITMAP
A0
50
00
60
90
90
90
60
ENDCHAR
STARTCHAR U+020E
ENCODING 526
SWIDTH 714 0
DWIDTH 5 0
BBX 4 10 0 0
BITMAP
60
90
00
60
90
90
90
90
90
60
ENDCHAR
STARTCHAR U+020F
ENCODING 527
SWIDTH 714 0
DWIDTH 5 0
BBX 4 8 0 0
BITMAP
60
90
00
60
90
90
90
60
ENDCHAR
STARTCHAR U+0210
ENCODING 528
SWIDTH 714 0
DWIDTH 5 0
BBX 4 10 0 0
BITMAP
A0
50
00
60
90
A0
C0
A0
A0
90
ENDCHAR
STARTCHAR U+0211
ENCODING 529
SWIDTH 714 0
DWIDTH 5 0
BBX 4 8 0 0
BITMAP
A0
50
00
B0
D0
80
80
80
ENDCHAR
STARTCHAR U+0212
ENCODING 530
SWIDTH 714 0
DWIDTH 5 0
BBX 4 10 0 0
BITMAP
60
90
00
60
90
A0
C0
A0
A0
90
ENDCHAR
STARTCHAR U+0213
ENCODING 531
SWIDTH 714 0
DWIDTH 5 0
BBX 4 8 0 0
BITMAP
60
90
00
B0
D0
80
80
80
ENDCHAR
STARTCHAR U+0214
ENCODING 532
SWIDTH 714 0
DWIDTH 5 0
BBX 4 9 0 0
BITMAP
A0
50
00
90
90
90
90
90
60
ENDCHAR
STARTCHAR U+0215
ENCODING 533
SWIDTH 714 0
DWIDTH 5 0
BBX 4 8 0 0
BITMAP
A0
50
00
90
90
90
B0
50
ENDCHAR
STARTCHAR U+0216
ENCODING 534
SWIDTH 714 0
DWIDTH 5 0
BBX 4 9 0 0
BITMAP
60
90
00
90
90
90
90
90
60
ENDCHAR
STARTCHAR U+0217
ENCODING 535
SWIDTH 714 0
DWIDTH 5 0
BBX 4 8 0 0
BITMAP
60
90
00
90
90
90
B0
50
ENDCHAR
STARTCHAR U+0218
ENCODING 536
SWIDTH 714 0
DWIDTH 5 0
BBX 4 10 0 -2
BITMAP
70
90
80
60
10
10
90
E0
20
40
ENDCHAR
STARTCHAR U+0219
ENCODING 537
SWIDTH 714 0
DWIDTH 5 0
BBX 4 7 0 -2
BITMAP
60
80
60
10
E0
20
40
ENDCHAR
STARTCHAR U+021A
ENCODING 538
SWIDTH 714 0
DWIDTH 5 0
BBX 5 10 0 -2
BITMAP
18
E0
20
20
20
20
20
20
20
40
ENDCHAR
STARTCHAR U+021B
ENCODING 539
SWIDTH 714 0
DWIDTH 5 0
BBX 4 9 0 -2
BITMAP
40
40
E0
40
40
50
20
20
40
ENDCHAR
STARTCHAR U+021C
ENCODING 540
SWIDTH 714 0
DWIDTH 5 0
BBX 4 10 0 -2
BITMAP
60
90
10
20
50
10
10
10
20
C0
ENDCHAR
STARTCHAR U+021D
ENCODING 541
SWIDTH 714 0
DWIDTH 5 0
BBX 4 8 0 -3
BITMAP
60
90
20
50
10
10
20
C0
ENDCHAR
STARTCHAR U+021E
ENCODING 542
SWIDTH 714 0
DWIDTH 5 0
BBX 4 10 0 0
BITMAP
50
20
00
90
90
B0
D0
90
90
90
ENDCHAR
STARTCHAR U+021F
ENCODING 543
SWIDTH 714 0
DWIDTH 5 0
BBX 4 10 0 0
BITMAP
50
20
00
80
80
A0
D0
90
90
90
ENDCHAR
STARTCHAR U+0220
ENCODING 544
SWIDTH 714 0
DWIDTH 5 0
BBX 4 11 0 -3
BITMAP
A0
D0
90
90
90
90
90
90
10
10
20
ENDCHAR
STARTCHAR U+0221
ENCODING 545
SWIDTH 714 0
DWIDTH 5 0
BBX 5 11 0 -3
BITMAP
10
10
10
50
B0
90
90
70
10
28
50
ENDCHAR
STARTCHAR U+0222
ENCODING 546
SWIDTH 714 0
DWIDTH 5 0
BBX 4 8 0 0
BITMAP
20
90
90
60
90
90
90
60
ENDCHAR
STARTCHAR U+0223
ENCODING 547
SWIDTH 714 0
DWIDTH 5 0
BBX 4 6 0 0
BITMAP
20
90
60
90
90
60
ENDCHAR
STARTCHAR U+0224
ENCODING 548
SWIDTH 714 0
DWIDTH 5 0
BBX 4 10 0 -2
BITMAP
F0
90
20
20
40
40
80
F0
10
20
ENDCHAR
STARTCHAR U+0225
ENCODING 549
SWIDTH 714 0
DWIDTH 5 0
BBX 4 7 0 -2
BITMAP
F0
20
40
80
F0
10
20
ENDCHAR
STARTCHAR U+0226
ENCODING 550
SWIDTH 714 0
DWIDTH 5 0
BBX 4 9 0 0
BITMAP
20
00
60
90
B0
D0
90
90
90
ENDCHAR
STARTCHAR U+0227
ENCODING 551
SWIDTH 714 0
DWIDTH 5 0
BBX 4 7 0 0
BITMAP
20
00
60
10
70
90
50
ENDCHAR
STARTCHAR U+0228
ENCODING 552
SWIDTH 714 0
DWIDTH 5 0
BBX 4 10 0 -2
BITMAP
60
A0
80
40
80
80
90
60
20
60
ENDCHAR
STARTCHAR U+0229
ENCODING 553
SWIDTH 714 0
DWIDTH 5 0
BBX 4 7 0 -2
BITMAP
60
A0
C0
90
60
20
60
ENDCHAR
STARTCHAR U+022A
ENCODING 554
SWIDTH 714 0
DWIDTH 5 0
BBX 4 10 0 0
BITMAP
F0
00
90
00
60
90
90
90
90
60
ENDCHAR
STARTCHAR U+022B
ENCODING 555
SWIDTH 714 0
DWIDTH 5 0
BBX 4 9 0 0
BITMAP
F0
00
90
00
60
90
90
90
60
ENDCHAR
STARTCHAR U+022C
ENCODING 556
SWIDTH 714 0
DWIDTH 5 0
BBX 4 10 0 0
BITMAP
F0
00
D0
B0
60
90
90
90
90
60
ENDCHAR
STARTCHAR U+022D
ENCODING 557
SWIDTH 714 0
DWIDTH 5 0
BBX 4 9 0 0
BITMAP
F0
00
D0
B0
00
60
90
90
60
ENDCHAR
STARTCHAR U+022E
ENCODING 558
SWIDTH 714 0
DWIDTH 5 0
BBX 4 9 0 0
BITMAP
20
00
60
90
90
90
90
90
60
ENDCHAR
STARTCHAR U+022F
ENCODING 559
SWIDTH 714 0
DWIDTH 5 0
BBX 4 7 0 0
BITMAP
20
00
60
90
90
90
60
ENDCHAR
STARTCHAR U+0230
ENCODING 560
SWIDTH 714 0
DWIDTH 5 0
BBX 4 10 0 0
BITMAP
F0
00
20
00
60
90
90
90
90
60
ENDCHAR
STARTCHAR U+0231
ENCODING 561
SWIDTH 714 0
DWIDTH 5 0
BBX 4 9 0 0
BITMAP
F0
00
20
00
60
90
90
90
60
ENDCHAR
STARTCHAR U+0232
ENCODING 562
SWIDTH 714 0
DWIDTH 5 0
BBX 4 9 0 0
BITMAP
F0
00
90
50
50
30
10
A0
C0
ENDCHAR
STARTCHAR U+0233
ENCODING 563
SWIDTH 714 0
DWIDTH 5 0
BBX 4 10 0 -3
BITMAP
F0
00
90
90
90
B0
50
10
A0
C0
ENDCHAR
STARTCHAR U+0234
ENCODING 564
SWIDTH 714 0
DWIDTH 5 0
BBX 4 11 0 -3
BITMAP
40
C0
40
40
40
40
40
40
60
50
A0
ENDCHAR
STARTCHAR U+0235
ENCODING 565
SWIDTH 714 0
DWIDTH 5 0
BBX 5 8 0 -3
BITMAP
A0
D0
90
90
90
10
28
50
ENDCHAR
STARTCHAR U+0236
ENCODING 566
SWIDTH 714 0
DWIDTH 5 0
BBX 4 8 0 -1
BITMAP
40
40
E0
40
40
60
50
A0
ENDCHAR
STARTCHAR U+0237
ENCODING 567
SWIDTH 714 0
DWIDTH 5 0
BBX 3 8 0 -3
BITMAP
20
60
20
20
20
20
A0
40
ENDCHAR
STARTCHAR U+0238
ENCODING 568
SWIDTH 714 0
DWIDTH 5 0
BBX 5 8 0 0
BITMAP
20
20
20
70
A8
A8
A8
70
ENDCHAR
STARTCHAR U+0239
ENCODING 569
SWIDTH 714 0
DWIDTH 5 0
BBX 5 8 0 -3
BITMAP
70
A8
A8
A8
70
20
20
20
ENDCHAR
STARTCHAR U+023A
ENCODING 570
SWIDTH 714 0
DWIDTH 5 0
BBX 6 8 -1 0
BITMAP
34
48
58
68
48
C8
48
48
ENDCHAR
STARTCHAR U+023B
ENCODING 571
SWIDTH 714 0
DWIDTH 5 0
BBX 6 8 -1 0
BITMAP
34
48
50
60
40
C0
48
30
ENDCHAR
STARTCHAR U+023C
ENCODING 572
SWIDTH 714 0
DWIDTH 5 0
BBX 6 6 -1 0
BITMAP
04
38
50
40
48
B0
ENDCHAR
STARTCHAR U+023D
ENCODING 573
SWIDTH 714 0
DWIDTH 5 0
BBX 4 8 0 0
BITMAP
80
80
80
E0
80
80
90
70
ENDCHAR
STARTCHAR U+023E
ENCODING 574
SWIDTH 714 0
DWIDTH 5 0
BBX 5 8 0 0
BITMAP
18
E0
28
30
20
60
A0
20
ENDCHAR
STARTCHAR U+023F
ENCODING 575
SWIDTH 714 0
DWIDTH 5 0
BBX 4 7 0 -2
BITMAP
60
80
60
10
E0
40
30
ENDCHAR
STARTCHAR U+0240
ENCODING 576
SWIDTH 714 0
DWIDTH 5 0
BBX 4 6 0 -1
BITMAP
F0
20
40
80
C0
30
ENDCHAR
STARTCHAR U+0241
ENCODING 577
SWIDTH 714 0
DWIDTH 5 0
BBX 4 8 0 0
BITMAP
E0
90
10
60
40
40
40
E0
ENDCHAR
STARTCHAR U+0242
ENCODING 578
SWIDTH 714 0
DWIDTH 5 0
BBX 4 6 0 0
BITMAP
60
90
10
60
40
E0
ENDCHAR
STARTCHAR U+0243
ENCODING 579
SWIDTH 714 0
DWIDTH 5 0
BBX 5 8 -1 0
BITMAP
20
50
50
68
48
E8
48
70
ENDCHAR
STARTCHAR U+0244
ENCODING 580
SWIDTH 714 0
DWIDTH 5 0
BBX 4 8 0 0
BITMAP
10
90
90
90
F0
90
90
60
ENDCHAR
STARTCHAR U+0245
ENCODING 581
SWIDTH 714 0
DWIDTH 5 0
BBX 4 8 0 0
BITMAP
40
40
A0
A0
90
90
90
90
ENDCHAR
STARTCHAR U+0246
ENCODING 582
SWIDTH 714 0
DWIDTH 5 0
BBX 6 8 -1 0
BITMAP
34
48
50
30
40
C0
48
30
ENDCHAR
STARTCHAR U+0247
ENCODING 583
SWIDTH 714 0
DWIDTH 5 0
BBX 6 6 -1 0
BITMAP
04
38
50
60
48
B0
ENDCHAR
STARTCHAR U+0248
ENCODING 584
SWIDTH 714 0
DWIDTH 5 0
BBX 4 8 0 0
BITMAP
30
C0
20
20
F0
20
A0
40
ENDCHAR
STARTCHAR U+0249
ENCODING 585
SWIDTH 714 0
DWIDTH 5 0
BBX 4 10 0 -3
BITMAP
20
00
20
60
20
20
70
20
A0
40
ENDCHAR
STARTCHAR U+024A
ENCODING 586
SWIDTH 714 0
DWIDTH 5 0
BBX 5 11 0 -3
BITMAP
60
90
90
90
90
90
90
70
10
10
08
ENDCHAR
STARTCHAR U+024B
ENCODING 587
SWIDTH 714 0
DWIDTH 5 0
BBX 5 8 0 -3
BITMAP
60
90
90
B0
50
10
10
08
ENDCHAR
STARTCHAR U+024C
ENCODING 588
SWIDTH 714 0
DWIDTH 5 0
BBX 5 8 -1 0
BITMAP
30
48
48
50
E0
50
50
48
ENDCHAR
STARTCHAR U+024D
ENCODING 589
SWIDTH 714 0
DWIDTH 5 0
BBX 5 5 -1 0
BITMAP
58
68
40
E0
40
ENDCHAR
STARTCHAR U+024E
ENCODING 590
SWIDTH 714 0
DWIDTH 5 0
BBX 4 8 0 0
BITMAP
90
F0
90
50
30
10
A0
C0
ENDCHAR
STARTCHAR U+024F
ENCODING 591
SWIDTH 714 0
DWIDTH 5 0
BBX 4 8 0 -3
BITMAP
90
F0
90
50
30
10
A0
C0
ENDCHAR
STARTCHAR U+0250
ENCODING 592
SWIDTH 714 0
DWIDTH 5 0
BBX 4 5 0 0
BITMAP
A0
90
E0
80
60
ENDCHAR
STARTCHAR U+0251
ENCODING 593
SWIDTH 714 0
DWIDTH 5 0
BBX 4 5 0 0
BITMAP
50
A0
A0
A0
50
ENDCHAR
STARTCHAR U+0252
ENCODING 594
SWIDTH 714 0
DWIDTH 5 0
BBX 4 5 0 0
BITMAP
A0
50
50
50
A0
ENDCHAR
STARTCHAR U+0253
ENCODING 595
SWIDTH 714 0
DWIDTH 5 0
BBX 4 8 0 0
BITMAP
40
80
80
A0
D0
90
90
E0
ENDCHAR
STARTCHAR U+0254
ENCODING 596
SWIDTH 714 0
DWIDTH 5 0
BBX 4 5 0 0
BITMAP
60
90
10
90
60
ENDCHAR
STARTCHAR U+0255
ENCODING 597
SWIDTH 714 0
DWIDTH 5 0
BBX 5 7 0 -2
BITMAP
60
80
90
A8
70
20
40
ENDCHAR
STARTCHAR U+0256
ENCODING 598
SWIDTH 714 0
DWIDTH 5 0
BBX 5 11 0 -3
BITMAP
10
10
10
50
B0
90
90
70
10
10
08
ENDCHAR
STARTCHAR U+0257
ENCODING 599
SWIDTH 714 0
DWIDTH 5 0
BBX 5 8 0 0
BITMAP
08
10
10
50
B0
90
90
70
ENDCHAR
STARTCHAR U+0258
ENCODING 600
SWIDTH 714 0
DWIDTH 5 0
BBX 4 5 0 0
BITMAP
60
50
30
90
60
ENDCHAR
STARTCHAR U+0259
ENCODING 601
SWIDTH 714 0
DWIDTH 5 0
BBX 4 5 0 0
BITMAP
E0
10
F0
90
60
ENDCHAR
STARTCHAR U+025A
ENCODING 602
SWIDTH 714 0
DWIDTH 5 0
BBX 5 5 0 0
BITMAP
E0
10
F8
90
60
ENDCHAR
STARTCHAR U+025B
ENCODING 603
SWIDTH 714 0
DWIDTH 5 0
BBX 4 5 0 0
BITMAP
60
80
40
90
60
ENDCHAR
STARTCHAR U+025C
ENCODING 604
SWIDTH 714 0
DWIDTH 5 0
BBX 4 5 0 0
BITMAP
60
10
20
90
60
ENDCHAR
STARTCHAR U+025D
ENCODING 605
SWIDTH 714 0
DWIDTH 5 0
BBX 5 5 0 0
BITMAP
60
18
20
90
60
ENDCHAR
STARTCHAR U+025E
ENCODING 606
SWIDTH 714 0
DWIDTH 5 0
BBX 4 5 0 0
BITMAP
60
90
A0
90
60
ENDCHAR
STARTCHAR U+025F
ENCODING 607
SWIDTH 714 0
DWIDTH 5 0
BBX 4 21 0 -3
BITMAP
20
00
00
00
00
00
00
00
00
00
00
00
00
20
60
20
20
70
20
A0
40
ENDCHAR
STARTCHAR U+0260
ENCODING 608
SWIDTH 714 0
DWIDTH 5 0
BBX 5 11 0 -3
BITMAP
08
10
10
70
90
90
B0
50
10
A0
C0
ENDCHAR
STARTCHAR U+0261
ENCODING 609
SWIDTH 714 0
DWIDTH 5 0
BBX 4 8 0 -3
BITMAP
60
90
90
B0
50
10
A0
C0
ENDCHAR
STARTCHAR U+0262
ENCODING 610
SWIDTH 714 0
DWIDTH 5 0
BBX 4 5 0 0
BITMAP
60
80
B0
90
60
ENDCHAR
STARTCHAR U+0263
ENCODING 611
SWIDTH 714 0
DWIDTH 5 0
BBX 5 7 0 -2
BITMAP
88
50
50
20
20
50
20
ENDCHAR
STARTCHAR U+0264
ENCODING 612
SWIDTH 714 0
DWIDTH 5 0
BBX 5 6 0 -1
BITMAP
D8
50
20
20
50
20
ENDCHAR
STARTCHAR U+0265
ENCODING 613
SWIDTH 714 0
DWIDTH 5 0
BBX 4 8 0 -3
BITMAP
90
90
90
B0
50
10
10
10
ENDCHAR
STARTCHAR U+0266
ENCODING 614
SWIDTH 714 0
DWIDTH 5 0
BBX 4 8 0 0
BITMAP
40
80
80
A0
D0
90
90
90
ENDCHAR
STARTCHAR U+0267
ENCODING 615
SWIDTH 714 0
DWIDTH 5 0
BBX 4 11 0 -3
BITMAP
40
80
80
A0
D0
90
90
90
10
10
20
ENDCHAR
STARTCHAR U+0268
ENCODING 616
SWIDTH 714 0
DWIDTH 5 0
BBX 4 7 0 0
BITMAP
40
00
40
E0
40
50
20
ENDCHAR
STARTCHAR U+0269
ENCODING 617
SWIDTH 714 0
DWIDTH 5 0
BBX 4 5 0 0
BITMAP
40
C0
40
50
20
ENDCHAR
STARTCHAR U+026A
ENCODING 618
SWIDTH 714 0
DWIDTH 5 0
BBX 3 5 0 0
BITMAP
E0
40
40
40
E0
ENDCHAR
STARTCHAR U+026B
ENCODING 619
SWIDTH 714 0
DWIDTH 5 0
BBX 4 8 0 0
BITMAP
40
40
40
D0
60
40
40
20
ENDCHAR
STARTCHAR U+026C
ENCODING 620
SWIDTH 0 0
DWIDTH 0 0
BBX 5 8 -1 0
BITMAP
20
20
60
A8
70
20
20
10
ENDCHAR
STARTCHAR U+026D
ENCODING 621
SWIDTH 714 0
DWIDTH 5 0
BBX 4 11 0 -3
BITMAP
40
C0
40
40
40
40
40
40
40
50
20
ENDCHAR
STARTCHAR U+026E
ENCODING 622
SWIDTH 714 0
DWIDTH 5 0
BBX 4 11 0 -3
BITMAP
80
80
80
F0
90
A0
90
50
10
90
60
ENDCHAR
STARTCHAR U+026F
ENCODING 623
SWIDTH 714 0
DWIDTH 5 0
BBX 4 5 0 0
BITMAP
90
90
B0
F0
90
ENDCHAR
STARTCHAR U+0270
ENCODING 624
SWIDTH 714 0
DWIDTH 5 0
BBX 4 8 0 -3
BITMAP
90
90
B0
F0
90
10
10
10
ENDCHAR
STARTCHAR U+0271
ENCODING 625
SWIDTH 714 0
DWIDTH 5 0
BBX 4 8 0 -3
BITMAP
90
F0
D0
90
90
10
10
20
ENDCHAR
STARTCHAR U+0272
ENCODING 626
SWIDTH 714 0
DWIDTH 5 0
BBX 5 8 -1 -3
BITMAP
50
68
48
48
48
40
40
80
ENDCHAR
STARTCHAR U+0273
ENCODING 627
SWIDTH 714 0
DWIDTH 5 0
BBX 5 8 0 -3
BITMAP
A0
D0
90
90
90
10
10
08
ENDCHAR
STARTCHAR U+0274
ENCODING 628
SWIDTH 714 0
DWIDTH 5 0
BBX 4 5 0 0
BITMAP
10
90
D0
B0
90
ENDCHAR
STARTCHAR U+0275
ENCODING 629
SWIDTH 714 0
DWIDTH 5 0
BBX 4 5 0 0
BITMAP
60
90
F0
90
60
ENDCHAR
STARTCHAR U+0276
ENCODING 630
SWIDTH 714 0
DWIDTH 5 0
BBX 4 5 0 0
BITMAP
70
A0
B0
A0
70
ENDCHAR
STARTCHAR U+0277
ENCODING 631
SWIDTH 714 0
DWIDTH 5 0
BBX 5 5 0 0
BITMAP
70
88
A8
A8
50
ENDCHAR
STARTCHAR U+0278
ENCODING 632
SWIDTH 714 0
DWIDTH 5 0
BBX 5 11 0 -3
BITMAP
20
20
20
70
A8
A8
A8
70
20
20
20
ENDCHAR
STARTCHAR U+0279
ENCODING 633
SWIDTH 714 0
DWIDTH 5 0
BBX 4 5 0 0
BITMAP
10
10
10
B0
D0
ENDCHAR
STARTCHAR U+027A
ENCODING 634
SWIDTH 714 0
DWIDTH 5 0
BBX 4 8 0 0
BITMAP
10
10
10
10
10
10
B0
D0
ENDCHAR
STARTCHAR U+027B
ENCODING 635
SWIDTH 714 0
DWIDTH 5 0
BBX 5 8 0 -3
BITMAP
10
10
10
B0
D0
10
10
08
ENDCHAR
STARTCHAR U+027C
ENCODING 636
SWIDTH 714 0
DWIDTH 5 0
BBX 4 8 0 -3
BITMAP
B0
D0
80
80
80
80
80
80
ENDCHAR
STARTCHAR U+027D
ENCODING 637
SWIDTH 714 0
DWIDTH 5 0
BBX 4 8 0 -3
BITMAP
B0
D0
80
80
80
80
A0
40
ENDCHAR
STARTCHAR U+027E
ENCODING 638
SWIDTH 714 0
DWIDTH 5 0
BBX 4 5 0 0
BITMAP
70
90
80
80
80
ENDCHAR
STARTCHAR U+027F
ENCODING 639
SWIDTH 714 0
DWIDTH 5 0
BBX 4 8 0 -3
BITMAP
E0
90
10
10
10
10
10
10
ENDCHAR
STARTCHAR U+0280
ENCODING 640
SWIDTH 714 0
DWIDTH 5 0
BBX 4 5 0 0
BITMAP
60
90
E0
A0
90
ENDCHAR
STARTCHAR U+0281
ENCODING 641
SWIDTH 714 0
DWIDTH 5 0
BBX 4 5 0 0
BITMAP
90
A0
E0
90
60
ENDCHAR
STARTCHAR U+0282
ENCODING 642
SWIDTH 714 0
DWIDTH 5 0
BBX 4 7 0 -2
BITMAP
60
80
60
10
E0
80
40
ENDCHAR
STARTCHAR U+0283
ENCODING 643
SWIDTH 714 0
DWIDTH 5 0
BBX 5 11 0 -3
BITMAP
10
28
20
20
20
20
20
20
20
A0
40
ENDCHAR
STARTCHAR U+0284
ENCODING 644
SWIDTH 714 0
DWIDTH 5 0
BBX 5 11 0 -3
BITMAP
10
28
20
20
20
20
20
70
20
A0
40
ENDCHAR
STARTCHAR U+0285
ENCODING 645
SWIDTH 714 0
DWIDTH 5 0
BBX 5 8 0 -3
BITMAP
40
A0
20
20
20
20
28
10
ENDCHAR
STARTCHAR U+0286
ENCODING 646
SWIDTH 714 0
DWIDTH 5 0
BBX 5 11 0 -3
BITMAP
10
28
20
20
20
20
20
20
60
A0
50
ENDCHAR
STARTCHAR U+0287
ENCODING 647
SWIDTH 714 0
DWIDTH 5 0
BBX 4 7 0 1
BITMAP
40
A0
20
20
70
20
20
ENDCHAR
STARTCHAR U+0288
ENCODING 648
SWIDTH 714 0
DWIDTH 5 0
BBX 4 10 0 -3
BITMAP
40
40
E0
40
40
40
40
40
50
20
ENDCHAR
STARTCHAR U+0289
ENCODING 649
SWIDTH 714 0
DWIDTH 5 0
BBX 4 5 0 0
BITMAP
90
F0
90
B0
50
ENDCHAR
STARTCHAR U+028A
ENCODING 650
SWIDTH 714 0
DWIDTH 5 0
BBX 5 5 0 0
BITMAP
D8
50
88
88
70
ENDCHAR
STARTCHAR U+028B
ENCODING 651
SWIDTH 714 0
DWIDTH 5 0
BBX 4 5 0 0
BITMAP
A0
90
90
A0
40
ENDCHAR
STARTCHAR U+028C
ENCODING 652
SWIDTH 714 0
DWIDTH 5 0
BBX 4 5 0 0
BITMAP
40
40
A0
A0
90
ENDCHAR
STARTCHAR U+028D
ENCODING 653
SWIDTH 714 0
DWIDTH 5 0
BBX 4 5 0 0
BITMAP
90
F0
D0
90
90
ENDCHAR
STARTCHAR U+028E
ENCODING 654
SWIDTH 714 0
DWIDTH 5 0
BBX 4 8 0 0
BITMAP
30
50
80
A0
D0
90
90
90
ENDCHAR
STARTCHAR U+028F
ENCODING 655
SWIDTH 714 0
DWIDTH 5 0
BBX 4 5 0 0
BITMAP
90
50
30
90
E0
ENDCHAR
STARTCHAR U+0290
ENCODING 656
SWIDTH 714 0
DWIDTH 5 0
BBX 5 7 0 -2
BITMAP
F0
20
40
80
F0
10
08
ENDCHAR
STARTCHAR U+0291
ENCODING 657
SWIDTH 714 0
DWIDTH 5 0
BBX 5 7 0 -2
BITMAP
F0
20
40
90
E8
30
40
ENDCHAR
STARTCHAR U+0292
ENCODING 658
SWIDTH 714 0
DWIDTH 5 0
BBX 4 7 0 -2
BITMAP
F0
20
60
10
10
90
60
ENDCHAR
STARTCHAR U+0293
ENCODING 659
SWIDTH 714 0
DWIDTH 5 0
BBX 4 8 0 -3
BITMAP
F0
20
60
10
50
B0
60
10
ENDCHAR
STARTCHAR U+0294
ENCODING 660
SWIDTH 714 0
DWIDTH 5 0
BBX 4 8 0 0
BITMAP
E0
90
10
60
40
40
40
E0
ENDCHAR
STARTCHAR U+0295
ENCODING 661
SWIDTH 714 0
DWIDTH 5 0
BBX 4 8 0 0
BITMAP
70
90
80
60
20
20
20
70
ENDCHAR
STARTCHAR U+0296
ENCODING 662
SWIDTH 714 0
DWIDTH 5 0
BBX 4 8 0 0
BITMAP
E0
40
40
40
60
10
90
E0
ENDCHAR
STARTCHAR U+0297
ENCODING 663
SWIDTH 714 0
DWIDTH 5 0
BBX 4 8 0 -3
BITMAP
60
A0
80
80
80
80
90
60
ENDCHAR
STARTCHAR U+0298
ENCODING 664
SWIDTH 714 0
DWIDTH 5 0
BBX 5 8 0 0
BITMAP
70
88
88
A8
A8
88
88
70
ENDCHAR
STARTCHAR U+0299
ENCODING 665
SWIDTH 714 0
DWIDTH 5 0
BBX 4 5 0 0
BITMAP
60
A0
F0
90
E0
ENDCHAR
STARTCHAR U+029A
ENCODING 666
SWIDTH 714 0
DWIDTH 5 0
BBX 4 5 0 0
BITMAP
60
90
50
90
60
ENDCHAR
STARTCHAR U+029B
ENCODING 667
SWIDTH 714 0
DWIDTH 5 0
BBX 4 6 0 0
BITMAP
10
60
80
B0
90
60
ENDCHAR
STARTCHAR U+029C
ENCODING 668
SWIDTH 714 0
DWIDTH 5 0
BBX 4 5 0 0
BITMAP
10
90
B0
D0
90
ENDCHAR
STARTCHAR U+029D
ENCODING 669
SWIDTH 714 0
DWIDTH 5 0
BBX 4 10 0 -3
BITMAP
20
00
20
60
20
20
20
70
A0
40
ENDCHAR
STARTCHAR U+029E
ENCODING 670
SWIDTH 714 0
DWIDTH 5 0
BBX 4 8 0 -3
BITMAP
90
50
50
30
50
10
10
10
ENDCHAR
STARTCHAR U+029F
ENCODING 671
SWIDTH 714 0
DWIDTH 5 0
BBX 4 5 0 0
BITMAP
80
80
80
90
70
ENDCHAR
STARTCHAR U+02A0
ENCODING 672
SWIDTH 714 0
DWIDTH 5 0
BBX 5 11 0 -3
BITMAP
08
10
10
70
90
90
50
30
10
10
10
ENDCHAR
STARTCHAR U+02A1
ENCODING 673
SWIDTH 714 0
DWIDTH 5 0
BBX 4 8 0 0
BITMAP
E0
90
10
60
40
E0
40
40
ENDCHAR
STARTCHAR U+02A2
ENCODING 674
SWIDTH 714 0
DWIDTH 5 0
BBX 4 8 0 0
BITMAP
70
90
80
60
20
70
20
20
ENDCHAR
STARTCHAR U+02A3
ENCODING 675
SWIDTH 714 0
DWIDTH 5 0
BBX 6 8 -1 0
BITMAP
20
20
20
7C
A4
A8
B0
5C
ENDCHAR
STARTCHAR U+02A4
ENCODING 676
SWIDTH 714 0
DWIDTH 5 0
BBX 6 13 -1 -3
BITMAP
20
20
20
20
20
7C
A4
A8
A4
44
04
24
18
ENDCHAR
STARTCHAR U+02A5
ENCODING 677
SWIDTH 714 0
DWIDTH 5 0
BBX 6 10 -1 -2
BITMAP
20
20
20
7C
A4
A8
B0
5C
0C
10
ENDCHAR
STARTCHAR U+02A6
ENCODING 678
SWIDTH 714 0
DWIDTH 5 0
BBX 4 7 0 0
BITMAP
80
80
C0
90
A0
90
60
ENDCHAR
STARTCHAR U+02A7
ENCODING 679
SWIDTH 714 0
DWIDTH 5 0
BBX 5 11 0 -3
BITMAP
10
A8
A0
E0
A0
A0
A0
60
20
A0
40
ENDCHAR
STARTCHAR U+02A8
ENCODING 680
SWIDTH 714 0
DWIDTH 5 0
BBX 5 8 0 -1
BITMAP
80
C0
98
A8
A0
B0
68
10
ENDCHAR
STARTCHAR U+02A9
ENCODING 681
SWIDTH 714 0
DWIDTH 5 0
BBX 6 11 -1 -3
BITMAP
20
50
40
E8
54
54
54
54
04
04
08
ENDCHAR
STARTCHAR U+02AA
ENCODING 682
SWIDTH 714 0
DWIDTH 5 0
BBX 4 8 0 0
BITMAP
80
80
80
80
90
A0
90
60
ENDCHAR
STARTCHAR U+02AB
ENCODING 683
SWIDTH 714 0
DWIDTH 5 0
BBX 4 8 0 0
BITMAP
80
80
80
80
B0
90
A0
70
ENDCHAR
STARTCHAR U+02AC
ENCODING 684
SWIDTH 714 0
DWIDTH 5 0
BBX 5 8 0 0
BITMAP
88
A8
A8
50
88
A8
A8
50
ENDCHAR
STARTCHAR U+02AD
ENCODING 685
SWIDTH 714 0
DWIDTH 5 0
BBX 4 8 0 0
BITMAP
F0
90
90
00
00
F0
90
90
ENDCHAR
STARTCHAR U+02AE
ENCODING 686
SWIDTH 714 0
DWIDTH 5 0
BBX 5 11 -1 -3
BITMAP
80
40
40
48
48
48
58
28
08
08
08
ENDCHAR
STARTCHAR U+02AF
ENCODING 687
SWIDTH 714 0
DWIDTH 5 0
BBX 6 11 -1 -3
BITMAP
80
40
40
48
48
48
58
28
08
08
04
ENDCHAR
STARTCHAR U+02B0
ENCODING 688
SWIDTH 714 0
DWIDTH 5 0
BBX 3 5 0 4
BITMAP
80
80
C0
A0
A0
ENDCHAR
STARTCHAR U+02B1
ENCODING 689
SWIDTH 714 0
DWIDTH 5 0
BBX 3 5 0 4
BITMAP
40
80
C0
A0
A0
ENDCHAR
STARTCHAR U+02B2
ENCODING 690
SWIDTH 714 0
DWIDTH 5 0
BBX 3 6 0 3
BITMAP
20
00
20
20
A0
40
ENDCHAR
STARTCHAR U+02B3
ENCODING 691
SWIDTH 714 0
DWIDTH 5 0
BBX 3 4 0 4
BITMAP
C0
A0
80
80
ENDCHAR
STARTCHAR U+02B4
ENCODING 692
SWIDTH 714 0
DWIDTH 5 0
BBX 3 4 0 4
BITMAP
20
20
A0
60
ENDCHAR
STARTCHAR U+02B5
ENCODING 693
SWIDTH 714 0
DWIDTH 5 0
BBX 4 5 0 3
BITMAP
20
20
A0
60
10
ENDCHAR
STARTCHAR U+02B6
ENCODING 694
SWIDTH 714 0
DWIDTH 5 0
BBX 3 5 0 4
BITMAP
A0
A0
C0
A0
C0
ENDCHAR
STARTCHAR U+02B7
ENCODING 695
SWIDTH 714 0
DWIDTH 5 0
BBX 4 4 0 4
BITMAP
90
B0
F0
90
ENDCHAR
STARTCHAR U+02B8
ENCODING 696
SWIDTH 714 0
DWIDTH 5 0
BBX 3 5 0 3
BITMAP
A0
A0
60
20
40
ENDCHAR
STARTCHAR U+02B9
ENCODING 697
SWIDTH 714 0
DWIDTH 5 0
BBX 2 3 1 5
BITMAP
40
40
80
ENDCHAR
STARTCHAR U+02BA
ENCODING 698
SWIDTH 714 0
DWIDTH 5 0
BBX 4 3 0 5
BITMAP
50
50
A0
ENDCHAR
STARTCHAR U+02BB
ENCODING 699
SWIDTH 714 0
DWIDTH 5 0
BBX 2 3 1 5
BITMAP
40
80
80
ENDCHAR
STARTCHAR U+02BC
ENCODING 700
SWIDTH 714 0
DWIDTH 5 0
BBX 2 3 0 5
BITMAP
40
40
80
ENDCHAR
STARTCHAR U+02BD
ENCODING 701
SWIDTH 714 0
DWIDTH 5 0
BBX 2 3 1 5
BITMAP
80
80
40
ENDCHAR
STARTCHAR U+02BE
ENCODING 702
SWIDTH 714 0
DWIDTH 5 0
BBX 2 3 1 6
BITMAP
80
40
80
ENDCHAR
STARTCHAR U+02BF
ENCODING 703
SWIDTH 714 0
DWIDTH 5 0
BBX 2 3 1 6
BITMAP
40
80
40
ENDCHAR
STARTCHAR U+02C0
ENCODING 704
SWIDTH 714 0
DWIDTH 5 0
BBX 3 5 1 3
BITMAP
40
A0
20
40
40
ENDCHAR
STARTCHAR U+02C1
ENCODING 705
SWIDTH 714 0
DWIDTH 5 0
BBX 3 5 1 3
BITMAP
40
A0
80
40
40
ENDCHAR
STARTCHAR U+02C2
ENCODING 706
SWIDTH 714 0
DWIDTH 5 0
BBX 5 5 0 1
BITMAP
08
30
C0
30
08
ENDCHAR
STARTCHAR U+02C3
ENCODING 707
SWIDTH 714 0
DWIDTH 5 0
BBX 5 5 0 1
BITMAP
80
60
18
60
80
ENDCHAR
STARTCHAR U+02C4
ENCODING 708
SWIDTH 714 0
DWIDTH 5 0
BBX 5 5 0 1
BITMAP
20
20
50
50
88
ENDCHAR
STARTCHAR U+02C5
ENCODING 709
SWIDTH 714 0
DWIDTH 5 0
BBX 5 5 0 1
BITMAP
88
50
50
20
20
ENDCHAR
STARTCHAR U+02C6
ENCODING 710
SWIDTH 714 0
DWIDTH 5 0
BBX 3 2 1 6
BITMAP
40
A0
ENDCHAR
STARTCHAR U+02C7
ENCODING 711
SWIDTH 714 0
DWIDTH 5 0
BBX 3 2 1 6
BITMAP
A0
40
ENDCHAR
STARTCHAR U+02C8
ENCODING 712
SWIDTH 714 0
DWIDTH 5 0
BBX 1 2 2 6
BITMAP
80
80
ENDCHAR
STARTCHAR U+02C9
ENCODING 713
SWIDTH 714 0
DWIDTH 5 0
BBX 4 1 0 7
BITMAP
F0
ENDCHAR
STARTCHAR U+02CA
ENCODING 714
SWIDTH 714 0
DWIDTH 5 0
BBX 2 2 1 6
BITMAP
40
80
ENDCHAR
STARTCHAR U+02CB
ENCODING 715
SWIDTH 714 0
DWIDTH 5 0
BBX 2 2 1 6
BITMAP
80
40
ENDCHAR
STARTCHAR U+02CC
ENCODING 716
SWIDTH 714 0
DWIDTH 5 0
BBX 1 2 2 -2
BITMAP
80
80
ENDCHAR
STARTCHAR U+02CD
ENCODING 717
SWIDTH 714 0
DWIDTH 5 0
BBX 4 1 0 -2
BITMAP
F0
ENDCHAR
STARTCHAR U+02CE
ENCODING 718
SWIDTH 714 0
DWIDTH 5 0
BBX 2 2 2 -2
BITMAP
80
40
ENDCHAR
STARTCHAR U+02CF
ENCODING 719
SWIDTH 714 0
DWIDTH 5 0
BBX 2 2 1 -2
BITMAP
40
80
ENDCHAR
STARTCHAR U+02D0
ENCODING 720
SWIDTH 714 0
DWIDTH 5 0
BBX 3 5 1 1
BITMAP
E0
40
00
40
E0
ENDCHAR
STARTCHAR U+02D1
ENCODING 721
SWIDTH 714 0
DWIDTH 5 0
BBX 3 2 1 4
BITMAP
E0
40
ENDCHAR
STARTCHAR U+02D2
ENCODING 722
SWIDTH 714 0
DWIDTH 5 0
BBX 2 3 1 2
BITMAP
80
40
80
ENDCHAR
STARTCHAR U+02D3
ENCODING 723
SWIDTH 714 0
DWIDTH 5 0
BBX 2 3 1 2
BITMAP
40
80
40
ENDCHAR
STARTCHAR U+02D4
ENCODING 724
SWIDTH 714 0
DWIDTH 5 0
BBX 3 3 1 0
BITMAP
40
40
E0
ENDCHAR
STARTCHAR U+02D5
ENCODING 725
SWIDTH 714 0
DWIDTH 5 0
BBX 3 3 1 0
BITMAP
E0
40
40
ENDCHAR
STARTCHAR U+02D6
ENCODING 726
SWIDTH 714 0
DWIDTH 5 0
BBX 3 3 1 1
BITMAP
40
E0
40
ENDCHAR
STARTCHAR U+02D7
ENCODING 727
SWIDTH 714 0
DWIDTH 5 0
BBX 3 1 1 2
BITMAP
E0
ENDCHAR
STARTCHAR U+02D8
ENCODING 728
SWIDTH 714 0
DWIDTH 5 0
BBX 4 2 0 6
BITMAP
90
60
ENDCHAR
STARTCHAR U+02D9
ENCODING 729
SWIDTH 714 0
DWIDTH 5 0
BBX 1 1 2 7
BITMAP
80
ENDCHAR
STARTCHAR U+02DA
ENCODING 730
SWIDTH 714 0
DWIDTH 5 0
BBX 3 3 1 6
BITMAP
40
A0
40
ENDCHAR
STARTCHAR U+02DB
ENCODING 731
SWIDTH 714 0
DWIDTH 5 0
BBX 2 3 1 -3
BITMAP
40
80
C0
ENDCHAR
STARTCHAR U+02DC
ENCODING 732
SWIDTH 714 0
DWIDTH 5 0
BBX 4 2 0 6
BITMAP
D0
B0
ENDCHAR
STARTCHAR U+02DD
ENCODING 733
SWIDTH 714 0
DWIDTH 5 0
BBX 4 2 0 6
BITMAP
50
A0
ENDCHAR
STARTCHAR U+02DE
ENCODING 734
SWIDTH 714 0
DWIDTH 5 0
BBX 3 3 1 2
BITMAP
40
C0
60
ENDCHAR
STARTCHAR U+02DF
ENCODING 735
SWIDTH 714 0
DWIDTH 5 0
BBX 3 3 1 5
BITMAP
A0
40
A0
ENDCHAR
STARTCHAR U+02E0
ENCODING 736
SWIDTH 714 0
DWIDTH 5 0
BBX 3 5 1 1
BITMAP
A0
A0
40
A0
40
ENDCHAR
STARTCHAR U+02E1
ENCODING 737
SWIDTH 714 0
DWIDTH 5 0
BBX 3 5 0 4
BITMAP
80
80
80
A0
40
ENDCHAR
STARTCHAR U+02E2
ENCODING 738
SWIDTH 714 0
DWIDTH 5 0
BBX 3 4 0 4
BITMAP
60
C0
20
C0
ENDCHAR
STARTCHAR U+02E3
ENCODING 739
SWIDTH 714 0
DWIDTH 5 0
BBX 3 4 0 4
BITMAP
A0
40
A0
A0
ENDCHAR
STARTCHAR U+02E4
ENCODING 740
SWIDTH 714 0
DWIDTH 5 0
BBX 3 4 1 4
BITMAP
60
80
40
40
ENDCHAR
STARTCHAR U+02E5
ENCODING 741
SWIDTH 714 0
DWIDTH 5 0
BBX 3 9 0 0
BITMAP
E0
20
20
20
20
20
20
20
20
ENDCHAR
STARTCHAR U+02E6
ENCODING 742
SWIDTH 714 0
DWIDTH 5 0
BBX 3 9 0 0
BITMAP
20
E0
20
20
20
20
20
20
20
ENDCHAR
STARTCHAR U+02E7
ENCODING 743
SWIDTH 714 0
DWIDTH 5 0
BBX 3 9 0 0
BITMAP
20
20
20
20
E0
20
20
20
20
ENDCHAR
STARTCHAR U+02E8
ENCODING 744
SWIDTH 714 0
DWIDTH 5 0
BBX 3 9 0 0
BITMAP
20
20
20
20
20
20
20
E0
20
ENDCHAR
STARTCHAR U+02E9
ENCODING 745
SWIDTH 714 0
DWIDTH 5 0
BBX 3 9 0 0
BITMAP
20
20
20
20
20
20
20
20
E0
ENDCHAR
STARTCHAR U+02EA
ENCODING 746
SWIDTH 714 0
DWIDTH 5 0
BBX 2 4 1 0
BITMAP
80
80
80
C0
ENDCHAR
STARTCHAR U+02EB
ENCODING 747
SWIDTH 714 0
DWIDTH 5 0
BBX 2 4 1 0
BITMAP
80
C0
80
80
ENDCHAR
STARTCHAR U+02EC
ENCODING 748
SWIDTH 714 0
DWIDTH 5 0
BBX 4 2 0 -2
BITMAP
90
60
ENDCHAR
STARTCHAR U+02ED
ENCODING 749
SWIDTH 714 0
DWIDTH 5 0
BBX 3 3 1 6
BITMAP
E0
00
E0
ENDCHAR
STARTCHAR U+02EE
ENCODING 750
SWIDTH 714 0
DWIDTH 5 0
BBX 4 3 0 5
BITMAP
50
50
A0
ENDCHAR
STARTCHAR U+02EF
ENCODING 751
SWIDTH 714 0
DWIDTH 5 0
BBX 3 2 1 -2
BITMAP
A0
40
ENDCHAR
STARTCHAR U+02F0
ENCODING 752
SWIDTH 714 0
DWIDTH 5 0
BBX 3 2 1 -2
BITMAP
40
A0
ENDCHAR
STARTCHAR U+02F1
ENCODING 753
SWIDTH 714 0
DWIDTH 5 0
BBX 2 3 1 -3
BITMAP
40
80
40
ENDCHAR
STARTCHAR U+02F2
ENCODING 754
SWIDTH 714 0
DWIDTH 5 0
BBX 2 3 1 -3
BITMAP
80
40
80
ENDCHAR
STARTCHAR U+02F3
ENCODING 755
SWIDTH 714 0
DWIDTH 5 0
BBX 3 3 1 -3
BITMAP
40
A0
40
ENDCHAR
STARTCHAR U+02F4
ENCODING 756
SWIDTH 714 0
DWIDTH 5 0
BBX 2 2 1 2
BITMAP
80
40
ENDCHAR
STARTCHAR U+02F5
ENCODING 757
SWIDTH 714 0
DWIDTH 5 0
BBX 4 2 0 2
BITMAP
A0
50
ENDCHAR
STARTCHAR U+02F6
ENCODING 758
SWIDTH 714 0
DWIDTH 5 0
BBX 4 2 0 2
BITMAP
50
A0
ENDCHAR
STARTCHAR U+02F7
ENCODING 759
SWIDTH 714 0
DWIDTH 5 0
BBX 4 2 0 -2
BITMAP
D0
B0
ENDCHAR
STARTCHAR U+02F8
ENCODING 760
SWIDTH 714 0
DWIDTH 5 0
BBX 1 3 2 3
BITMAP
80
00
80
ENDCHAR
STARTCHAR U+02F9
ENCODING 761
SWIDTH 714 0
DWIDTH 5 0
BBX 2 2 1 6
BITMAP
C0
80
ENDCHAR
STARTCHAR U+02FA
ENCODING 762
SWIDTH 714 0
DWIDTH 5 0
BBX 2 2 1 6
BITMAP
C0
40
ENDCHAR
STARTCHAR U+02FB
ENCODING 763
SWIDTH 714 0
DWIDTH 5 0
BBX 2 2 1 -3
BITMAP
80
C0
ENDCHAR
STARTCHAR U+02FC
ENCODING 764
SWIDTH 714 0
DWIDTH 5 0
BBX 2 2 1 -3
BITMAP
40
C0
ENDCHAR
STARTCHAR U+02FD
ENCODING 765
SWIDTH 714 0
DWIDTH 5 0
BBX 4 2 0 -2
BITMAP
90
F0
ENDCHAR
STARTCHAR U+02FE
ENCODING 766
SWIDTH 714 0
DWIDTH 5 0
BBX 4 2 0 -2
BITMAP
80
F0
ENDCHAR
STARTCHAR U+02FF
ENCODING 767
SWIDTH 714 0
DWIDTH 5 0
BBX 4 5 0 -3
BITMAP
20
40
F0
40
20
ENDCHAR
STARTCHAR U+0364
ENCODING 868
SWIDTH 714 0
DWIDTH 5 0
BBX 4 5 0 0
BITMAP
60
90
10
10
20
ENDCHAR
STARTCHAR U+0384
ENCODING 900
SWIDTH 714 0
DWIDTH 5 0
BBX 2 2 2 7
BITMAP
40
80
ENDCHAR
STARTCHAR U+0385
ENCODING 901
SWIDTH 714 0
DWIDTH 5 0
BBX 3 4 1 6
BITMAP
20
40
00
A0
ENDCHAR
STARTCHAR U+0386
ENCODING 902
SWIDTH 714 0
DWIDTH 5 0
BBX 5 9 0 0
BITMAP
20
40
20
20
50
50
70
88
98
ENDCHAR
STARTCHAR U+0388
ENCODING 904
SWIDTH 714 0
DWIDTH 5 0
BBX 4 9 0 0
BITMAP
40
80
70
50
40
60
40
50
F0
ENDCHAR
STARTCHAR U+0389
ENCODING 905
SWIDTH 714 0
DWIDTH 5 0
BBX 5 9 0 0
BITMAP
40
80
58
50
50
70
50
50
D8
ENDCHAR
STARTCHAR U+038A
ENCODING 906
SWIDTH 714 0
DWIDTH 5 0
BBX 4 9 0 0
BITMAP
40
80
70
20
20
20
20
20
70
ENDCHAR
STARTCHAR U+038C
ENCODING 908
SWIDTH 714 0
DWIDTH 5 0
BBX 4 9 0 0
BITMAP
40
80
60
90
90
90
90
90
60
ENDCHAR
STARTCHAR U+038E
ENCODING 910
SWIDTH 714 0
DWIDTH 5 0
BBX 5 9 0 0
BITMAP
40
80
48
50
50
20
20
20
70
ENDCHAR
STARTCHAR U+038F
ENCODING 911
SWIDTH 714 0
DWIDTH 5 0
BBX 5 9 0 0
BITMAP
40
80
70
88
88
88
88
50
D8
ENDCHAR
STARTCHAR U+0390
ENCODING 912
SWIDTH 714 0
DWIDTH 5 0
BBX 4 10 0 0
BITMAP
20
40
00
A0
00
40
C0
40
50
20
ENDCHAR
STARTCHAR U+0391
ENCODING 913
SWIDTH 714 0
DWIDTH 5 0
BBX 5 7 0 0
BITMAP
20
20
50
50
70
88
98
ENDCHAR
STARTCHAR U+0392
ENCODING 914
SWIDTH 714 0
DWIDTH 5 0
BBX 4 7 0 0
BITMAP
E0
50
50
60
50
50
E0
ENDCHAR
STARTCHAR U+0393
ENCODING 915
SWIDTH 714 0
DWIDTH 5 0
BBX 4 7 0 0
BITMAP
F0
50
40
40
40
40
E0
ENDCHAR
STARTCHAR U+0394
ENCODING 916
SWIDTH 714 0
DWIDTH 5 0
BBX 5 7 0 0
BITMAP
20
20
50
50
50
88
F8
ENDCHAR
STARTCHAR U+0395
ENCODING 917
SWIDTH 714 0
DWIDTH 5 0
BBX 4 7 0 0
BITMAP
F0
50
40
60
40
50
F0
ENDCHAR
STARTCHAR U+0396
ENCODING 918
SWIDTH 714 0
DWIDTH 5 0
BBX 4 7 0 0
BITMAP
F0
A0
20
40
40
90
F0
ENDCHAR
STARTCHAR U+0397
ENCODING 919
SWIDTH 714 0
DWIDTH 5 0
BBX 5 7 0 0
BITMAP
D8
50
50
70
50
50
D8
ENDCHAR
STARTCHAR U+0398
ENCODING 920
SWIDTH 714 0
DWIDTH 5 0
BBX 4 7 0 0
BITMAP
60
90
90
F0
90
90
60
ENDCHAR
STARTCHAR U+0399
ENCODING 921
SWIDTH 714 0
DWIDTH 5 0
BBX 3 7 1 0
BITMAP
E0
40
40
40
40
40
E0
ENDCHAR
STARTCHAR U+039A
ENCODING 922
SWIDTH 714 0
DWIDTH 5 0
BBX 5 7 0 0
BITMAP
D8
50
60
60
50
50
D8
ENDCHAR
STARTCHAR U+039B
ENCODING 923
SWIDTH 714 0
DWIDTH 5 0
BBX 5 7 0 0
BITMAP
20
20
50
50
50
88
98
ENDCHAR
STARTCHAR U+039C
ENCODING 924
SWIDTH 714 0
DWIDTH 5 0
BBX 5 7 0 0
BITMAP
88
D8
A8
88
88
88
98
ENDCHAR
STARTCHAR U+039D
ENCODING 925
SWIDTH 714 0
DWIDTH 5 0
BBX 4 7 0 0
BITMAP
90
D0
D0
B0
B0
90
90
ENDCHAR
STARTCHAR U+039E
ENCODING 926
SWIDTH 714 0
DWIDTH 5 0
BBX 4 7 0 0
BITMAP
F0
90
00
60
00
90
F0
ENDCHAR
STARTCHAR U+039F
ENCODING 927
SWIDTH 714 0
DWIDTH 5 0
BBX 4 7 0 0
BITMAP
60
90
90
90
90
90
60
ENDCHAR
STARTCHAR U+03A0
ENCODING 928
SWIDTH 714 0
DWIDTH 5 0
BBX 4 7 0 0
BITMAP
F0
90
90
90
90
90
90
ENDCHAR
STARTCHAR U+03A1
ENCODING 929
SWIDTH 714 0
DWIDTH 5 0
BBX 4 7 0 0
BITMAP
E0
50
50
60
40
40
E0
ENDCHAR
STARTCHAR U+03A3
ENCODING 931
SWIDTH 714 0
DWIDTH 5 0
BBX 4 7 0 0
BITMAP
F0
90
40
20
40
90
F0
ENDCHAR
STARTCHAR U+03A4
ENCODING 932
SWIDTH 714 0
DWIDTH 5 0
BBX 5 7 0 0
BITMAP
F8
A8
20
20
20
20
70
ENDCHAR
STARTCHAR U+03A5
ENCODING 933
SWIDTH 714 0
DWIDTH 5 0
BBX 5 7 0 0
BITMAP
88
50
50
20
20
20
70
ENDCHAR
STARTCHAR U+03A6
ENCODING 934
SWIDTH 714 0
DWIDTH 5 0
BBX 5 7 0 0
BITMAP
70
20
70
A8
70
20
70
ENDCHAR
STARTCHAR U+03A7
ENCODING 935
SWIDTH 714 0
DWIDTH 5 0
BBX 5 7 0 0
BITMAP
D8
50
50
20
50
50
D8
ENDCHAR
STARTCHAR U+03A8
ENCODING 936
SWIDTH 714 0
DWIDTH 5 0
BBX 5 7 0 0
BITMAP
A8
A8
A8
70
20
20
70
ENDCHAR
STARTCHAR U+03A9
ENCODING 937
SWIDTH 714 0
DWIDTH 5 0
BBX 5 7 0 0
BITMAP
70
88
88
88
88
50
D8
ENDCHAR
STARTCHAR U+03AA
ENCODING 938
SWIDTH 714 0
DWIDTH 5 0
BBX 3 9 1 0
BITMAP
A0
00
E0
40
40
40
40
40
E0
ENDCHAR
STARTCHAR U+03AB
ENCODING 939
SWIDTH 714 0
DWIDTH 5 0
BBX 5 9 0 0
BITMAP
50
00
88
50
50
20
20
20
70
ENDCHAR
STARTCHAR U+03AC
ENCODING 940
SWIDTH 714 0
DWIDTH 5 0
BBX 4 8 0 0
BITMAP
20
40
00
50
A0
A0
A0
50
ENDCHAR
STARTCHAR U+03AD
ENCODING 941
SWIDTH 714 0
DWIDTH 5 0
BBX 4 8 0 0
BITMAP
20
40
00
60
80
40
90
60
ENDCHAR
STARTCHAR U+03AE
ENCODING 942
SWIDTH 714 0
DWIDTH 5 0
BBX 4 10 0 -2
BITMAP
20
40
00
A0
D0
90
90
90
10
10
ENDCHAR
STARTCHAR U+03AF
ENCODING 943
SWIDTH 714 0
DWIDTH 5 0
BBX 4 8 0 0
BITMAP
20
40
00
40
C0
40
50
20
ENDCHAR
STARTCHAR U+03B0
ENCODING 944
SWIDTH 714 0
DWIDTH 5 0
BBX 4 10 0 0
BITMAP
20
40
00
A0
00
A0
90
90
90
60
ENDCHAR
STARTCHAR U+03B1
ENCODING 945
SWIDTH 714 0
DWIDTH 5 0
BBX 4 5 0 0
BITMAP
50
A0
A0
A0
50
ENDCHAR
STARTCHAR U+03B2
ENCODING 946
SWIDTH 714 0
DWIDTH 5 0
BBX 4 9 0 -2
BITMAP
60
90
90
A0
90
90
A0
80
80
ENDCHAR
STARTCHAR U+03B3
ENCODING 947
SWIDTH 714 0
DWIDTH 5 0
BBX 5 7 0 -2
BITMAP
88
50
50
20
20
50
20
ENDCHAR
STARTCHAR U+03B4
ENCODING 948
SWIDTH 714 0
DWIDTH 5 0
BBX 4 7 0 0
BITMAP
30
40
20
50
90
90
60
ENDCHAR
STARTCHAR U+03B5
ENCODING 949
SWIDTH 714 0
DWIDTH 5 0
BBX 4 5 0 0
BITMAP
60
80
40
90
60
ENDCHAR
STARTCHAR U+03B6
ENCODING 950
SWIDTH 714 0
DWIDTH 5 0
BBX 4 9 0 -2
BITMAP
F0
20
40
80
80
80
60
10
20
ENDCHAR
STARTCHAR U+03B7
ENCODING 951
SWIDTH 714 0
DWIDTH 5 0
BBX 4 7 0 -2
BITMAP
A0
D0
90
90
90
10
10
ENDCHAR
STARTCHAR U+03B8
ENCODING 952
SWIDTH 714 0
DWIDTH 5 0
BBX 4 5 0 0
BITMAP
60
90
F0
90
60
ENDCHAR
STARTCHAR U+03B9
ENCODING 953
SWIDTH 714 0
DWIDTH 5 0
BBX 4 5 0 0
BITMAP
40
C0
40
50
20
ENDCHAR
STARTCHAR U+03BA
ENCODING 954
SWIDTH 714 0
DWIDTH 5 0
BBX 4 5 0 0
BITMAP
90
A0
C0
A0
90
ENDCHAR
STARTCHAR U+03BB
ENCODING 955
SWIDTH 714 0
DWIDTH 5 0
BBX 4 7 0 0
BITMAP
40
20
20
60
60
A0
90
ENDCHAR
STARTCHAR U+03BC
ENCODING 956
SWIDTH 714 0
DWIDTH 5 0
BBX 4 7 0 -2
BITMAP
90
90
90
B0
D0
80
80
ENDCHAR
STARTCHAR U+03BD
ENCODING 957
SWIDTH 714 0
DWIDTH 5 0
BBX 4 5 0 0
BITMAP
90
50
50
60
40
ENDCHAR
STARTCHAR U+03BE
ENCODING 958
SWIDTH 714 0
DWIDTH 5 0
BBX 4 9 0 -2
BITMAP
80
60
80
40
80
80
60
10
60
ENDCHAR
STARTCHAR U+03BF
ENCODING 959
SWIDTH 714 0
DWIDTH 5 0
BBX 4 5 0 0
BITMAP
60
90
90
90
60
ENDCHAR
STARTCHAR U+03C0
ENCODING 960
SWIDTH 714 0
DWIDTH 5 0
BBX 5 5 0 0
BITMAP
F8
50
50
50
98
ENDCHAR
STARTCHAR U+03C1
ENCODING 961
SWIDTH 714 0
DWIDTH 5 0
BBX 4 7 0 -2
BITMAP
60
90
90
90
A0
80
80
ENDCHAR
STARTCHAR U+03C2
ENCODING 962
SWIDTH 714 0
DWIDTH 5 0
BBX 4 7 0 -2
BITMAP
70
90
80
80
60
10
20
ENDCHAR
STARTCHAR U+03C3
ENCODING 963
SWIDTH 714 0
DWIDTH 5 0
BBX 4 5 0 0
BITMAP
70
A0
A0
A0
40
ENDCHAR
STARTCHAR U+03C4
ENCODING 964
SWIDTH 714 0
DWIDTH 5 0
BBX 4 5 0 0
BITMAP
F0
40
40
50
20
ENDCHAR
STARTCHAR U+03C5
ENCODING 965
SWIDTH 714 0
DWIDTH 5 0
BBX 4 5 0 0
BITMAP
A0
90
90
90
60
ENDCHAR
STARTCHAR U+03C6
ENCODING 966
SWIDTH 714 0
DWIDTH 5 0
BBX 5 7 0 -2
BITMAP
10
A8
A8
A8
70
20
20
ENDCHAR
STARTCHAR U+03C7
ENCODING 967
SWIDTH 714 0
DWIDTH 5 0
BBX 4 8 0 -3
BITMAP
90
50
50
60
60
A0
A0
10
ENDCHAR
STARTCHAR U+03C8
ENCODING 968
SWIDTH 714 0
DWIDTH 5 0
BBX 5 8 0 -2
BITMAP
20
A8
A8
A8
A8
70
20
20
ENDCHAR
STARTCHAR U+03C9
ENCODING 969
SWIDTH 714 0
DWIDTH 5 0
BBX 5 5 0 0
BITMAP
50
88
A8
A8
50
ENDCHAR
STARTCHAR U+03CA
ENCODING 970
SWIDTH 714 0
DWIDTH 5 0
BBX 4 7 0 0
BITMAP
A0
00
40
C0
40
50
20
ENDCHAR
STARTCHAR U+03CB
ENCODING 971
SWIDTH 714 0
DWIDTH 5 0
BBX 4 7 0 0
BITMAP
A0
00
A0
90
90
90
60
ENDCHAR
STARTCHAR U+03CC
ENCODING 972
SWIDTH 714 0
DWIDTH 5 0
BBX 4 8 0 0
BITMAP
20
40
00
60
90
90
90
60
ENDCHAR
STARTCHAR U+03CD
ENCODING 973
SWIDTH 714 0
DWIDTH 5 0
BBX 4 8 0 0
BITMAP
20
40
00
A0
90
90
90
60
ENDCHAR
STARTCHAR U+03CE
ENCODING 974
SWIDTH 714 0
DWIDTH 5 0
BBX 5 8 0 0
BITMAP
10
20
00
50
88
A8
A8
50
ENDCHAR
STARTCHAR U+0400
ENCODING 1024
SWIDTH 714 0
DWIDTH 5 0
BBX 4 10 0 0
BITMAP
40
20
00
60
80
40
80
80
90
60
ENDCHAR
STARTCHAR U+0401
ENCODING 1025
SWIDTH 714 0
DWIDTH 5 0
BBX 4 9 0 0
BITMAP
A0
00
60
80
40
80
80
90
60
ENDCHAR
STARTCHAR U+0402
ENCODING 1026
SWIDTH 714 0
DWIDTH 5 0
BBX 4 9 0 -1
BITMAP
E0
80
80
A0
D0
90
90
90
20
ENDCHAR
STARTCHAR U+0403
ENCODING 1027
SWIDTH 714 0
DWIDTH 5 0
BBX 4 10 0 0
BITMAP
20
40
00
F0
90
80
80
80
80
80
ENDCHAR
STARTCHAR U+0404
ENCODING 1028
SWIDTH 714 0
DWIDTH 5 0
BBX 4 8 0 0
BITMAP
60
90
80
E0
80
80
90
60
ENDCHAR
STARTCHAR U+0405
ENCODING 1029
SWIDTH 714 0
DWIDTH 5 0
BBX 4 8 0 0
BITMAP
70
90
80
60
10
10
A0
C0
ENDCHAR
STARTCHAR U+0406
ENCODING 1030
SWIDTH 714 0
DWIDTH 5 0
BBX 4 8 0 0
BITMAP
30
C0
20
20
20
20
30
C0
ENDCHAR
STARTCHAR U+0407
ENCODING 1031
SWIDTH 714 0
DWIDTH 5 0
BBX 4 9 0 0
BITMAP
50
00
30
C0
20
20
20
30
C0
ENDCHAR
STARTCHAR U+0408
ENCODING 1032
SWIDTH 714 0
DWIDTH 5 0
BBX 4 8 0 0
BITMAP
30
C0
20
20
20
20
A0
40
ENDCHAR
STARTCHAR U+0409
ENCODING 1033
SWIDTH 857 0
DWIDTH 6 0
BBX 6 8 -1 0
BITMAP
70
50
50
50
58
54
54
88
ENDCHAR
STARTCHAR U+040A
ENCODING 1034
SWIDTH 857 0
DWIDTH 6 0
BBX 5 8 0 0
BITMAP
A0
A0
A0
A0
F0
A8
A8
90
ENDCHAR
STARTCHAR U+040B
ENCODING 1035
SWIDTH 714 0
DWIDTH 5 0
BBX 4 8 0 0
BITMAP
E0
80
80
A0
D0
90
90
90
ENDCHAR
STARTCHAR U+040C
ENCODING 1036
SWIDTH 714 0
DWIDTH 5 0
BBX 4 10 0 0
BITMAP
20
40
10
A0
A0
C0
A0
A0
A0
90
ENDCHAR
STARTCHAR U+040D
ENCODING 1037
SWIDTH 714 0
DWIDTH 5 0
BBX 4 10 0 0
BITMAP
40
20
00
90
B0
B0
D0
D0
90
90
ENDCHAR
STARTCHAR U+040E
ENCODING 1038
SWIDTH 714 0
DWIDTH 5 0
BBX 4 10 0 0
BITMAP
90
60
00
90
50
50
30
10
A0
C0
ENDCHAR
STARTCHAR U+040F
ENCODING 1039
SWIDTH 714 0
DWIDTH 5 0
BBX 4 10 0 -2
BITMAP
10
90
90
90
90
90
90
F0
20
20
ENDCHAR
STARTCHAR U+0410
ENCODING 1040
SWIDTH 714 0
DWIDTH 5 0
BBX 4 8 0 0
BITMAP
60
90
90
B0
D0
90
90
90
ENDCHAR
STARTCHAR U+0411
ENCODING 1041
SWIDTH 714 0
DWIDTH 5 0
BBX 4 8 0 0
BITMAP
E0
80
80
80
E0
90
90
60
ENDCHAR
STARTCHAR U+0412
ENCODING 1042
SWIDTH 714 0
DWIDTH 5 0
BBX 4 8 0 0
BITMAP
40
A0
A0
D0
90
90
A0
C0
ENDCHAR
STARTCHAR U+0413
ENCODING 1043
SWIDTH 714 0
DWIDTH 5 0
BBX 4 8 0 0
BITMAP
F0
90
80
80
80
80
80
80
ENDCHAR
STARTCHAR U+0414
ENCODING 1044
SWIDTH 714 0
DWIDTH 5 0
BBX 4 9 0 -1
BITMAP
30
50
50
50
50
50
90
F0
90
ENDCHAR
STARTCHAR U+0415
ENCODING 1045
SWIDTH 714 0
DWIDTH 5 0
BBX 4 8 0 0
BITMAP
60
A0
80
40
80
80
90
60
ENDCHAR
STARTCHAR U+0416
ENCODING 1046
SWIDTH 714 0
DWIDTH 5 0
BBX 5 8 0 0
BITMAP
28
A8
A8
70
A8
A8
A8
A8
ENDCHAR
STARTCHAR U+0417
ENCODING 1047
SWIDTH 714 0
DWIDTH 5 0
BBX 4 8 0 0
BITMAP
60
50
10
20
10
10
90
60
ENDCHAR
STARTCHAR U+0418
ENCODING 1048
SWIDTH 714 0
DWIDTH 5 0
BBX 4 8 0 0
BITMAP
10
90
B0
B0
D0
D0
90
90
ENDCHAR
STARTCHAR U+0419
ENCODING 1049
SWIDTH 714 0
DWIDTH 5 0
BBX 4 10 0 0
BITMAP
90
60
00
90
B0
B0
D0
D0
90
90
ENDCHAR
STARTCHAR U+041A
ENCODING 1050
SWIDTH 714 0
DWIDTH 5 0
BBX 4 8 0 0
BITMAP
10
A0
A0
C0
A0
A0
A0
90
ENDCHAR
STARTCHAR U+041B
ENCODING 1051
SWIDTH 714 0
DWIDTH 5 0
BBX 4 8 0 0
BITMAP
70
50
50
50
50
50
50
90
ENDCHAR
STARTCHAR U+041C
ENCODING 1052
SWIDTH 714 0
DWIDTH 5 0
BBX 5 8 0 0
BITMAP
08
98
E8
A8
A8
88
88
88
ENDCHAR
STARTCHAR U+041D
ENCODING 1053
SWIDTH 714 0
DWIDTH 5 0
BBX 4 8 0 0
BITMAP
10
90
90
B0
D0
90
90
90
ENDCHAR
STARTCHAR U+041E
ENCODING 1054
SWIDTH 714 0
DWIDTH 5 0
BBX 4 8 0 0
BITMAP
60
90
90
90
90
90
90
60
ENDCHAR
STARTCHAR U+041F
ENCODING 1055
SWIDTH 714 0
DWIDTH 5 0
BBX 4 8 0 0
BITMAP
F0
90
90
90
90
90
90
90
ENDCHAR
STARTCHAR U+0420
ENCODING 1056
SWIDTH 714 0
DWIDTH 5 0
BBX 4 8 0 0
BITMAP
60
90
90
A0
C0
80
80
80
ENDCHAR
STARTCHAR U+0421
ENCODING 1057
SWIDTH 714 0
DWIDTH 5 0
BBX 4 8 0 0
BITMAP
60
A0
80
80
80
80
90
60
ENDCHAR
STARTCHAR U+0422
ENCODING 1058
SWIDTH 714 0
DWIDTH 5 0
BBX 5 8 0 0
BITMAP
18
E0
20
20
20
20
20
20
ENDCHAR
STARTCHAR U+0423
ENCODING 1059
SWIDTH 714 0
DWIDTH 5 0
BBX 4 8 0 0
BITMAP
10
90
50
50
30
10
A0
C0
ENDCHAR
STARTCHAR U+0424
ENCODING 1060
SWIDTH 714 0
DWIDTH 5 0
BBX 5 8 0 0
BITMAP
70
20
70
A8
A8
70
20
70
ENDCHAR
STARTCHAR U+0425
ENCODING 1061
SWIDTH 714 0
DWIDTH 5 0
BBX 4 8 0 0
BITMAP
10
A0
A0
60
50
50
50
90
ENDCHAR
STARTCHAR U+0426
ENCODING 1062
SWIDTH 714 0
DWIDTH 5 0
BBX 4 9 0 -1
BITMAP
20
A0
A0
A0
A0
A0
A0
F0
10
ENDCHAR
STARTCHAR U+0427
ENCODING 1063
SWIDTH 714 0
DWIDTH 5 0
BBX 4 8 0 0
BITMAP
90
90
90
B0
50
10
10
10
ENDCHAR
STARTCHAR U+0428
ENCODING 1064
SWIDTH 714 0
DWIDTH 5 0
BBX 5 8 0 0
BITMAP
08
A8
A8
A8
A8
A8
A8
F8
ENDCHAR
STARTCHAR U+0429
ENCODING 1065
SWIDTH 714 0
DWIDTH 5 0
BBX 5 10 0 -2
BITMAP
08
A8
A8
A8
A8
A8
A8
F8
08
08
ENDCHAR
STARTCHAR U+042A
ENCODING 1066
SWIDTH 714 0
DWIDTH 5 0
BBX 4 8 0 0
BITMAP
C0
40
40
40
60
50
50
20
ENDCHAR
STARTCHAR U+042B
ENCODING 1067
SWIDTH 714 0
DWIDTH 5 0
BBX 4 8 0 0
BITMAP
90
90
90
90
D0
B0
B0
50
ENDCHAR
STARTCHAR U+042C
ENCODING 1068
SWIDTH 714 0
DWIDTH 5 0
BBX 4 8 0 0
BITMAP
80
80
80
80
E0
90
90
60
ENDCHAR
STARTCHAR U+042D
ENCODING 1069
SWIDTH 714 0
DWIDTH 5 0
BBX 4 8 0 0
BITMAP
60
90
10
70
10
10
90
60
ENDCHAR
STARTCHAR U+042E
ENCODING 1070
SWIDTH 714 0
DWIDTH 5 0
BBX 5 8 0 0
BITMAP
90
A8
A8
E8
A8
A8
A8
90
ENDCHAR
STARTCHAR U+042F
ENCODING 1071
SWIDTH 714 0
DWIDTH 5 0
BBX 4 8 0 0
BITMAP
60
90
90
50
30
50
50
90
ENDCHAR
STARTCHAR U+0430
ENCODING 1072
SWIDTH 714 0
DWIDTH 5 0
BBX 4 5 0 0
BITMAP
60
10
70
90
50
ENDCHAR
STARTCHAR U+0431
ENCODING 1073
SWIDTH 714 0
DWIDTH 5 0
BBX 4 8 0 0
BITMAP
10
60
80
A0
D0
90
90
60
ENDCHAR
STARTCHAR U+0432
ENCODING 1074
SWIDTH 714 0
DWIDTH 5 0
BBX 4 5 0 0
BITMAP
60
90
E0
90
60
ENDCHAR
STARTCHAR U+0433
ENCODING 1075
SWIDTH 714 0
DWIDTH 5 0
BBX 4 5 0 0
BITMAP
F0
90
80
80
80
ENDCHAR
STARTCHAR U+0434
ENCODING 1076
SWIDTH 714 0
DWIDTH 5 0
BBX 4 6 0 -1
BITMAP
30
50
50
90
F0
90
ENDCHAR
STARTCHAR U+0435
ENCODING 1077
SWIDTH 714 0
DWIDTH 5 0
BBX 4 5 0 0
BITMAP
60
A0
C0
90
60
ENDCHAR
STARTCHAR U+0436
ENCODING 1078
SWIDTH 714 0
DWIDTH 5 0
BBX 5 5 0 0
BITMAP
A8
A8
70
A8
A8
ENDCHAR
STARTCHAR U+0437
ENCODING 1079
SWIDTH 714 0
DWIDTH 5 0
BBX 4 5 0 0
BITMAP
60
10
20
90
60
ENDCHAR
STARTCHAR U+0438
ENCODING 1080
SWIDTH 714 0
DWIDTH 5 0
BBX 4 5 0 0
BITMAP
90
B0
D0
90
90
ENDCHAR
STARTCHAR U+0439
ENCODING 1081
SWIDTH 714 0
DWIDTH 5 0
BBX 4 8 0 0
BITMAP
90
60
00
90
B0
D0
90
90
ENDCHAR
STARTCHAR U+043A
ENCODING 1082
SWIDTH 714 0
DWIDTH 5 0
BBX 4 5 0 0
BITMAP
90
A0
C0
A0
90
ENDCHAR
STARTCHAR U+043B
ENCODING 1083
SWIDTH 714 0
DWIDTH 5 0
BBX 4 5 0 0
BITMAP
70
50
50
50
90
ENDCHAR
STARTCHAR U+043C
ENCODING 1084
SWIDTH 714 0
DWIDTH 5 0
BBX 5 5 0 0
BITMAP
88
D8
A8
88
88
ENDCHAR
STARTCHAR U+043D
ENCODING 1085
SWIDTH 714 0
DWIDTH 5 0
BBX 4 5 0 0
BITMAP
90
90
F0
90
90
ENDCHAR
STARTCHAR U+043E
ENCODING 1086
SWIDTH 714 0
DWIDTH 5 0
BBX 4 5 0 0
BITMAP
60
90
90
90
60
ENDCHAR
STARTCHAR U+043F
ENCODING 1087
SWIDTH 714 0
DWIDTH 5 0
BBX 4 5 0 0
BITMAP
F0
90
90
90
90
ENDCHAR
STARTCHAR U+0440
ENCODING 1088
SWIDTH 714 0
DWIDTH 5 0
BBX 4 8 0 -3
BITMAP
60
90
90
A0
C0
80
80
80
ENDCHAR
STARTCHAR U+0441
ENCODING 1089
SWIDTH 714 0
DWIDTH 5 0
BBX 4 5 0 0
BITMAP
60
A0
80
90
60
ENDCHAR
STARTCHAR U+0442
ENCODING 1090
SWIDTH 714 0
DWIDTH 5 0
BBX 5 5 0 0
BITMAP
18
E0
20
20
20
ENDCHAR
STARTCHAR U+0443
ENCODING 1091
SWIDTH 714 0
DWIDTH 5 0
BBX 4 8 0 -3
BITMAP
90
90
90
B0
50
10
A0
C0
ENDCHAR
STARTCHAR U+0444
ENCODING 1092
SWIDTH 714 0
DWIDTH 5 0
BBX 5 11 -1 -3
BITMAP
10
20
20
70
A8
A8
A8
70
20
20
40
ENDCHAR
STARTCHAR U+0445
ENCODING 1093
SWIDTH 714 0
DWIDTH 5 0
BBX 4 5 0 0
BITMAP
90
A0
60
50
90
ENDCHAR
STARTCHAR U+0446
ENCODING 1094
SWIDTH 714 0
DWIDTH 5 0
BBX 4 6 0 -1
BITMAP
A0
A0
A0
A0
F0
10
ENDCHAR
STARTCHAR U+0447
ENCODING 1095
SWIDTH 714 0
DWIDTH 5 0
BBX 4 5 0 0
BITMAP
90
90
B0
50
10
ENDCHAR
STARTCHAR U+0448
ENCODING 1096
SWIDTH 714 0
DWIDTH 5 0
BBX 5 5 0 0
BITMAP
A8
A8
A8
A8
F8
ENDCHAR
STARTCHAR U+0449
ENCODING 1097
SWIDTH 714 0
DWIDTH 5 0
BBX 5 7 0 -2
BITMAP
A8
A8
A8
A8
F8
08
08
ENDCHAR
STARTCHAR U+044A
ENCODING 1098
SWIDTH 714 0
DWIDTH 5 0
BBX 4 5 0 0
BITMAP
C0
40
60
50
20
ENDCHAR
STARTCHAR U+044B
ENCODING 1099
SWIDTH 714 0
DWIDTH 5 0
BBX 4 5 0 0
BITMAP
90
90
D0
B0
50
ENDCHAR
STARTCHAR U+044C
ENCODING 1100
SWIDTH 714 0
DWIDTH 5 0
BBX 4 5 0 0
BITMAP
80
80
E0
90
60
ENDCHAR
STARTCHAR U+044D
ENCODING 1101
SWIDTH 714 0
DWIDTH 5 0
BBX 4 5 0 0
BITMAP
60
10
30
90
60
ENDCHAR
STARTCHAR U+044E
ENCODING 1102
SWIDTH 714 0
DWIDTH 5 0
BBX 4 5 0 0
BITMAP
A0
D0
D0
D0
A0
ENDCHAR
STARTCHAR U+044F
ENCODING 1103
SWIDTH 714 0
DWIDTH 5 0
BBX 4 5 0 0
BITMAP
60
90
70
50
90
ENDCHAR
STARTCHAR U+0450
ENCODING 1104
SWIDTH 714 0
DWIDTH 5 0
BBX 4 8 0 0
BITMAP
40
20
00
60
A0
C0
90
60
ENDCHAR
STARTCHAR U+0451
ENCODING 1105
SWIDTH 714 0
DWIDTH 5 0
BBX 4 7 0 0
BITMAP
A0
00
60
A0
C0
90
60
ENDCHAR
STARTCHAR U+0452
ENCODING 1106
SWIDTH 714 0
DWIDTH 5 0
BBX 4 10 0 -2
BITMAP
80
E0
80
A0
D0
90
90
90
10
20
ENDCHAR
STARTCHAR U+0453
ENCODING 1107
SWIDTH 714 0
DWIDTH 5 0
BBX 4 8 0 0
BITMAP
20
40
00
F0
90
80
80
80
ENDCHAR
STARTCHAR U+0454
ENCODING 1108
SWIDTH 714 0
DWIDTH 5 0
BBX 4 5 0 0
BITMAP
60
90
C0
90
60
ENDCHAR
STARTCHAR U+0455
ENCODING 1109
SWIDTH 714 0
DWIDTH 5 0
BBX 4 5 0 0
BITMAP
60
80
60
10
E0
ENDCHAR
STARTCHAR U+0456
ENCODING 1110
SWIDTH 714 0
DWIDTH 5 0
BBX 4 7 0 0
BITMAP
40
00
40
C0
40
50
20
ENDCHAR
STARTCHAR U+0457
ENCODING 1111
SWIDTH 714 0
DWIDTH 5 0
BBX 4 7 0 0
BITMAP
A0
00
40
C0
40
50
20
ENDCHAR
STARTCHAR U+0458
ENCODING 1112
SWIDTH 714 0
DWIDTH 5 0
BBX 3 10 0 -3
BITMAP
20
00
20
60
20
20
20
20
A0
40
ENDCHAR
STARTCHAR U+0459
ENCODING 1113
SWIDTH 857 0
DWIDTH 6 0
BBX 6 5 -1 0
BITMAP
70
50
58
54
88
ENDCHAR
STARTCHAR U+045A
ENCODING 1114
SWIDTH 857 0
DWIDTH 6 0
BBX 5 5 0 0
BITMAP
A0
A0
F0
A8
90
ENDCHAR
STARTCHAR U+045B
ENCODING 1115
SWIDTH 714 0
DWIDTH 5 0
BBX 4 8 0 0
BITMAP
80
E0
80
A0
D0
90
90
90
ENDCHAR
STARTCHAR U+045C
ENCODING 1116
SWIDTH 714 0
DWIDTH 5 0
BBX 4 8 0 0
BITMAP
20
40
00
90
A0
C0
A0
90
ENDCHAR
STARTCHAR U+045D
ENCODING 1117
SWIDTH 714 0
DWIDTH 5 0
BBX 4 8 0 0
BITMAP
40
20
00
90
B0
D0
90
90
ENDCHAR
STARTCHAR U+045E
ENCODING 1118
SWIDTH 714 0
DWIDTH 5 0
BBX 4 11 0 -3
BITMAP
90
60
00
90
90
90
B0
50
10
A0
C0
ENDCHAR
STARTCHAR U+045F
ENCODING 1119
SWIDTH 714 0
DWIDTH 5 0
BBX 4 7 0 -2
BITMAP
90
90
90
90
F0
20
20
ENDCHAR
STARTCHAR U+0496
ENCODING 1174
SWIDTH 714 0
DWIDTH 5 0
BBX 5 10 0 -2
BITMAP
28
A8
A8
70
A8
A8
A8
A8
08
08
ENDCHAR
STARTCHAR U+0497
ENCODING 1175
SWIDTH 714 0
DWIDTH 5 0
BBX 5 7 0 -2
BITMAP
A8
A8
70
A8
A8
08
08
ENDCHAR
STARTCHAR U+049A
ENCODING 1178
SWIDTH 714 0
DWIDTH 5 0
BBX 4 10 0 -2
BITMAP
10
A0
A0
C0
A0
A0
A0
90
10
10
ENDCHAR
STARTCHAR U+049B
ENCODING 1179
SWIDTH 714 0
DWIDTH 5 0
BBX 4 7 0 -2
BITMAP
90
A0
C0
A0
90
10
10
ENDCHAR
STARTCHAR U+04D0
ENCODING 1232
SWIDTH 714 0
DWIDTH 5 0
BBX 4 10 0 0
BITMAP
90
60
00
60
90
B0
D0
90
90
90
ENDCHAR
STARTCHAR U+04D1
ENCODING 1233
SWIDTH 714 0
DWIDTH 5 0
BBX 4 8 0 0
BITMAP
90
60
00
60
10
70
90
50
ENDCHAR
STARTCHAR U+04D2
ENCODING 1234
SWIDTH 714 0
DWIDTH 5 0
BBX 4 9 0 0
BITMAP
90
00
60
90
B0
D0
90
90
90
ENDCHAR
STARTCHAR U+04D3
ENCODING 1235
SWIDTH 714 0
DWIDTH 5 0
BBX 4 7 0 0
BITMAP
50
00
60
10
70
90
50
ENDCHAR
STARTCHAR U+04D4
ENCODING 1236
SWIDTH 714 0
DWIDTH 5 0
BBX 4 8 0 0
BITMAP
70
A0
A0
F0
A0
A0
A0
B0
ENDCHAR
STARTCHAR U+04D5
ENCODING 1237
SWIDTH 714 0
DWIDTH 5 0
BBX 6 5 -1 0
BITMAP
50
28
70
A4
58
ENDCHAR
STARTCHAR U+04D6
ENCODING 1238
SWIDTH 714 0
DWIDTH 5 0
BBX 4 10 0 0
BITMAP
90
60
00
60
80
40
80
80
90
60
ENDCHAR
STARTCHAR U+04D7
ENCODING 1239
SWIDTH 714 0
DWIDTH 5 0
BBX 4 8 0 0
BITMAP
90
60
00
60
A0
C0
90
60
ENDCHAR
STARTCHAR U+04DC
ENCODING 1244
SWIDTH 714 0
DWIDTH 5 0
BBX 5 9 0 0
BITMAP
50
00
A8
A8
A8
70
A8
A8
A8
ENDCHAR
STARTCHAR U+04DD
ENCODING 1245
SWIDTH 714 0
DWIDTH 5 0
BBX 5 7 0 0
BITMAP
50
00
A8
A8
70
A8
A8
ENDCHAR
STARTCHAR U+04DE
ENCODING 1246
SWIDTH 714 0
DWIDTH 5 0
BBX 4 9 0 0
BITMAP
50
00
60
10
20
10
10
90
60
ENDCHAR
STARTCHAR U+04DF
ENCODING 1247
SWIDTH 714 0
DWIDTH 5 0
BBX 4 7 0 0
BITMAP
50
00
60
10
20
90
60
ENDCHAR
STARTCHAR U+04E0
ENCODING 1248
SWIDTH 714 0
DWIDTH 5 0
BBX 4 8 0 0
BITMAP
F0
90
20
60
10
10
90
60
ENDCHAR
STARTCHAR U+04E1
ENCODING 1249
SWIDTH 714 0
DWIDTH 5 0
BBX 4 8 0 -3
BITMAP
F0
90
20
60
10
10
90
60
ENDCHAR
STARTCHAR U+04E2
ENCODING 1250
SWIDTH 714 0
DWIDTH 5 0
BBX 4 9 0 0
BITMAP
F0
00
90
B0
B0
D0
D0
90
90
ENDCHAR
STARTCHAR U+04E3
ENCODING 1251
SWIDTH 714 0
DWIDTH 5 0
BBX 4 7 0 0
BITMAP
F0
00
90
B0
D0
90
90
ENDCHAR
STARTCHAR U+04E4
ENCODING 1252
SWIDTH 714 0
DWIDTH 5 0
BBX 4 9 0 0
BITMAP
90
00
90
B0
B0
D0
D0
90
90
ENDCHAR
STARTCHAR U+04E5
ENCODING 1253
SWIDTH 714 0
DWIDTH 5 0
BBX 4 7 0 0
BITMAP
90
00
90
B0
D0
90
90
ENDCHAR
STARTCHAR U+04E6
ENCODING 1254
SWIDTH 714 0
DWIDTH 5 0
BBX 4 9 0 0
BITMAP
90
00
60
90
90
90
90
90
60
ENDCHAR
STARTCHAR U+04E7
ENCODING 1255
SWIDTH 714 0
DWIDTH 5 0
BBX 4 7 0 0
BITMAP
90
00
60
90
90
90
60
ENDCHAR
STARTCHAR U+04E8
ENCODING 1256
SWIDTH 714 0
DWIDTH 5 0
BBX 4 8 0 0
BITMAP
60
90
90
F0
90
90
90
60
ENDCHAR
STARTCHAR U+04E9
ENCODING 1257
SWIDTH 714 0
DWIDTH 5 0
BBX 4 5 0 0
BITMAP
60
90
F0
90
60
ENDCHAR
STARTCHAR U+04EA
ENCODING 1258
SWIDTH 714 0
DWIDTH 5 0
BBX 4 9 0 0
BITMAP
90
00
60
90
90
F0
90
90
60
ENDCHAR
STARTCHAR U+04EB
ENCODING 1259
SWIDTH 714 0
DWIDTH 5 0
BBX 4 7 0 0
BITMAP
90
00
60
90
F0
90
60
ENDCHAR
STARTCHAR U+04EC
ENCODING 1260
SWIDTH 714 0
DWIDTH 5 0
BBX 4 9 0 0
BITMAP
50
00
60
90
10
70
10
90
60
ENDCHAR
STARTCHAR U+04ED
ENCODING 1261
SWIDTH 714 0
DWIDTH 5 0
BBX 4 7 0 0
BITMAP
50
00
60
10
30
90
60
ENDCHAR
STARTCHAR U+04EE
ENCODING 1262
SWIDTH 714 0
DWIDTH 5 0
BBX 4 9 0 0
BITMAP
F0
00
90
50
50
30
10
A0
C0
ENDCHAR
STARTCHAR U+04EF
ENCODING 1263
SWIDTH 714 0
DWIDTH 5 0
BBX 4 10 0 -3
BITMAP
F0
00
90
90
90
B0
50
10
A0
C0
ENDCHAR
STARTCHAR U+04F0
ENCODING 1264
SWIDTH 714 0
DWIDTH 5 0
BBX 4 9 0 0
BITMAP
90
00
90
50
50
30
10
A0
C0
ENDCHAR
STARTCHAR U+04F1
ENCODING 1265
SWIDTH 714 0
DWIDTH 5 0
BBX 4 10 0 -3
BITMAP
90
00
90
90
90
B0
50
10
A0
C0
ENDCHAR
STARTCHAR U+04F2
ENCODING 1266
SWIDTH 714 0
DWIDTH 5 0
BBX 4 10 0 0
BITMAP
50
A0
00
90
50
50
30
10
A0
C0
ENDCHAR
STARTCHAR U+04F3
ENCODING 1267
SWIDTH 714 0
DWIDTH 5 0
BBX 4 11 0 -3
BITMAP
50
A0
00
90
90
90
B0
50
10
A0
C0
ENDCHAR
STARTCHAR U+04F4
ENCODING 1268
SWIDTH 714 0
DWIDTH 5 0
BBX 4 9 0 0
BITMAP
90
00
90
90
B0
50
10
10
10
ENDCHAR
STARTCHAR U+04F5
ENCODING 1269
SWIDTH 714 0
DWIDTH 5 0
BBX 4 7 0 0
BITMAP
90
00
90
90
B0
50
10
ENDCHAR
STARTCHAR U+04F6
ENCODING 1270
SWIDTH 714 0
DWIDTH 5 0
BBX 4 9 0 -1
BITMAP
F0
90
80
80
80
80
80
C0
40
ENDCHAR
STARTCHAR U+04F7
ENCODING 1271
SWIDTH 714 0
DWIDTH 5 0
BBX 4 6 0 -1
BITMAP
F0
90
80
80
C0
40
ENDCHAR
STARTCHAR U+04F8
ENCODING 1272
SWIDTH 714 0
DWIDTH 5 0
BBX 4 9 0 0
BITMAP
50
00
90
90
90
D0
B0
B0
50
ENDCHAR
STARTCHAR U+04F9
ENCODING 1273
SWIDTH 714 0
DWIDTH 5 0
BBX 4 7 0 0
BITMAP
50
00
90
90
D0
B0
50
ENDCHAR
STARTCHAR U+04FC
ENCODING 1276
SWIDTH 714 0
DWIDTH 5 0
BBX 4 11 0 -3
BITMAP
10
A0
A0
60
50
50
50
90
10
10
20
ENDCHAR
STARTCHAR U+04FD
ENCODING 1277
SWIDTH 714 0
DWIDTH 5 0
BBX 4 8 0 -3
BITMAP
90
A0
60
50
90
10
10
20
ENDCHAR
STARTCHAR U+0F3C
ENCODING 3900
SWIDTH 714 0
DWIDTH 5 0
BBX 5 11 0 -2
BITMAP
10
28
20
20
20
20
20
20
20
40
80
ENDCHAR
STARTCHAR U+0F3D
ENCODING 3901
SWIDTH 714 0
DWIDTH 5 0
BBX 5 11 0 -2
BITMAP
40
A0
20
20
20
20
20
20
20
10
08
ENDCHAR
STARTCHAR U+1E9E
ENCODING 7838
SWIDTH 714 0
DWIDTH 5 0
BBX 4 8 0 0
BITMAP
60
90
90
A0
90
90
90
A0
ENDCHAR
STARTCHAR U+2010
ENCODING 8208
SWIDTH 714 0
DWIDTH 5 0
BBX 3 1 0 3
BITMAP
E0
ENDCHAR
STARTCHAR U+2011
ENCODING 8209
SWIDTH 714 0
DWIDTH 5 0
BBX 3 1 0 3
BITMAP
E0
ENDCHAR
STARTCHAR U+2012
ENCODING 8210
SWIDTH 714 0
DWIDTH 5 0
BBX 4 1 0 3
BITMAP
F0
ENDCHAR
STARTCHAR U+2013
ENCODING 8211
SWIDTH 714 0
DWIDTH 5 0
BBX 4 1 0 3
BITMAP
F0
ENDCHAR
STARTCHAR U+2014
ENCODING 8212
SWIDTH 714 0
DWIDTH 5 0
BBX 5 1 0 3
BITMAP
F8
ENDCHAR
STARTCHAR U+2015
ENCODING 8213
SWIDTH 714 0
DWIDTH 5 0
BBX 5 1 0 3
BITMAP
F8
ENDCHAR
STARTCHAR U+2016
ENCODING 8214
SWIDTH 714 0
DWIDTH 5 0
BBX 3 8 1 0
BITMAP
A0
A0
A0
A0
A0
A0
A0
A0
ENDCHAR
STARTCHAR U+2017
ENCODING 8215
SWIDTH 714 0
DWIDTH 5 0
BBX 4 3 0 -1
BITMAP
F0
00
F0
ENDCHAR
STARTCHAR U+2018
ENCODING 8216
SWIDTH 714 0
DWIDTH 5 0
BBX 2 3 1 5
BITMAP
80
80
40
ENDCHAR
STARTCHAR U+2019
ENCODING 8217
SWIDTH 714 0
DWIDTH 5 0
BBX 2 3 1 5
BITMAP
40
40
80
ENDCHAR
STARTCHAR U+201A
ENCODING 8218
SWIDTH 714 0
DWIDTH 5 0
BBX 2 3 2 -2
BITMAP
40
40
80
ENDCHAR
STARTCHAR U+201B
ENCODING 8219
SWIDTH 714 0
DWIDTH 5 0
BBX 2 3 1 5
BITMAP
80
80
40
ENDCHAR
STARTCHAR U+201C
ENCODING 8220
SWIDTH 714 0
DWIDTH 5 0
BBX 4 3 0 5
BITMAP
A0
A0
50
ENDCHAR
STARTCHAR U+201D
ENCODING 8221
SWIDTH 714 0
DWIDTH 5 0
BBX 4 3 0 5
BITMAP
50
50
A0
ENDCHAR
STARTCHAR U+201E
ENCODING 8222
SWIDTH 714 0
DWIDTH 5 0
BBX 4 3 0 0
BITMAP
50
50
A0
ENDCHAR
STARTCHAR U+201F
ENCODING 8223
SWIDTH 714 0
DWIDTH 5 0
BBX 4 3 0 5
BITMAP
50
A0
A0
ENDCHAR
STARTCHAR U+2020
ENCODING 8224
SWIDTH 714 0
DWIDTH 5 0
BBX 3 7 0 0
BITMAP
40
40
E0
40
40
40
40
ENDCHAR
STARTCHAR U+2021
ENCODING 8225
SWIDTH 714 0
DWIDTH 5 0
BBX 3 7 0 0
BITMAP
40
40
E0
40
E0
40
40
ENDCHAR
STARTCHAR U+2022
ENCODING 8226
SWIDTH 714 0
DWIDTH 5 0
BBX 3 3 1 2
BITMAP
40
E0
40
ENDCHAR
STARTCHAR U+2023
ENCODING 8227
SWIDTH 714 0
DWIDTH 5 0
BBX 2 3 1 2
BITMAP
80
C0
80
ENDCHAR
STARTCHAR U+2024
ENCODING 8228
SWIDTH 714 0
DWIDTH 5 0
BBX 1 1 2 0
BITMAP
80
ENDCHAR
STARTCHAR U+2025
ENCODING 8229
SWIDTH 714 0
DWIDTH 5 0
BBX 3 1 1 0
BITMAP
A0
ENDCHAR
STARTCHAR U+2026
ENCODING 8230
SWIDTH 714 0
DWIDTH 5 0
BBX 5 1 0 0
BITMAP
A8
ENDCHAR
STARTCHAR U+2027
ENCODING 8231
SWIDTH 714 0
DWIDTH 5 0
BBX 1 1 2 3
BITMAP
80
ENDCHAR
STARTCHAR U+2030
ENCODING 8240
SWIDTH 714 0
DWIDTH 5 0
BBX 5 5 0 1
BITMAP
90
20
40
80
28
ENDCHAR
STARTCHAR U+2031
ENCODING 8241
SWIDTH 714 0
DWIDTH 5 0
BBX 4 6 0 0
BITMAP
90
20
40
90
00
50
ENDCHAR
STARTCHAR U+2032
ENCODING 8242
SWIDTH 714 0
DWIDTH 5 0
BBX 2 2 1 6
BITMAP
40
80
ENDCHAR
STARTCHAR U+2033
ENCODING 8243
SWIDTH 714 0
DWIDTH 5 0
BBX 4 2 1 6
BITMAP
50
A0
ENDCHAR
STARTCHAR U+2034
ENCODING 8244
SWIDTH 714 0
DWIDTH 5 0
BBX 5 2 0 6
BITMAP
50
A8
ENDCHAR
STARTCHAR U+2035
ENCODING 8245
SWIDTH 714 0
DWIDTH 5 0
BBX 2 2 1 6
BITMAP
80
40
ENDCHAR
STARTCHAR U+2036
ENCODING 8246
SWIDTH 714 0
DWIDTH 5 0
BBX 4 2 1 6
BITMAP
A0
50
ENDCHAR
STARTCHAR U+2037
ENCODING 8247
SWIDTH 714 0
DWIDTH 5 0
BBX 5 2 0 6
BITMAP
A8
50
ENDCHAR
STARTCHAR U+2038
ENCODING 8248
SWIDTH 714 0
DWIDTH 5 0
BBX 3 2 0 0
BITMAP
40
A0
ENDCHAR
STARTCHAR U+2039
ENCODING 8249
SWIDTH 714 0
DWIDTH 5 0
BBX 3 5 0 1
BITMAP
20
40
80
40
20
ENDCHAR
STARTCHAR U+203A
ENCODING 8250
SWIDTH 714 0
DWIDTH 5 0
BBX 3 5 1 1
BITMAP
80
40
20
40
80
ENDCHAR
STARTCHAR U+203B
ENCODING 8251
SWIDTH 714 0
DWIDTH 5 0
BBX 3 3 1 2
BITMAP
A0
40
A0
ENDCHAR
STARTCHAR U+203C
ENCODING 8252
SWIDTH 714 0
DWIDTH 5 0
BBX 3 8 0 0
BITMAP
A0
A0
A0
A0
A0
A0
00
A0
ENDCHAR
STARTCHAR U+203D
ENCODING 8253
SWIDTH 714 0
DWIDTH 5 0
BBX 4 8 0 0
BITMAP
60
D0
50
60
40
40
00
40
ENDCHAR
STARTCHAR U+203E
ENCODING 8254
SWIDTH 714 0
DWIDTH 5 0
BBX 5 1 0 7
BITMAP
F8
ENDCHAR
STARTCHAR U+203F
ENCODING 8255
SWIDTH 714 0
DWIDTH 5 0
BBX 4 2 0 -1
BITMAP
90
60
ENDCHAR
STARTCHAR U+2040
ENCODING 8256
SWIDTH 714 0
DWIDTH 5 0
BBX 4 2 0 7
BITMAP
60
90
ENDCHAR
STARTCHAR U+2041
ENCODING 8257
SWIDTH 714 0
DWIDTH 5 0
BBX 4 4 0 -1
BITMAP
10
20
40
A0
ENDCHAR
STARTCHAR U+2042
ENCODING 8258
SWIDTH 714 0
DWIDTH 5 0
BBX 3 3 0 2
BITMAP
40
00
A0
ENDCHAR
STARTCHAR U+2043
ENCODING 8259
SWIDTH 714 0
DWIDTH 5 0
BBX 3 2 0 2
BITMAP
E0
E0
ENDCHAR
STARTCHAR U+2044
ENCODING 8260
SWIDTH 714 0
DWIDTH 5 0
BBX 5 8 0 0
BITMAP
08
10
10
20
20
40
40
80
ENDCHAR
STARTCHAR U+2045
ENCODING 8261
SWIDTH 714 0
DWIDTH 5 0
BBX 3 11 0 -2
BITMAP
E0
80
80
80
80
E0
80
80
80
80
E0
ENDCHAR
STARTCHAR U+2046
ENCODING 8262
SWIDTH 714 0
DWIDTH 5 0
BBX 3 11 1 -2
BITMAP
E0
20
20
20
20
E0
20
20
20
20
E0
ENDCHAR
STARTCHAR U+2047
ENCODING 8263
SWIDTH 714 0
DWIDTH 5 0
BBX 4 8 0 0
BITMAP
A0
50
50
50
A0
A0
00
A0
ENDCHAR
STARTCHAR U+2048
ENCODING 8264
SWIDTH 714 0
DWIDTH 5 0
BBX 4 8 0 0
BITMAP
90
50
50
50
90
90
00
90
ENDCHAR
STARTCHAR U+2049
ENCODING 8265
SWIDTH 714 0
DWIDTH 5 0
BBX 4 8 0 0
BITMAP
A0
90
90
90
A0
A0
00
A0
ENDCHAR
STARTCHAR U+204A
ENCODING 8266
SWIDTH 714 0
DWIDTH 5 0
BBX 4 5 0 0
BITMAP
F0
20
20
40
40
ENDCHAR
STARTCHAR U+204B
ENCODING 8267
SWIDTH 714 0
DWIDTH 5 0
BBX 4 9 0 -1
BITMAP
E0
B0
B0
B0
B0
A0
A0
A0
A0
ENDCHAR
STARTCHAR U+204C
ENCODING 8268
SWIDTH 714 0
DWIDTH 5 0
BBX 4 4 0 1
BITMAP
70
D0
D0
70
ENDCHAR
STARTCHAR U+204D
ENCODING 8269
SWIDTH 714 0
DWIDTH 5 0
BBX 4 4 0 1
BITMAP
E0
B0
B0
E0
ENDCHAR
STARTCHAR U+204E
ENCODING 8270
SWIDTH 714 0
DWIDTH 5 0
BBX 5 5 0 0
BITMAP
50
20
F8
20
50
ENDCHAR
STARTCHAR U+204F
ENCODING 8271
SWIDTH 714 0
DWIDTH 5 0
BBX 2 5 2 0
BITMAP
80
00
80
80
40
ENDCHAR
STARTCHAR U+2050
ENCODING 8272
SWIDTH 714 0
DWIDTH 5 0
BBX 4 10 0 -1
BITMAP
60
90
00
00
00
00
00
00
90
60
ENDCHAR
STARTCHAR U+2051
ENCODING 8273
SWIDTH 714 0
DWIDTH 5 0
BBX 3 7 0 0
BITMAP
A0
40
A0
00
A0
40
A0
ENDCHAR
STARTCHAR U+2052
ENCODING 8274
SWIDTH 714 0
DWIDTH 5 0
BBX 4 8 0 0
BITMAP
90
20
20
20
40
40
40
90
ENDCHAR
STARTCHAR U+2053
ENCODING 8275
SWIDTH 714 0
DWIDTH 5 0
BBX 5 3 0 2
BITMAP
48
A8
90
ENDCHAR
STARTCHAR U+2054
ENCODING 8276
SWIDTH 714 0
DWIDTH 5 0
BBX 4 2 0 -2
BITMAP
60
90
ENDCHAR
STARTCHAR U+2055
ENCODING 8277
SWIDTH 714 0
DWIDTH 5 0
BBX 5 7 0 0
BITMAP
20
A8
70
F8
70
A8
20
ENDCHAR
STARTCHAR U+2056
ENCODING 8278
SWIDTH 714 0
DWIDTH 5 0
BBX 3 5 1 1
BITMAP
20
00
80
00
20
ENDCHAR
STARTCHAR U+2057
ENCODING 8279
SWIDTH 714 0
DWIDTH 5 0
BBX 5 2 0 6
BITMAP
78
F0
ENDCHAR
STARTCHAR U+2058
ENCODING 8280
SWIDTH 714 0
DWIDTH 5 0
BBX 5 5 0 1
BITMAP
20
00
88
00
20
ENDCHAR
STARTCHAR U+2059
ENCODING 8281
SWIDTH 714 0
DWIDTH 5 0
BBX 3 5 1 1
BITMAP
A0
00
40
00
A0
ENDCHAR
STARTCHAR U+205A
ENCODING 8282
SWIDTH 714 0
DWIDTH 5 0
BBX 1 7 2 0
BITMAP
80
00
00
00
00
00
80
ENDCHAR
STARTCHAR U+205B
ENCODING 8283
SWIDTH 714 0
DWIDTH 5 0
BBX 5 7 0 0
BITMAP
20
00
00
88
00
00
20
ENDCHAR
STARTCHAR U+205C
ENCODING 8284
SWIDTH 714 0
DWIDTH 5 0
BBX 5 5 0 0
BITMAP
A8
20
F8
20
A8
ENDCHAR
STARTCHAR U+205D
ENCODING 8285
SWIDTH 714 0
DWIDTH 5 0
BBX 1 7 2 0
BITMAP
80
00
00
80
00
00
80
ENDCHAR
STARTCHAR U+205E
ENCODING 8286
SWIDTH 714 0
DWIDTH 5 0
BBX 1 7 2 0
BITMAP
80
00
80
00
80
00
80
ENDCHAR
STARTCHAR U+2070
ENCODING 8304
SWIDTH 714 0
DWIDTH 5 0
BBX 3 5 0 4
BITMAP
40
A0
A0
A0
40
ENDCHAR
STARTCHAR U+2071
ENCODING 8305
SWIDTH 714 0
DWIDTH 5 0
BBX 3 6 0 4
BITMAP
40
00
C0
40
40
20
ENDCHAR
STARTCHAR U+2074
ENCODING 8308
SWIDTH 714 0
DWIDTH 5 0
BBX 3 5 0 4
BITMAP
80
A0
E0
20
20
ENDCHAR
STARTCHAR U+2075
ENCODING 8309
SWIDTH 714 0
DWIDTH 5 0
BBX 3 5 0 4
BITMAP
E0
80
C0
20
C0
ENDCHAR
STARTCHAR U+2076
ENCODING 8310
SWIDTH 714 0
DWIDTH 5 0
BBX 3 5 0 4
BITMAP
40
80
C0
A0
40
ENDCHAR
STARTCHAR U+2077
ENCODING 8311
SWIDTH 714 0
DWIDTH 5 0
BBX 3 5 0 4
BITMAP
E0
20
40
40
40
ENDCHAR
STARTCHAR U+2078
ENCODING 8312
SWIDTH 714 0
DWIDTH 5 0
BBX 3 5 0 4
BITMAP
60
A0
40
A0
C0
ENDCHAR
STARTCHAR U+2079
ENCODING 8313
SWIDTH 714 0
DWIDTH 5 0
BBX 3 5 0 4
BITMAP
40
A0
60
20
40
ENDCHAR
STARTCHAR U+207A
ENCODING 8314
SWIDTH 714 0
DWIDTH 5 0
BBX 3 3 0 5
BITMAP
40
E0
40
ENDCHAR
STARTCHAR U+207B
ENCODING 8315
SWIDTH 714 0
DWIDTH 5 0
BBX 3 1 0 6
BITMAP
E0
ENDCHAR
STARTCHAR U+207C
ENCODING 8316
SWIDTH 714 0
DWIDTH 5 0
BBX 3 3 0 5
BITMAP
E0
00
E0
ENDCHAR
STARTCHAR U+207D
ENCODING 8317
SWIDTH 714 0
DWIDTH 5 0
BBX 2 5 1 4
BITMAP
40
80
80
80
40
ENDCHAR
STARTCHAR U+207E
ENCODING 8318
SWIDTH 714 0
DWIDTH 5 0
BBX 2 5 0 4
BITMAP
80
40
40
40
80
ENDCHAR
STARTCHAR U+207F
ENCODING 8319
SWIDTH 714 0
DWIDTH 5 0
BBX 3 3 0 5
BITMAP
C0
A0
A0
ENDCHAR
STARTCHAR U+2080
ENCODING 8320
SWIDTH 714 0
DWIDTH 5 0
BBX 3 5 0 -2
BITMAP
40
A0
A0
A0
40
ENDCHAR
STARTCHAR U+2081
ENCODING 8321
SWIDTH 714 0
DWIDTH 5 0
BBX 3 5 0 -2
BITMAP
40
C0
40
40
E0
ENDCHAR
STARTCHAR U+2082
ENCODING 8322
SWIDTH 714 0
DWIDTH 5 0
BBX 3 5 0 -2
BITMAP
40
A0
20
40
E0
ENDCHAR
STARTCHAR U+2083
ENCODING 8323
SWIDTH 714 0
DWIDTH 5 0
BBX 3 5 0 -2
BITMAP
C0
20
40
20
C0
ENDCHAR
STARTCHAR U+2084
ENCODING 8324
SWIDTH 714 0
DWIDTH 5 0
BBX 3 5 0 -2
BITMAP
80
A0
E0
20
20
ENDCHAR
STARTCHAR U+2085
ENCODING 8325
SWIDTH 714 0
DWIDTH 5 0
BBX 3 5 0 -2
BITMAP
E0
80
C0
20
C0
ENDCHAR
STARTCHAR U+2086
ENCODING 8326
SWIDTH 714 0
DWIDTH 5 0
BBX 3 5 0 -2
BITMAP
40
80
C0
A0
40
ENDCHAR
STARTCHAR U+2087
ENCODING 8327
SWIDTH 714 0
DWIDTH 5 0
BBX 3 5 0 -2
BITMAP
E0
20
40
40
40
ENDCHAR
STARTCHAR U+2088
ENCODING 8328
SWIDTH 714 0
DWIDTH 5 0
BBX 3 5 0 -2
BITMAP
60
A0
40
A0
C0
ENDCHAR
STARTCHAR U+2089
ENCODING 8329
SWIDTH 714 0
DWIDTH 5 0
BBX 3 5 0 -2
BITMAP
40
A0
60
20
40
ENDCHAR
STARTCHAR U+208A
ENCODING 8330
SWIDTH 714 0
DWIDTH 5 0
BBX 3 3 0 -1
BITMAP
40
E0
40
ENDCHAR
STARTCHAR U+208B
ENCODING 8331
SWIDTH 714 0
DWIDTH 5 0
BBX 3 1 0 0
BITMAP
E0
ENDCHAR
STARTCHAR U+208C
ENCODING 8332
SWIDTH 714 0
DWIDTH 5 0
BBX 3 3 0 -1
BITMAP
E0
00
E0
ENDCHAR
STARTCHAR U+208D
ENCODING 8333
SWIDTH 714 0
DWIDTH 5 0
BBX 2 5 1 -2
BITMAP
40
80
80
80
40
ENDCHAR
STARTCHAR U+208E
ENCODING 8334
SWIDTH 714 0
DWIDTH 5 0
BBX 2 5 0 -2
BITMAP
80
40
40
40
80
ENDCHAR
STARTCHAR U+2090
ENCODING 8336
SWIDTH 714 0
DWIDTH 5 0
BBX 3 5 0 -2
BITMAP
40
20
60
A0
60
ENDCHAR
STARTCHAR U+2091
ENCODING 8337
SWIDTH 714 0
DWIDTH 5 0
BBX 3 5 0 -2
BITMAP
40
A0
E0
80
60
ENDCHAR
STARTCHAR U+2092
ENCODING 8338
SWIDTH 714 0
DWIDTH 5 0
BBX 3 4 0 -2
BITMAP
60
A0
A0
40
ENDCHAR
STARTCHAR U+2093
ENCODING 8339
SWIDTH 714 0
DWIDTH 5 0
BBX 3 4 0 -2
BITMAP
A0
40
A0
A0
ENDCHAR
STARTCHAR U+2094
ENCODING 8340
SWIDTH 714 0
DWIDTH 5 0
BBX 3 5 0 -2
BITMAP
C0
20
E0
A0
40
ENDCHAR
STARTCHAR U+2095
ENCODING 8341
SWIDTH 714 0
DWIDTH 5 0
BBX 3 5 0 -2
BITMAP
80
80
C0
A0
A0
ENDCHAR
STARTCHAR U+2096
ENCODING 8342
SWIDTH 714 0
DWIDTH 5 0
BBX 3 5 0 -2
BITMAP
80
80
E0
C0
A0
ENDCHAR
STARTCHAR U+2097
ENCODING 8343
SWIDTH 714 0
DWIDTH 5 0
BBX 2 5 1 -2
BITMAP
80
80
80
80
40
ENDCHAR
STARTCHAR U+2098
ENCODING 8344
SWIDTH 714 0
DWIDTH 5 0
BBX 4 4 0 -2
BITMAP
E0
F0
D0
90
ENDCHAR
STARTCHAR U+2099
ENCODING 8345
SWIDTH 714 0
DWIDTH 5 0
BBX 3 4 0 -2
BITMAP
C0
A0
A0
A0
ENDCHAR
STARTCHAR U+209A
ENCODING 8346
SWIDTH 714 0
DWIDTH 5 0
BBX 3 5 0 -3
BITMAP
40
A0
C0
80
80
ENDCHAR
STARTCHAR U+209B
ENCODING 8347
SWIDTH 714 0
DWIDTH 5 0
BBX 3 4 0 -2
BITMAP
60
C0
20
C0
ENDCHAR
STARTCHAR U+209C
ENCODING 8348
SWIDTH 714 0
DWIDTH 5 0
BBX 3 5 0 -2
BITMAP
80
C0
80
A0
40
ENDCHAR
STARTCHAR U+20A0
ENCODING 8352
SWIDTH 714 0
DWIDTH 5 0
BBX 4 7 0 0
BITMAP
60
80
B0
A0
70
20
30
ENDCHAR
STARTCHAR U+20A1
ENCODING 8353
SWIDTH 714 0
DWIDTH 5 0
BBX 5 8 0 0
BITMAP
50
70
D8
D0
D0
D8
70
50
ENDCHAR
STARTCHAR U+20A2
ENCODING 8354
SWIDTH 714 0
DWIDTH 5 0
BBX 5 8 0 0
BITMAP
70
88
80
80
98
A0
A8
70
ENDCHAR
STARTCHAR U+20A3
ENCODING 8355
SWIDTH 714 0
DWIDTH 5 0
BBX 5 8 0 0
BITMAP
38
40
40
70
40
E0
40
40
ENDCHAR
STARTCHAR U+20A4
ENCODING 8356
SWIDTH 714 0
DWIDTH 5 0
BBX 4 8 0 0
BITMAP
20
50
40
E0
40
E0
40
B0
ENDCHAR
STARTCHAR U+20A5
ENCODING 8357
SWIDTH 714 0
DWIDTH 5 0
BBX 5 6 0 0
BITMAP
20
F0
A8
A8
A8
20
ENDCHAR
STARTCHAR U+20A6
ENCODING 8358
SWIDTH 714 0
DWIDTH 5 0
BBX 5 8 0 0
BITMAP
60
50
50
D8
50
D8
50
50
ENDCHAR
STARTCHAR U+20A7
ENCODING 8359
SWIDTH 714 0
DWIDTH 5 0
BBX 5 8 0 0
BITMAP
C0
A0
C0
98
F0
A8
88
B0
ENDCHAR
STARTCHAR U+20A8
ENCODING 8360
SWIDTH 714 0
DWIDTH 5 0
BBX 5 8 0 0
BITMAP
B0
D0
80
98
A0
90
88
B0
ENDCHAR
STARTCHAR U+20A9
ENCODING 8361
SWIDTH 714 0
DWIDTH 5 0
BBX 5 8 0 0
BITMAP
A8
A8
A8
F8
A8
F8
A8
50
ENDCHAR
STARTCHAR U+20AA
ENCODING 8362
SWIDTH 714 0
DWIDTH 5 0
BBX 5 5 0 0
BITMAP
E8
A8
88
A8
B8
ENDCHAR
STARTCHAR U+20AB
ENCODING 8363
SWIDTH 714 0
DWIDTH 5 0
BBX 5 7 0 0
BITMAP
18
10
70
90
70
00
70
ENDCHAR
STARTCHAR U+20AC
ENCODING 8364
SWIDTH 714 0
DWIDTH 5 0
BBX 5 7 0 0
BITMAP
38
40
F0
40
F0
40
38
ENDCHAR
STARTCHAR U+20AD
ENCODING 8365
SWIDTH 714 0
DWIDTH 5 0
BBX 4 8 0 0
BITMAP
90
A0
C0
F0
C0
A0
A0
90
ENDCHAR
STARTCHAR U+20AE
ENCODING 8366
SWIDTH 714 0
DWIDTH 5 0
BBX 5 8 0 0
BITMAP
F8
A8
20
30
60
30
60
20
ENDCHAR
STARTCHAR U+20AF
ENCODING 8367
SWIDTH 714 0
DWIDTH 5 0
BBX 5 11 0 -3
BITMAP
C0
20
90
90
90
A0
F0
28
30
20
20
ENDCHAR
STARTCHAR U+20B0
ENCODING 8368
SWIDTH 714 0
DWIDTH 5 0
BBX 4 10 0 -2
BITMAP
20
50
50
20
20
50
50
D0
10
20
ENDCHAR
STARTCHAR U+20B1
ENCODING 8369
SWIDTH 714 0
DWIDTH 5 0
BBX 5 9 0 0
BITMAP
60
50
F8
50
F8
50
60
40
40
ENDCHAR
STARTCHAR U+20B2
ENCODING 8370
SWIDTH 714 0
DWIDTH 5 0
BBX 4 12 0 -2
BITMAP
20
20
70
90
80
B0
90
90
90
60
40
40
ENDCHAR
STARTCHAR U+20B3
ENCODING 8371
SWIDTH 714 0
DWIDTH 5 0
BBX 1 5 0 0
BITMAP
80
80
80
80
80
ENDCHAR
STARTCHAR U+20B9
ENCODING 8377
SWIDTH 714 0
DWIDTH 5 0
BBX 4 8 0 0
BITMAP
F0
20
F0
20
C0
40
20
10
ENDCHAR
STARTCHAR U+20BD
ENCODING 8381
SWIDTH 714 0
DWIDTH 5 0
BBX 5 8 0 0
BITMAP
70
48
48
F0
40
E0
40
40
ENDCHAR
STARTCHAR U+20BF
ENCODING 8383
SWIDTH 714 0
DWIDTH 5 0
BBX 5 10 0 -1
BITMAP
50
F0
88
88
F0
88
88
88
F0
50
ENDCHAR
STARTCHAR U+20C0
ENCODING 8384
SWIDTH 714 0
DWIDTH 5 0
BBX 4 8 0 -2
BITMAP
60
90
80
80
90
60
00
F0
ENDCHAR
STARTCHAR U+2100
ENCODING 8448
SWIDTH 714 0
DWIDTH 5 0
BBX 4 7 0 0
BITMAP
60
A0
60
00
30
40
30
ENDCHAR
STARTCHAR U+2101
ENCODING 8449
SWIDTH 714 0
DWIDTH 5 0
BBX 4 8 0 -1
BITMAP
60
A0
60
00
30
60
10
60
ENDCHAR
STARTCHAR U+2102
ENCODING 8450
SWIDTH 714 0
DWIDTH 5 0
BBX 5 8 0 0
BITMAP
78
C8
C0
C0
C0
C0
C8
78
ENDCHAR
STARTCHAR U+2103
ENCODING 8451
SWIDTH 714 0
DWIDTH 5 0
BBX 4 9 0 0
BITMAP
80
30
50
40
40
40
40
50
20
ENDCHAR
STARTCHAR U+2104
ENCODING 8452
SWIDTH 714 0
DWIDTH 5 0
BBX 5 8 0 0
BITMAP
20
70
A0
A0
70
20
20
38
ENDCHAR
STARTCHAR U+2105
ENCODING 8453
SWIDTH 714 0
DWIDTH 5 0
BBX 4 7 0 0
BITMAP
60
80
60
00
20
50
20
ENDCHAR
STARTCHAR U+2106
ENCODING 8454
SWIDTH 714 0
DWIDTH 5 0
BBX 4 7 0 0
BITMAP
60
80
60
00
50
50
30
ENDCHAR
STARTCHAR U+2107
ENCODING 8455
SWIDTH 714 0
DWIDTH 5 0
BBX 4 7 0 0
BITMAP
60
A0
80
40
80
90
60
ENDCHAR
STARTCHAR U+2108
ENCODING 8456
SWIDTH 714 0
DWIDTH 5 0
BBX 5 7 0 0
BITMAP
70
88
08
38
08
88
70
ENDCHAR
STARTCHAR U+2109
ENCODING 8457
SWIDTH 714 0
DWIDTH 5 0
BBX 4 9 0 0
BITMAP
80
30
50
40
60
40
40
40
80
ENDCHAR
STARTCHAR U+210A
ENCODING 8458
SWIDTH 714 0
DWIDTH 5 0
BBX 5 8 0 -3
BITMAP
20
50
58
30
50
90
90
60
ENDCHAR
STARTCHAR U+210B
ENCODING 8459
SWIDTH 714 0
DWIDTH 5 0
BBX 6 8 -1 0
BITMAP
24
68
28
38
28
28
A8
4C
ENDCHAR
STARTCHAR U+210D
ENCODING 8461
SWIDTH 714 0
DWIDTH 5 0
BBX 5 8 0 0
BITMAP
D8
D8
D8
F8
D8
D8
D8
D8
ENDCHAR
STARTCHAR U+210E
ENCODING 8462
SWIDTH 714 0
DWIDTH 5 0
BBX 4 9 0 -1
BITMAP
40
80
80
C0
A0
A0
A0
A0
10
ENDCHAR
STARTCHAR U+210F
ENCODING 8463
SWIDTH 714 0
DWIDTH 5 0
BBX 4 9 0 -1
BITMAP
80
E0
80
C0
A0
A0
A0
A0
10
ENDCHAR
STARTCHAR U+2110
ENCODING 8464
SWIDTH 714 0
DWIDTH 5 0
BBX 6 8 -1 0
BITMAP
3C
48
10
10
10
10
90
60
ENDCHAR
STARTCHAR U+2112
ENCODING 8466
SWIDTH 714 0
DWIDTH 5 0
BBX 5 8 0 0
BITMAP
10
30
B0
60
20
20
48
F0
ENDCHAR
STARTCHAR U+2113
ENCODING 8467
SWIDTH 714 0
DWIDTH 5 0
BBX 4 8 0 0
BITMAP
20
60
60
40
C0
40
50
20
ENDCHAR
STARTCHAR U+2114
ENCODING 8468
SWIDTH 714 0
DWIDTH 5 0
BBX 5 8 0 0
BITMAP
A0
F0
A0
B0
A8
A8
A8
B0
ENDCHAR
STARTCHAR U+2115
ENCODING 8469
SWIDTH 714 0
DWIDTH 5 0
BBX 5 8 0 0
BITMAP
98
C8
E8
F8
B8
98
88
C8
ENDCHAR
STARTCHAR U+2116
ENCODING 8470
SWIDTH 714 0
DWIDTH 5 0
BBX 5 8 0 0
BITMAP
10
28
10
C0
A0
A0
A0
A0
ENDCHAR
STARTCHAR U+2118
ENCODING 8472
SWIDTH 714 0
DWIDTH 5 0
BBX 5 8 0 0
BITMAP
30
48
C8
50
40
40
40
80
ENDCHAR
STARTCHAR U+2119
ENCODING 8473
SWIDTH 714 0
DWIDTH 5 0
BBX 5 8 0 0
BITMAP
F0
D8
D8
F0
C0
C0
C0
E0
ENDCHAR
STARTCHAR U+211A
ENCODING 8474
SWIDTH 714 0
DWIDTH 5 0
BBX 5 10 0 -2
BITMAP
70
D8
D8
D8
D8
D8
D8
70
20
18
ENDCHAR
STARTCHAR U+211B
ENCODING 8475
SWIDTH 714 0
DWIDTH 5 0
BBX 5 9 0 -1
BITMAP
30
50
D0
60
50
50
50
90
08
ENDCHAR
STARTCHAR U+211D
ENCODING 8477
SWIDTH 714 0
DWIDTH 5 0
BBX 5 8 0 0
BITMAP
F0
D8
D8
F0
E0
D0
D8
D8
ENDCHAR
STARTCHAR U+211E
ENCODING 8478
SWIDTH 714 0
DWIDTH 5 0
BBX 5 9 0 -1
BITMAP
60
90
A0
C0
A0
A0
A8
90
28
ENDCHAR
STARTCHAR U+211F
ENCODING 8479
SWIDTH 714 0
DWIDTH 5 0
BBX 5 10 0 0
BITMAP
E0
20
70
A8
B0
E0
90
90
90
88
ENDCHAR
STARTCHAR U+2120
ENCODING 8480
SWIDTH 714 0
DWIDTH 5 0
BBX 5 7 0 2
BITMAP
30
60
10
60
88
D8
A8
ENDCHAR
STARTCHAR U+2121
ENCODING 8481
SWIDTH 714 0
DWIDTH 5 0
BBX 4 13 0 -3
BITMAP
E0
40
40
00
60
40
60
40
60
00
20
20
30
ENDCHAR
STARTCHAR U+2122
ENCODING 8482
SWIDTH 714 0
DWIDTH 5 0
BBX 5 6 0 2
BITMAP
F8
20
20
88
D8
A8
ENDCHAR
STARTCHAR U+2123
ENCODING 8483
SWIDTH 714 0
DWIDTH 5 0
BBX 5 10 0 0
BITMAP
E0
20
A8
A8
A8
48
50
50
A0
20
ENDCHAR
STARTCHAR U+2124
ENCODING 8484
SWIDTH 714 0
DWIDTH 5 0
BBX 5 8 0 0
BITMAP
F8
98
18
30
60
C0
C8
F8
ENDCHAR
STARTCHAR U+2125
ENCODING 8485
SWIDTH 714 0
DWIDTH 5 0
BBX 4 8 0 -1
BITMAP
F0
20
F0
20
60
10
90
60
ENDCHAR
STARTCHAR U+2126
ENCODING 8486
SWIDTH 714 0
DWIDTH 5 0
BBX 5 7 0 0
BITMAP
70
88
88
88
88
50
D8
ENDCHAR
STARTCHAR U+2127
ENCODING 8487
SWIDTH 714 0
DWIDTH 5 0
BBX 5 7 0 0
BITMAP
D8
50
88
88
88
88
70
ENDCHAR
STARTCHAR U+2128
ENCODING 8488
SWIDTH 714 0
DWIDTH 5 0
BBX 5 7 0 -2
BITMAP
88
50
50
20
20
50
20
ENDCHAR
STARTCHAR U+2129
ENCODING 8489
SWIDTH 714 0
DWIDTH 5 0
BBX 4 5 0 0
BITMAP
40
A0
20
30
20
ENDCHAR
STARTCHAR U+212A
ENCODING 8490
SWIDTH 714 0
DWIDTH 5 0
BBX 4 8 0 0
BITMAP
90
A0
A0
C0
A0
A0
A0
90
ENDCHAR
STARTCHAR U+212B
ENCODING 8491
SWIDTH 714 0
DWIDTH 5 0
BBX 4 10 0 0
BITMAP
20
50
20
60
90
B0
D0
90
90
90
ENDCHAR
STARTCHAR U+212C
ENCODING 8492
SWIDTH 714 0
DWIDTH 5 0
BBX 5 8 0 0
BITMAP
20
50
D0
68
48
48
48
B0
ENDCHAR
STARTCHAR U+212E
ENCODING 8494
SWIDTH 714 0
DWIDTH 5 0
BBX 5 6 0 0
BITMAP
70
88
F8
80
88
70
ENDCHAR
STARTCHAR U+212F
ENCODING 8495
SWIDTH 714 0
DWIDTH 5 0
BBX 5 5 0 0
BITMAP
30
50
E0
88
70
ENDCHAR
STARTCHAR U+2130
ENCODING 8496
SWIDTH 714 0
DWIDTH 5 0
BBX 5 8 0 0
BITMAP
30
40
40
20
40
80
88
70
ENDCHAR
STARTCHAR U+2131
ENCODING 8497
SWIDTH 714 0
DWIDTH 5 0
BBX 6 8 -1 0
BITMAP
3C
48
10
38
10
10
90
60
ENDCHAR
STARTCHAR U+2132
ENCODING 8498
SWIDTH 714 0
DWIDTH 5 0
BBX 4 8 0 0
BITMAP
10
10
10
10
70
10
90
E0
ENDCHAR
STARTCHAR U+2133
ENCODING 8499
SWIDTH 714 0
DWIDTH 5 0
BBX 6 8 -1 0
BITMAP
24
6C
6C
54
54
54
54
84
ENDCHAR
STARTCHAR U+2134
ENCODING 8500
SWIDTH 714 0
DWIDTH 5 0
BBX 5 5 0 0
BITMAP
30
48
88
90
60
ENDCHAR
STARTCHAR U+2135
ENCODING 8501
SWIDTH 714 0
DWIDTH 5 0
BBX 4 5 0 0
BITMAP
90
50
A0
A0
90
ENDCHAR
STARTCHAR U+2136
ENCODING 8502
SWIDTH 714 0
DWIDTH 5 0
BBX 4 5 0 0
BITMAP
C0
20
20
20
F0
ENDCHAR
STARTCHAR U+2137
ENCODING 8503
SWIDTH 714 0
DWIDTH 5 0
BBX 4 5 0 0
BITMAP
40
20
20
60
90
ENDCHAR
STARTCHAR U+2138
ENCODING 8504
SWIDTH 714 0
DWIDTH 5 0
BBX 4 5 0 0
BITMAP
F0
20
20
20
20
ENDCHAR
STARTCHAR U+2139
ENCODING 8505
SWIDTH 714 0
DWIDTH 5 0
BBX 4 8 0 0
BITMAP
60
60
00
60
E0
60
70
20
ENDCHAR
STARTCHAR U+213A
ENCODING 8506
SWIDTH 714 0
DWIDTH 5 0
BBX 5 5 0 0
BITMAP
68
98
90
90
60
ENDCHAR
STARTCHAR U+213B
ENCODING 8507
SWIDTH 714 0
DWIDTH 5 0
BBX 5 10 0 -2
BITMAP
E0
C0
80
A0
50
70
50
28
10
28
ENDCHAR
STARTCHAR U+213C
ENCODING 8508
SWIDTH 714 0
DWIDTH 5 0
BBX 5 5 0 0
BITMAP
F8
F8
50
50
98
ENDCHAR
STARTCHAR U+213D
ENCODING 8509
SWIDTH 714 0
DWIDTH 5 0
BBX 5 7 0 -2
BITMAP
88
D0
70
60
60
60
60
ENDCHAR
STARTCHAR U+213E
ENCODING 8510
SWIDTH 714 0
DWIDTH 5 0
BBX 5 8 0 0
BITMAP
F8
C8
C0
C0
C0
C0
C0
C0
ENDCHAR
STARTCHAR U+213F
ENCODING 8511
SWIDTH 714 0
DWIDTH 5 0
BBX 5 8 0 0
BITMAP
F8
D8
D8
D8
D8
D8
D8
D8
ENDCHAR
STARTCHAR U+2140
ENCODING 8512
SWIDTH 714 0
DWIDTH 5 0
BBX 5 13 0 -3
BITMAP
F8
C8
60
60
30
30
18
20
20
40
48
F8
F8
ENDCHAR
STARTCHAR U+2141
ENCODING 8513
SWIDTH 714 0
DWIDTH 5 0
BBX 4 8 0 0
BITMAP
60
90
90
90
D0
10
90
60
ENDCHAR
STARTCHAR U+2142
ENCODING 8514
SWIDTH 714 0
DWIDTH 5 0
BBX 4 8 0 0
BITMAP
F0
10
10
10
10
10
10
10
ENDCHAR
STARTCHAR U+2143
ENCODING 8515
SWIDTH 714 0
DWIDTH 5 0
BBX 4 8 0 0
BITMAP
10
10
10
10
10
10
10
F0
ENDCHAR
STARTCHAR U+2144
ENCODING 8516
SWIDTH 714 0
DWIDTH 5 0
BBX 4 8 0 0
BITMAP
40
40
40
40
40
A0
A0
90
ENDCHAR
STARTCHAR U+2145
ENCODING 8517
SWIDTH 714 0
DWIDTH 5 0
BBX 5 8 0 0
BITMAP
F0
68
68
68
C8
C8
D0
E0
ENDCHAR
STARTCHAR U+2146
ENCODING 8518
SWIDTH 714 0
DWIDTH 5 0
BBX 5 8 0 0
BITMAP
38
18
18
58
B8
B0
B0
78
ENDCHAR
STARTCHAR U+2147
ENCODING 8519
SWIDTH 714 0
DWIDTH 5 0
BBX 5 5 0 0
BITMAP
30
58
F8
C0
70
ENDCHAR
STARTCHAR U+2148
ENCODING 8520
SWIDTH 714 0
DWIDTH 5 0
BBX 3 8 1 0
BITMAP
60
60
00
E0
60
C0
C0
E0
ENDCHAR
STARTCHAR U+2149
ENCODING 8521
SWIDTH 714 0
DWIDTH 5 0
BBX 4 11 0 -3
BITMAP
30
30
00
30
30
30
30
60
60
C0
80
ENDCHAR
STARTCHAR U+214A
ENCODING 8522
SWIDTH 714 0
DWIDTH 5 0
BBX 5 8 0 0
BITMAP
20
F0
A8
A8
B0
A0
20
38
ENDCHAR
STARTCHAR U+214B
ENCODING 8523
SWIDTH 714 0
DWIDTH 5 0
BBX 5 8 0 0
BITMAP
B0
48
48
68
D0
08
28
30
ENDCHAR
STARTCHAR U+214C
ENCODING 8524
SWIDTH 714 0
DWIDTH 5 0
BBX 6 8 -1 0
BITMAP
08
D4
54
78
D0
50
50
20
ENDCHAR
STARTCHAR U+214D
ENCODING 8525
SWIDTH 714 0
DWIDTH 5 0
BBX 4 9 0 -1
BITMAP
40
A0
E0
A0
00
30
60
10
60
ENDCHAR
STARTCHAR U+214E
ENCODING 8526
SWIDTH 714 0
DWIDTH 5 0
BBX 4 5 0 0
BITMAP
10
10
70
10
F0
ENDCHAR
STARTCHAR U+2150
ENCODING 8528
SWIDTH 714 0
DWIDTH 5 0
BBX 3 11 1 -2
BITMAP
40
C0
40
40
E0
00
E0
20
40
40
40
ENDCHAR
STARTCHAR U+2151
ENCODING 8529
SWIDTH 714 0
DWIDTH 5 0
BBX 3 11 1 -2
BITMAP
40
C0
40
40
E0
00
40
A0
60
20
40
ENDCHAR
STARTCHAR U+2152
ENCODING 8530
SWIDTH 714 0
DWIDTH 5 0
BBX 5 11 0 -2
BITMAP
20
60
20
20
70
00
50
E8
68
68
50
ENDCHAR
STARTCHAR U+2153
ENCODING 8531
SWIDTH 714 0
DWIDTH 5 0
BBX 3 11 1 -2
BITMAP
40
C0
40
40
E0
00
C0
20
40
20
C0
ENDCHAR
STARTCHAR U+2154
ENCODING 8532
SWIDTH 714 0
DWIDTH 5 0
BBX 3 11 1 -2
BITMAP
40
A0
20
40
E0
00
C0
20
40
20
C0
ENDCHAR
STARTCHAR U+2155
ENCODING 8533
SWIDTH 714 0
DWIDTH 5 0
BBX 3 11 1 -2
BITMAP
40
C0
40
40
E0
00
E0
80
C0
20
C0
ENDCHAR
STARTCHAR U+2156
ENCODING 8534
SWIDTH 714 0
DWIDTH 5 0
BBX 3 11 1 -2
BITMAP
40
A0
20
40
E0
00
E0
80
C0
20
C0
ENDCHAR
STARTCHAR U+2157
ENCODING 8535
SWIDTH 714 0
DWIDTH 5 0
BBX 3 11 1 -2
BITMAP
C0
20
40
20
C0
00
E0
80
C0
20
C0
ENDCHAR
STARTCHAR U+2158
ENCODING 8536
SWIDTH 714 0
DWIDTH 5 0
BBX 3 11 1 -2
BITMAP
80
A0
E0
20
20
00
E0
80
C0
20
C0
ENDCHAR
STARTCHAR U+2159
ENCODING 8537
SWIDTH 714 0
DWIDTH 5 0
BBX 3 11 1 -2
BITMAP
40
C0
40
40
E0
00
40
80
C0
A0
40
ENDCHAR
STARTCHAR U+215A
ENCODING 8538
SWIDTH 714 0
DWIDTH 5 0
BBX 3 11 1 -2
BITMAP
E0
80
C0
20
C0
00
40
80
C0
A0
40
ENDCHAR
STARTCHAR U+215B
ENCODING 8539
SWIDTH 714 0
DWIDTH 5 0
BBX 3 11 1 -2
BITMAP
40
C0
40
40
E0
00
60
A0
40
A0
C0
ENDCHAR
STARTCHAR U+215C
ENCODING 8540
SWIDTH 714 0
DWIDTH 5 0
BBX 3 11 1 -2
BITMAP
C0
20
40
20
C0
00
60
A0
40
A0
C0
ENDCHAR
STARTCHAR U+215D
ENCODING 8541
SWIDTH 714 0
DWIDTH 5 0
BBX 3 11 1 -2
BITMAP
E0
80
C0
20
C0
00
60
A0
40
A0
C0
ENDCHAR
STARTCHAR U+215E
ENCODING 8542
SWIDTH 714 0
DWIDTH 5 0
BBX 3 11 1 -2
BITMAP
E0
20
40
40
40
00
60
A0
40
A0
C0
ENDCHAR
STARTCHAR U+215F
ENCODING 8543
SWIDTH 714 0
DWIDTH 5 0
BBX 3 6 1 3
BITMAP
40
C0
40
E0
00
E0
ENDCHAR
STARTCHAR U+2189
ENCODING 8585
SWIDTH 714 0
DWIDTH 5 0
BBX 3 11 1 -2
BITMAP
40
A0
A0
A0
40
00
C0
20
40
20
C0
ENDCHAR
STARTCHAR U+218A
ENCODING 8586
SWIDTH 714 0
DWIDTH 5 0
BBX 4 8 1 0
BITMAP
F0
90
20
40
80
80
90
60
ENDCHAR
STARTCHAR U+218B
ENCODING 8587
SWIDTH 714 0
DWIDTH 5 0
BBX 4 8 1 0
BITMAP
60
90
80
80
40
80
90
60
ENDCHAR
STARTCHAR U+2190
ENCODING 8592
SWIDTH 714 0
DWIDTH 5 0
BBX 5 5 0 1
BITMAP
20
40
F8
40
20
ENDCHAR
STARTCHAR U+2191
ENCODING 8593
SWIDTH 714 0
DWIDTH 5 0
BBX 5 5 0 1
BITMAP
20
70
A8
20
20
ENDCHAR
STARTCHAR U+2192
ENCODING 8594
SWIDTH 714 0
DWIDTH 5 0
BBX 5 5 0 1
BITMAP
20
10
F8
10
20
ENDCHAR
STARTCHAR U+2193
ENCODING 8595
SWIDTH 714 0
DWIDTH 5 0
BBX 5 5 0 1
BITMAP
20
20
A8
70
20
ENDCHAR
STARTCHAR U+2194
ENCODING 8596
SWIDTH 714 0
DWIDTH 5 0
BBX 5 3 0 2
BITMAP
50
F8
50
ENDCHAR
STARTCHAR U+2195
ENCODING 8597
SWIDTH 714 0
DWIDTH 5 0
BBX 3 7 1 0
BITMAP
40
E0
40
40
40
E0
40
ENDCHAR
STARTCHAR U+2196
ENCODING 8598
SWIDTH 714 0
DWIDTH 5 0
BBX 5 5 0 1
BITMAP
E0
C0
A0
10
08
ENDCHAR
STARTCHAR U+2197
ENCODING 8599
SWIDTH 714 0
DWIDTH 5 0
BBX 5 5 0 1
BITMAP
38
18
28
40
80
ENDCHAR
STARTCHAR U+2198
ENCODING 8600
SWIDTH 714 0
DWIDTH 5 0
BBX 5 5 0 1
BITMAP
80
40
28
18
38
ENDCHAR
STARTCHAR U+2199
ENCODING 8601
SWIDTH 714 0
DWIDTH 5 0
BBX 5 5 0 1
BITMAP
08
10
A0
C0
E0
ENDCHAR
STARTCHAR U+219A
ENCODING 8602
SWIDTH 714 0
DWIDTH 5 0
BBX 5 3 0 2
BITMAP
90
F8
A0
ENDCHAR
STARTCHAR U+219B
ENCODING 8603
SWIDTH 714 0
DWIDTH 5 0
BBX 5 3 0 2
BITMAP
28
F8
48
ENDCHAR
STARTCHAR U+219C
ENCODING 8604
SWIDTH 714 0
DWIDTH 5 0
BBX 5 3 0 2
BITMAP
50
E8
40
ENDCHAR
STARTCHAR U+219D
ENCODING 8605
SWIDTH 714 0
DWIDTH 5 0
BBX 5 3 0 2
BITMAP
10
B8
50
ENDCHAR
STARTCHAR U+219E
ENCODING 8606
SWIDTH 714 0
DWIDTH 5 0
BBX 5 3 0 2
BITMAP
60
F8
60
ENDCHAR
STARTCHAR U+219F
ENCODING 8607
SWIDTH 714 0
DWIDTH 5 0
BBX 3 7 1 0
BITMAP
40
E0
E0
40
40
40
40
ENDCHAR
STARTCHAR U+21A0
ENCODING 8608
SWIDTH 714 0
DWIDTH 5 0
BBX 5 3 0 2
BITMAP
30
F8
30
ENDCHAR
STARTCHAR U+21A1
ENCODING 8609
SWIDTH 714 0
DWIDTH 5 0
BBX 3 7 1 0
BITMAP
40
40
40
40
E0
E0
40
ENDCHAR
STARTCHAR U+21A2
ENCODING 8610
SWIDTH 714 0
DWIDTH 5 0
BBX 5 3 0 2
BITMAP
48
F0
48
ENDCHAR
STARTCHAR U+21A3
ENCODING 8611
SWIDTH 714 0
DWIDTH 5 0
BBX 5 3 0 2
BITMAP
90
78
90
ENDCHAR
STARTCHAR U+21A4
ENCODING 8612
SWIDTH 714 0
DWIDTH 5 0
BBX 5 5 0 1
BITMAP
20
48
F8
48
20
ENDCHAR
STARTCHAR U+21A5
ENCODING 8613
SWIDTH 714 0
DWIDTH 5 0
BBX 5 5 0 1
BITMAP
20
70
A8
20
70
ENDCHAR
STARTCHAR U+21A6
ENCODING 8614
SWIDTH 714 0
DWIDTH 5 0
BBX 5 5 0 1
BITMAP
20
90
F8
90
20
ENDCHAR
STARTCHAR U+21A7
ENCODING 8615
SWIDTH 714 0
DWIDTH 5 0
BBX 5 5 0 1
BITMAP
70
20
A8
70
20
ENDCHAR
STARTCHAR U+21A8
ENCODING 8616
SWIDTH 714 0
DWIDTH 5 0
BBX 3 9 1 -2
BITMAP
40
E0
40
40
40
E0
40
00
E0
ENDCHAR
STARTCHAR U+21A9
ENCODING 8617
SWIDTH 714 0
DWIDTH 5 0
BBX 5 4 0 1
BITMAP
10
48
F0
40
ENDCHAR
STARTCHAR U+21AA
ENCODING 8618
SWIDTH 714 0
DWIDTH 5 0
BBX 5 4 0 1
BITMAP
40
90
78
10
ENDCHAR
STARTCHAR U+21AB
ENCODING 8619
SWIDTH 714 0
DWIDTH 5 0
BBX 5 4 0 0
BITMAP
58
F8
50
10
ENDCHAR
STARTCHAR U+21AC
ENCODING 8620
SWIDTH 714 0
DWIDTH 5 0
BBX 5 4 0 0
BITMAP
D0
F8
50
40
ENDCHAR
STARTCHAR U+21AD
ENCODING 8621
SWIDTH 714 0
DWIDTH 5 0
BBX 5 3 0 2
BITMAP
40
F8
10
ENDCHAR
STARTCHAR U+21AF
ENCODING 8623
SWIDTH 714 0
DWIDTH 5 0
BBX 3 8 1 -1
BITMAP
40
40
80
E0
20
40
E0
40
ENDCHAR
STARTCHAR U+21B0
ENCODING 8624
SWIDTH 714 0
DWIDTH 5 0
BBX 4 8 0 0
BITMAP
40
F0
50
10
10
10
10
10
ENDCHAR
STARTCHAR U+21B1
ENCODING 8625
SWIDTH 714 0
DWIDTH 5 0
BBX 4 8 0 0
BITMAP
20
F0
A0
80
80
80
80
80
ENDCHAR
STARTCHAR U+21B2
ENCODING 8626
SWIDTH 714 0
DWIDTH 5 0
BBX 4 8 0 0
BITMAP
10
10
10
10
10
50
F0
40
ENDCHAR
STARTCHAR U+21B3
ENCODING 8627
SWIDTH 714 0
DWIDTH 5 0
BBX 4 8 0 0
BITMAP
80
80
80
80
80
A0
F0
20
ENDCHAR
STARTCHAR U+21B4
ENCODING 8628
SWIDTH 714 0
DWIDTH 5 0
BBX 4 5 0 0
BITMAP
E0
20
20
70
20
ENDCHAR
STARTCHAR U+21B5
ENCODING 8629
SWIDTH 714 0
DWIDTH 5 0
BBX 5 4 0 1
BITMAP
08
48
F8
40
ENDCHAR
STARTCHAR U+21B6
ENCODING 8630
SWIDTH 714 0
DWIDTH 5 0
BBX 5 4 0 2
BITMAP
30
48
E0
40
ENDCHAR
STARTCHAR U+21B7
ENCODING 8631
SWIDTH 714 0
DWIDTH 5 0
BBX 5 4 0 2
BITMAP
60
90
38
10
ENDCHAR
STARTCHAR U+21B8
ENCODING 8632
SWIDTH 714 0
DWIDTH 5 0
BBX 5 7 0 0
BITMAP
F8
00
E0
C0
A0
10
08
ENDCHAR
STARTCHAR U+21B9
ENCODING 8633
SWIDTH 714 0
DWIDTH 5 0
BBX 5 7 0 0
BITMAP
28
F8
28
00
A0
F8
A0
ENDCHAR
STARTCHAR U+21BA
ENCODING 8634
SWIDTH 714 0
DWIDTH 5 0
BBX 5 6 0 1
BITMAP
18
50
88
88
88
70
ENDCHAR
STARTCHAR U+21BB
ENCODING 8635
SWIDTH 714 0
DWIDTH 5 0
BBX 5 6 0 1
BITMAP
C0
50
88
88
88
70
ENDCHAR
STARTCHAR U+21BC
ENCODING 8636
SWIDTH 714 0
DWIDTH 5 0
BBX 5 2 0 3
BITMAP
40
F8
ENDCHAR
STARTCHAR U+21BD
ENCODING 8637
SWIDTH 714 0
DWIDTH 5 0
BBX 5 2 0 1
BITMAP
F8
40
ENDCHAR
STARTCHAR U+21BE
ENCODING 8638
SWIDTH 714 0
DWIDTH 5 0
BBX 2 5 2 1
BITMAP
80
C0
80
80
80
ENDCHAR
STARTCHAR U+21BF
ENCODING 8639
SWIDTH 714 0
DWIDTH 5 0
BBX 2 5 0 1
BITMAP
40
C0
40
40
40
ENDCHAR
STARTCHAR U+21C0
ENCODING 8640
SWIDTH 714 0
DWIDTH 5 0
BBX 5 2 0 3
BITMAP
10
F8
ENDCHAR
STARTCHAR U+21C1
ENCODING 8641
SWIDTH 714 0
DWIDTH 5 0
BBX 5 2 0 1
BITMAP
F8
10
ENDCHAR
STARTCHAR U+21C2
ENCODING 8642
SWIDTH 714 0
DWIDTH 5 0
BBX 2 5 2 1
BITMAP
80
80
80
C0
80
ENDCHAR
STARTCHAR U+21C3
ENCODING 8643
SWIDTH 714 0
DWIDTH 5 0
BBX 2 5 0 1
BITMAP
40
40
40
C0
40
ENDCHAR
STARTCHAR U+21C4
ENCODING 8644
SWIDTH 714 0
DWIDTH 5 0
BBX 5 6 0 1
BITMAP
10
F8
10
40
F8
40
ENDCHAR
STARTCHAR U+21C5
ENCODING 8645
SWIDTH 714 0
DWIDTH 5 0
BBX 5 9 0 -1
BITMAP
40
E0
40
50
50
50
10
38
10
ENDCHAR
STARTCHAR U+21C6
ENCODING 8646
SWIDTH 714 0
DWIDTH 5 0
BBX 5 6 0 1
BITMAP
40
F8
40
10
F8
10
ENDCHAR
STARTCHAR U+21C7
ENCODING 8647
SWIDTH 714 0
DWIDTH 5 0
BBX 5 5 0 1
BITMAP
40
F8
40
F8
40
ENDCHAR
STARTCHAR U+21C8
ENCODING 8648
SWIDTH 714 0
DWIDTH 5 0
BBX 5 5 0 1
BITMAP
50
F8
50
50
50
ENDCHAR
STARTCHAR U+21C9
ENCODING 8649
SWIDTH 714 0
DWIDTH 5 0
BBX 5 5 0 1
BITMAP
10
F8
10
F8
10
ENDCHAR
STARTCHAR U+21CA
ENCODING 8650
SWIDTH 714 0
DWIDTH 5 0
BBX 5 5 0 0
BITMAP
50
50
50
F8
50
ENDCHAR
STARTCHAR U+21CB
ENCODING 8651
SWIDTH 714 0
DWIDTH 5 0
BBX 5 5 0 0
BITMAP
40
F8
00
F8
10
ENDCHAR
STARTCHAR U+21CC
ENCODING 8652
SWIDTH 714 0
DWIDTH 5 0
BBX 5 5 0 0
BITMAP
10
F8
00
F8
40
ENDCHAR
STARTCHAR U+21CD
ENCODING 8653
SWIDTH 714 0
DWIDTH 5 0
BBX 5 5 0 1
BITMAP
28
78
90
78
20
ENDCHAR
STARTCHAR U+21CE
ENCODING 8654
SWIDTH 714 0
DWIDTH 5 0
BBX 5 9 0 -1
BITMAP
20
78
A0
78
20
F0
28
F0
20
ENDCHAR
STARTCHAR U+21CF
ENCODING 8655
SWIDTH 714 0
DWIDTH 5 0
BBX 5 5 0 1
BITMAP
20
F0
48
F0
A0
ENDCHAR
STARTCHAR U+21D0
ENCODING 8656
SWIDTH 714 0
DWIDTH 5 0
BBX 5 5 0 1
BITMAP
20
78
80
78
20
ENDCHAR
STARTCHAR U+21D1
ENCODING 8657
SWIDTH 714 0
DWIDTH 5 0
BBX 5 6 0 1
BITMAP
20
50
D8
50
50
50
ENDCHAR
STARTCHAR U+21D2
ENCODING 8658
SWIDTH 714 0
DWIDTH 5 0
BBX 5 5 0 1
BITMAP
20
F0
08
F0
20
ENDCHAR
STARTCHAR U+21D3
ENCODING 8659
SWIDTH 714 0
DWIDTH 5 0
BBX 5 6 0 0
BITMAP
50
50
50
D8
50
20
ENDCHAR
STARTCHAR U+21D4
ENCODING 8660
SWIDTH 714 0
DWIDTH 5 0
BBX 5 9 0 -1
BITMAP
20
78
80
78
20
F0
08
F0
20
ENDCHAR
STARTCHAR U+21D5
ENCODING 8661
SWIDTH 714 0
DWIDTH 5 0
BBX 5 9 0 -1
BITMAP
20
50
D8
50
50
50
D8
50
20
ENDCHAR
STARTCHAR U+21D6
ENCODING 8662
SWIDTH 714 0
DWIDTH 5 0
BBX 5 5 0 1
BITMAP
F0
A0
D0
A8
10
ENDCHAR
STARTCHAR U+21D7
ENCODING 8663
SWIDTH 714 0
DWIDTH 5 0
BBX 5 5 0 1
BITMAP
78
28
58
A8
40
ENDCHAR
STARTCHAR U+21D8
ENCODING 8664
SWIDTH 714 0
DWIDTH 5 0
BBX 5 5 0 1
BITMAP
40
A8
58
28
78
ENDCHAR
STARTCHAR U+21D9
ENCODING 8665
SWIDTH 714 0
DWIDTH 5 0
BBX 5 5 0 1
BITMAP
10
A8
D0
A0
F0
ENDCHAR
STARTCHAR U+21DA
ENCODING 8666
SWIDTH 714 0
DWIDTH 5 0
BBX 5 7 0 0
BITMAP
10
38
40
F8
40
38
10
ENDCHAR
STARTCHAR U+21DB
ENCODING 8667
SWIDTH 714 0
DWIDTH 5 0
BBX 5 7 0 0
BITMAP
40
E0
10
F8
10
E0
40
ENDCHAR
STARTCHAR U+21DC
ENCODING 8668
SWIDTH 714 0
DWIDTH 5 0
BBX 5 3 0 2
BITMAP
50
E8
40
ENDCHAR
STARTCHAR U+21DD
ENCODING 8669
SWIDTH 714 0
DWIDTH 5 0
BBX 5 3 0 2
BITMAP
50
B8
10
ENDCHAR
STARTCHAR U+21DE
ENCODING 8670
SWIDTH 714 0
DWIDTH 5 0
BBX 3 7 1 0
BITMAP
40
E0
40
E0
E0
40
40
ENDCHAR
STARTCHAR U+21DF
ENCODING 8671
SWIDTH 714 0
DWIDTH 5 0
BBX 3 7 1 0
BITMAP
40
40
E0
E0
40
E0
40
ENDCHAR
STARTCHAR U+21E0
ENCODING 8672
SWIDTH 714 0
DWIDTH 5 0
BBX 5 5 0 1
BITMAP
20
40
A8
40
20
ENDCHAR
STARTCHAR U+21E1
ENCODING 8673
SWIDTH 714 0
DWIDTH 5 0
BBX 5 5 0 1
BITMAP
20
50
A8
00
20
ENDCHAR
STARTCHAR U+21E2
ENCODING 8674
SWIDTH 714 0
DWIDTH 5 0
BBX 5 5 0 1
BITMAP
20
10
A8
10
20
ENDCHAR
STARTCHAR U+21E3
ENCODING 8675
SWIDTH 714 0
DWIDTH 5 0
BBX 5 5 0 1
BITMAP
20
00
A8
50
20
ENDCHAR
STARTCHAR U+21E4
ENCODING 8676
SWIDTH 714 0
DWIDTH 5 0
BBX 5 5 0 1
BITMAP
90
A0
F8
A0
90
ENDCHAR
STARTCHAR U+21E5
ENCODING 8677
SWIDTH 714 0
DWIDTH 5 0
BBX 5 5 0 1
BITMAP
48
28
F8
28
48
ENDCHAR
STARTCHAR U+21E6
ENCODING 8678
SWIDTH 714 0
DWIDTH 5 0
BBX 5 5 0 1
BITMAP
20
78
88
78
20
ENDCHAR
STARTCHAR U+21E7
ENCODING 8679
SWIDTH 714 0
DWIDTH 5 0
BBX 5 6 0 1
BITMAP
20
50
D8
50
50
70
ENDCHAR
STARTCHAR U+21E8
ENCODING 8680
SWIDTH 714 0
DWIDTH 5 0
BBX 5 5 0 1
BITMAP
20
F0
88
F0
20
ENDCHAR
STARTCHAR U+21E9
ENCODING 8681
SWIDTH 714 0
DWIDTH 5 0
BBX 5 6 0 0
BITMAP
70
50
50
D8
50
20
ENDCHAR
STARTCHAR U+21EA
ENCODING 8682
SWIDTH 714 0
DWIDTH 5 0
BBX 5 7 0 0
BITMAP
20
50
D8
50
70
50
70
ENDCHAR
STARTCHAR U+21EB
ENCODING 8683
SWIDTH 714 0
DWIDTH 5 0
BBX 5 7 0 0
BITMAP
20
50
D8
50
50
50
F8
ENDCHAR
STARTCHAR U+21EC
ENCODING 8684
SWIDTH 714 0
DWIDTH 5 0
BBX 5 7 0 0
BITMAP
20
70
D8
50
50
50
F8
ENDCHAR
STARTCHAR U+21ED
ENCODING 8685
SWIDTH 714 0
DWIDTH 5 0
BBX 5 7 0 0
BITMAP
20
70
F8
70
70
70
F8
ENDCHAR
STARTCHAR U+21EE
ENCODING 8686
SWIDTH 714 0
DWIDTH 5 0
BBX 5 8 0 0
BITMAP
20
50
88
50
D8
50
50
70
ENDCHAR
STARTCHAR U+21EF
ENCODING 8687
SWIDTH 714 0
DWIDTH 5 0
BBX 5 8 0 0
BITMAP
20
50
88
50
D8
50
50
F8
ENDCHAR
STARTCHAR U+21F0
ENCODING 8688
SWIDTH 714 0
DWIDTH 5 0
BBX 5 5 0 1
BITMAP
A0
F0
88
F0
A0
ENDCHAR
STARTCHAR U+21F1
ENCODING 8689
SWIDTH 714 0
DWIDTH 5 0
BBX 5 5 0 1
BITMAP
F8
E0
E0
90
88
ENDCHAR
STARTCHAR U+21F2
ENCODING 8690
SWIDTH 714 0
DWIDTH 5 0
BBX 5 5 0 1
BITMAP
88
48
38
38
F8
ENDCHAR
STARTCHAR U+21F3
ENCODING 8691
SWIDTH 714 0
DWIDTH 5 0
BBX 5 9 0 -1
BITMAP
20
50
88
50
50
50
88
50
20
ENDCHAR
STARTCHAR U+21F4
ENCODING 8692
SWIDTH 714 0
DWIDTH 5 0
BBX 5 3 0 2
BITMAP
28
D8
28
ENDCHAR
STARTCHAR U+21F5
ENCODING 8693
SWIDTH 714 0
DWIDTH 5 0
BBX 5 9 0 -1
BITMAP
10
38
10
50
50
50
40
E0
40
ENDCHAR
STARTCHAR U+21F6
ENCODING 8694
SWIDTH 714 0
DWIDTH 5 0
BBX 5 7 0 0
BITMAP
10
F8
10
F8
10
F8
10
ENDCHAR
STARTCHAR U+21F7
ENCODING 8695
SWIDTH 714 0
DWIDTH 5 0
BBX 5 3 0 2
BITMAP
A0
F8
A0
ENDCHAR
STARTCHAR U+21F8
ENCODING 8696
SWIDTH 714 0
DWIDTH 5 0
BBX 5 3 0 2
BITMAP
28
F8
28
ENDCHAR
STARTCHAR U+21F9
ENCODING 8697
SWIDTH 714 0
DWIDTH 5 0
BBX 5 6 0 1
BITMAP
A0
F8
A0
28
F8
28
ENDCHAR
STARTCHAR U+21FD
ENCODING 8701
SWIDTH 714 0
DWIDTH 5 0
BBX 5 5 0 1
BITMAP
20
60
B8
60
20
ENDCHAR
STARTCHAR U+21FE
ENCODING 8702
SWIDTH 714 0
DWIDTH 5 0
BBX 5 5 0 1
BITMAP
20
30
E8
30
20
ENDCHAR
STARTCHAR U+21FF
ENCODING 8703
SWIDTH 714 0
DWIDTH 5 0
BBX 5 9 0 -1
BITMAP
20
60
B8
60
20
30
E8
30
20
ENDCHAR
STARTCHAR U+2200
ENCODING 8704
SWIDTH 714 0
DWIDTH 5 0
BBX 5 8 0 0
BITMAP
88
88
70
50
50
20
20
20
ENDCHAR
STARTCHAR U+2201
ENCODING 8705
SWIDTH 714 0
DWIDTH 5 0
BBX 5 8 0 0
BITMAP
70
88
80
80
80
80
88
70
ENDCHAR
STARTCHAR U+2202
ENCODING 8706
SWIDTH 714 0
DWIDTH 5 0
BBX 4 8 0 0
BITMAP
20
50
10
70
90
90
90
60
ENDCHAR
STARTCHAR U+2203
ENCODING 8707
SWIDTH 714 0
DWIDTH 5 0
BBX 5 8 0 0
BITMAP
F8
08
08
38
08
08
08
F8
ENDCHAR
STARTCHAR U+2204
ENCODING 8708
SWIDTH 714 0
DWIDTH 5 0
BBX 5 10 0 -1
BITMAP
08
F8
18
18
78
28
28
28
F8
40
ENDCHAR
STARTCHAR U+2205
ENCODING 8709
SWIDTH 714 0
DWIDTH 5 0
BBX 7 8 -1 0
BITMAP
3A
44
4C
54
54
64
44
B8
ENDCHAR
STARTCHAR U+2206
ENCODING 8710
SWIDTH 714 0
DWIDTH 5 0
BBX 5 6 0 0
BITMAP
20
20
50
50
88
F8
ENDCHAR
STARTCHAR U+2207
ENCODING 8711
SWIDTH 714 0
DWIDTH 5 0
BBX 5 6 0 0
BITMAP
F8
88
50
50
20
20
ENDCHAR
STARTCHAR U+2208
ENCODING 8712
SWIDTH 714 0
DWIDTH 5 0
BBX 5 7 0 0
BITMAP
38
40
80
F8
80
40
38
ENDCHAR
STARTCHAR U+2209
ENCODING 8713
SWIDTH 714 0
DWIDTH 5 0
BBX 5 9 0 -1
BITMAP
20
38
60
A0
F8
A0
60
38
20
ENDCHAR
STARTCHAR U+220A
ENCODING 8714
SWIDTH 714 0
DWIDTH 5 0
BBX 4 5 0 1
BITMAP
70
80
F0
80
70
ENDCHAR
STARTCHAR U+220B
ENCODING 8715
SWIDTH 714 0
DWIDTH 5 0
BBX 5 7 0 0
BITMAP
E0
10
08
F8
08
10
E0
ENDCHAR
STARTCHAR U+220C
ENCODING 8716
SWIDTH 714 0
DWIDTH 5 0
BBX 5 9 0 -1
BITMAP
20
E0
30
28
F8
28
30
E0
20
ENDCHAR
STARTCHAR U+220D
ENCODING 8717
SWIDTH 714 0
DWIDTH 5 0
BBX 4 5 0 1
BITMAP
E0
10
F0
10
E0
ENDCHAR
STARTCHAR U+220E
ENCODING 8718
SWIDTH 714 0
DWIDTH 5 0
BBX 3 5 1 1
BITMAP
E0
E0
E0
E0
E0
ENDCHAR
STARTCHAR U+220F
ENCODING 8719
SWIDTH 714 0
DWIDTH 5 0
BBX 5 12 0 -3
BITMAP
F8
88
88
88
88
88
88
88
88
88
88
88
ENDCHAR
STARTCHAR U+2210
ENCODING 8720
SWIDTH 714 0
DWIDTH 5 0
BBX 5 12 0 -3
BITMAP
88
88
88
88
88
88
88
88
88
88
88
F8
ENDCHAR
STARTCHAR U+2211
ENCODING 8721
SWIDTH 714 0
DWIDTH 5 0
BBX 5 13 0 -3
BITMAP
F8
88
40
40
20
20
10
20
20
40
40
88
F8
ENDCHAR
STARTCHAR U+2212
ENCODING 8722
SWIDTH 714 0
DWIDTH 5 0
BBX 4 1 0 3
BITMAP
F0
ENDCHAR
STARTCHAR U+2213
ENCODING 8723
SWIDTH 714 0
DWIDTH 5 0
BBX 3 5 1 1
BITMAP
E0
00
40
E0
40
ENDCHAR
STARTCHAR U+2214
ENCODING 8724
SWIDTH 714 0
DWIDTH 5 0
BBX 5 6 0 1
BITMAP
20
00
20
F8
20
20
ENDCHAR
STARTCHAR U+2215
ENCODING 8725
SWIDTH 714 0
DWIDTH 5 0
BBX 4 8 0 0
BITMAP
10
10
20
20
40
40
80
80
ENDCHAR
STARTCHAR U+2216
ENCODING 8726
SWIDTH 714 0
DWIDTH 5 0
BBX 5 5 0 0
BITMAP
80
40
20
10
08
ENDCHAR
STARTCHAR U+2217
ENCODING 8727
SWIDTH 714 0
DWIDTH 5 0
BBX 5 5 0 1
BITMAP
50
20
F8
20
50
ENDCHAR
STARTCHAR U+2218
ENCODING 8728
SWIDTH 714 0
DWIDTH 5 0
BBX 3 3 0 2
BITMAP
40
A0
40
ENDCHAR
STARTCHAR U+2219
ENCODING 8729
SWIDTH 714 0
DWIDTH 5 0
BBX 3 3 0 2
BITMAP
40
E0
40
ENDCHAR
STARTCHAR U+221A
ENCODING 8730
SWIDTH 714 0
DWIDTH 5 0
BBX 4 7 0 0
BITMAP
10
10
20
20
A0
40
40
ENDCHAR
STARTCHAR U+221B
ENCODING 8731
SWIDTH 714 0
DWIDTH 5 0
BBX 4 10 0 0
BITMAP
C0
20
40
20
D0
10
20
A0
40
40
ENDCHAR
STARTCHAR U+221C
ENCODING 8732
SWIDTH 714 0
DWIDTH 5 0
BBX 4 10 0 0
BITMAP
80
A0
E0
20
10
10
20
A0
40
40
ENDCHAR
STARTCHAR U+221D
ENCODING 8733
SWIDTH 714 0
DWIDTH 5 0
BBX 4 4 0 1
BITMAP
50
A0
A0
50
ENDCHAR
STARTCHAR U+221E
ENCODING 8734
SWIDTH 714 0
DWIDTH 5 0
BBX 5 4 0 1
BITMAP
50
A8
A8
50
ENDCHAR
STARTCHAR U+221F
ENCODING 8735
SWIDTH 714 0
DWIDTH 5 0
BBX 5 5 0 1
BITMAP
80
80
80
80
F8
ENDCHAR
STARTCHAR U+2220
ENCODING 8736
SWIDTH 714 0
DWIDTH 5 0
BBX 5 4 0 1
BITMAP
10
20
40
F8
ENDCHAR
STARTCHAR U+2221
ENCODING 8737
SWIDTH 714 0
DWIDTH 5 0
BBX 5 6 0 0
BITMAP
08
D0
20
50
F8
10
ENDCHAR
STARTCHAR U+2222
ENCODING 8738
SWIDTH 714 0
DWIDTH 5 0
BBX 5 7 0 0
BITMAP
20
18
70
90
70
18
20
ENDCHAR
STARTCHAR U+2223
ENCODING 8739
SWIDTH 714 0
DWIDTH 5 0
BBX 1 11 2 -2
BITMAP
80
80
80
80
80
80
80
80
80
80
80
ENDCHAR
STARTCHAR U+2224
ENCODING 8740
SWIDTH 714 0
DWIDTH 5 0
BBX 3 11 1 -2
BITMAP
40
40
40
40
60
40
C0
40
40
40
40
ENDCHAR
STARTCHAR U+2225
ENCODING 8741
SWIDTH 714 0
DWIDTH 5 0
BBX 3 11 1 -2
BITMAP
A0
A0
A0
A0
A0
A0
A0
A0
A0
A0
A0
ENDCHAR
STARTCHAR U+2226
ENCODING 8742
SWIDTH 714 0
DWIDTH 5 0
BBX 5 11 0 -2
BITMAP
50
50
50
50
58
70
D0
50
50
50
50
ENDCHAR
STARTCHAR U+2227
ENCODING 8743
SWIDTH 714 0
DWIDTH 5 0
BBX 5 6 0 0
BITMAP
20
20
50
50
88
88
ENDCHAR
STARTCHAR U+2228
ENCODING 8744
SWIDTH 714 0
DWIDTH 5 0
BBX 5 6 0 0
BITMAP
88
88
50
50
20
20
ENDCHAR
STARTCHAR U+2229
ENCODING 8745
SWIDTH 714 0
DWIDTH 5 0
BBX 4 5 0 1
BITMAP
60
90
90
90
90
ENDCHAR
STARTCHAR U+222A
ENCODING 8746
SWIDTH 714 0
DWIDTH 5 0
BBX 4 5 0 1
BITMAP
90
90
90
90
60
ENDCHAR
STARTCHAR U+222B
ENCODING 8747
SWIDTH 714 0
DWIDTH 5 0
BBX 5 13 0 -3
BITMAP
10
28
20
20
20
20
20
20
20
20
20
A0
40
ENDCHAR
STARTCHAR U+222C
ENCODING 8748
SWIDTH 714 0
DWIDTH 5 0
BBX 5 13 0 -3
BITMAP
28
50
50
50
50
50
50
50
50
50
50
50
A0
ENDCHAR
STARTCHAR U+222D
ENCODING 8749
SWIDTH 714 0
DWIDTH 5 0
BBX 7 13 -1 -3
BITMAP
20
48
52
54
54
54
54
54
54
54
94
24
08
ENDCHAR
STARTCHAR U+222E
ENCODING 8750
SWIDTH 714 0
DWIDTH 5 0
BBX 5 13 0 -3
BITMAP
10
28
20
20
70
A8
A8
A8
70
20
20
A0
40
ENDCHAR
STARTCHAR U+222F
ENCODING 8751
SWIDTH 714 0
DWIDTH 5 0
BBX 5 13 0 -3
BITMAP
28
50
50
50
50
70
D8
70
50
50
50
50
A0
ENDCHAR
STARTCHAR U+2230
ENCODING 8752
SWIDTH 714 0
DWIDTH 5 0
BBX 7 13 -1 -3
BITMAP
20
48
52
54
54
7C
54
7C
54
54
94
24
08
ENDCHAR
STARTCHAR U+2231
ENCODING 8753
SWIDTH 714 0
DWIDTH 5 0
BBX 6 13 0 -3
BITMAP
10
28
20
20
70
A8
2C
28
20
20
20
A0
40
ENDCHAR
STARTCHAR U+2232
ENCODING 8754
SWIDTH 714 0
DWIDTH 5 0
BBX 5 13 0 -3
BITMAP
10
28
20
20
70
88
98
80
70
20
20
A0
40
ENDCHAR
STARTCHAR U+2233
ENCODING 8755
SWIDTH 714 0
DWIDTH 5 0
BBX 5 13 0 -3
BITMAP
10
28
20
20
70
80
98
88
70
20
20
A0
40
ENDCHAR
STARTCHAR U+2234
ENCODING 8756
SWIDTH 714 0
DWIDTH 5 0
BBX 5 5 0 1
BITMAP
20
00
00
00
88
ENDCHAR
STARTCHAR U+2235
ENCODING 8757
SWIDTH 714 0
DWIDTH 5 0
BBX 5 5 0 1
BITMAP
88
00
00
00
20
ENDCHAR
STARTCHAR U+2236
ENCODING 8758
SWIDTH 714 0
DWIDTH 5 0
BBX 1 5 2 1
BITMAP
80
00
00
00
80
ENDCHAR
STARTCHAR U+2237
ENCODING 8759
SWIDTH 714 0
DWIDTH 5 0
BBX 4 5 1 1
BITMAP
90
00
00
00
90
ENDCHAR
STARTCHAR U+2238
ENCODING 8760
SWIDTH 714 0
DWIDTH 5 0
BBX 5 3 0 3
BITMAP
20
00
F8
ENDCHAR
STARTCHAR U+2239
ENCODING 8761
SWIDTH 714 0
DWIDTH 5 0
BBX 5 3 0 2
BITMAP
08
E0
08
ENDCHAR
STARTCHAR U+223A
ENCODING 8762
SWIDTH 714 0
DWIDTH 5 0
BBX 5 5 0 1
BITMAP
88
00
F8
00
88
ENDCHAR
STARTCHAR U+223B
ENCODING 8763
SWIDTH 714 0
DWIDTH 5 0
BBX 5 7 0 0
BITMAP
20
00
48
A8
90
00
20
ENDCHAR
STARTCHAR U+223C
ENCODING 8764
SWIDTH 714 0
DWIDTH 5 0
BBX 5 3 0 2
BITMAP
48
A8
90
ENDCHAR
STARTCHAR U+223D
ENCODING 8765
SWIDTH 714 0
DWIDTH 5 0
BBX 5 3 0 2
BITMAP
90
A8
48
ENDCHAR
STARTCHAR U+223E
ENCODING 8766
SWIDTH 714 0
DWIDTH 5 0
BBX 5 3 0 2
BITMAP
C0
A8
18
ENDCHAR
STARTCHAR U+223F
ENCODING 8767
SWIDTH 714 0
DWIDTH 5 0
BBX 5 5 0 1
BITMAP
40
A0
A8
28
10
ENDCHAR
STARTCHAR U+2240
ENCODING 8768
SWIDTH 714 0
DWIDTH 5 0
BBX 3 5 1 0
BITMAP
40
20
40
80
40
ENDCHAR
STARTCHAR U+2241
ENCODING 8769
SWIDTH 714 0
DWIDTH 5 0
BBX 5 3 0 2
BITMAP
60
A8
30
ENDCHAR
STARTCHAR U+2242
ENCODING 8770
SWIDTH 714 0
DWIDTH 5 0
BBX 5 4 0 1
BITMAP
F8
00
C8
30
ENDCHAR
STARTCHAR U+2243
ENCODING 8771
SWIDTH 714 0
DWIDTH 5 0
BBX 5 4 0 2
BITMAP
60
98
00
F8
ENDCHAR
STARTCHAR U+2244
ENCODING 8772
SWIDTH 714 0
DWIDTH 5 0
BBX 5 7 0 0
BITMAP
08
70
98
20
F8
40
80
ENDCHAR
STARTCHAR U+2245
ENCODING 8773
SWIDTH 714 0
DWIDTH 5 0
BBX 5 6 0 1
BITMAP
60
98
00
F8
00
F8
ENDCHAR
STARTCHAR U+2246
ENCODING 8774
SWIDTH 714 0
DWIDTH 5 0
BBX 5 7 0 0
BITMAP
60
98
00
F8
20
F8
40
ENDCHAR
STARTCHAR U+2247
ENCODING 8775
SWIDTH 714 0
DWIDTH 5 0
BBX 5 7 0 0
BITMAP
68
98
10
F8
20
F8
40
ENDCHAR
STARTCHAR U+2248
ENCODING 8776
SWIDTH 714 0
DWIDTH 5 0
BBX 5 4 0 2
BITMAP
60
98
60
98
ENDCHAR
STARTCHAR U+2249
ENCODING 8777
SWIDTH 714 0
DWIDTH 5 0
BBX 5 7 0 0
BITMAP
20
60
B8
60
B8
20
20
ENDCHAR
STARTCHAR U+224A
ENCODING 8778
SWIDTH 714 0
DWIDTH 5 0
BBX 5 6 0 1
BITMAP
60
98
60
98
00
F8
ENDCHAR
STARTCHAR U+224B
ENCODING 8779
SWIDTH 714 0
DWIDTH 5 0
BBX 5 6 0 1
BITMAP
60
98
60
98
60
98
ENDCHAR
STARTCHAR U+224C
ENCODING 8780
SWIDTH 714 0
DWIDTH 5 0
BBX 5 6 0 1
BITMAP
30
C8
00
F8
00
F8
ENDCHAR
STARTCHAR U+224D
ENCODING 8781
SWIDTH 714 0
DWIDTH 5 0
BBX 5 5 0 1
BITMAP
88
70
00
70
88
ENDCHAR
STARTCHAR U+224E
ENCODING 8782
SWIDTH 714 0
DWIDTH 5 0
BBX 5 5 0 1
BITMAP
20
D8
00
D8
20
ENDCHAR
STARTCHAR U+224F
ENCODING 8783
SWIDTH 714 0
DWIDTH 5 0
BBX 5 4 0 2
BITMAP
20
D8
00
F8
ENDCHAR
STARTCHAR U+2250
ENCODING 8784
SWIDTH 714 0
DWIDTH 5 0
BBX 5 5 0 2
BITMAP
20
00
F8
00
F8
ENDCHAR
STARTCHAR U+2251
ENCODING 8785
SWIDTH 714 0
DWIDTH 5 0
BBX 5 7 0 0
BITMAP
20
00
F8
00
F8
00
20
ENDCHAR
STARTCHAR U+2252
ENCODING 8786
SWIDTH 714 0
DWIDTH 5 0
BBX 5 7 0 0
BITMAP
80
00
F8
00
F8
00
08
ENDCHAR
STARTCHAR U+2253
ENCODING 8787
SWIDTH 714 0
DWIDTH 5 0
BBX 5 7 0 0
BITMAP
08
00
F8
00
F8
00
80
ENDCHAR
STARTCHAR U+2254
ENCODING 8788
SWIDTH 714 0
DWIDTH 5 0
BBX 5 3 0 2
BITMAP
B8
00
B8
ENDCHAR
STARTCHAR U+2255
ENCODING 8789
SWIDTH 714 0
DWIDTH 5 0
BBX 5 3 0 2
BITMAP
E8
00
E8
ENDCHAR
STARTCHAR U+2256
ENCODING 8790
SWIDTH 714 0
DWIDTH 5 0
BBX 5 3 0 2
BITMAP
F8
50
F8
ENDCHAR
STARTCHAR U+2257
ENCODING 8791
SWIDTH 714 0
DWIDTH 5 0
BBX 5 6 0 2
BITMAP
20
50
20
F8
00
F8
ENDCHAR
STARTCHAR U+2258
ENCODING 8792
SWIDTH 714 0
DWIDTH 5 0
BBX 5 6 0 1
BITMAP
70
88
00
F8
00
F8
ENDCHAR
STARTCHAR U+2259
ENCODING 8793
SWIDTH 714 0
DWIDTH 5 0
BBX 5 6 0 2
BITMAP
20
50
00
F8
00
F8
ENDCHAR
STARTCHAR U+225A
ENCODING 8794
SWIDTH 714 0
DWIDTH 5 0
BBX 5 6 0 2
BITMAP
50
20
00
F8
00
F8
ENDCHAR
STARTCHAR U+225B
ENCODING 8795
SWIDTH 714 0
DWIDTH 5 0
BBX 5 6 0 2
BITMAP
50
20
50
F8
00
F8
ENDCHAR
STARTCHAR U+225C
ENCODING 8796
SWIDTH 714 0
DWIDTH 5 0
BBX 5 6 0 2
BITMAP
20
70
00
F8
00
F8
ENDCHAR
STARTCHAR U+225D
ENCODING 8797
SWIDTH 714 0
DWIDTH 5 0
BBX 5 8 0 2
BITMAP
48
50
D8
D0
00
F8
00
F8
ENDCHAR
STARTCHAR U+225E
ENCODING 8798
SWIDTH 714 0
DWIDTH 5 0
BBX 5 6 0 2
BITMAP
D0
A8
00
F8
00
F8
ENDCHAR
STARTCHAR U+225F
ENCODING 8799
SWIDTH 714 0
DWIDTH 5 0
BBX 5 8 0 2
BITMAP
20
10
20
00
20
F8
00
F8
ENDCHAR
STARTCHAR U+2260
ENCODING 8800
SWIDTH 714 0
DWIDTH 5 0
BBX 5 7 0 0
BITMAP
08
10
F8
20
F8
40
80
ENDCHAR
STARTCHAR U+2261
ENCODING 8801
SWIDTH 714 0
DWIDTH 5 0
BBX 5 5 0 1
BITMAP
F8
00
F8
00
F8
ENDCHAR
STARTCHAR U+2262
ENCODING 8802
SWIDTH 714 0
DWIDTH 5 0
BBX 5 7 0 0
BITMAP
08
F8
10
F8
40
F8
80
ENDCHAR
STARTCHAR U+2263
ENCODING 8803
SWIDTH 714 0
DWIDTH 5 0
BBX 5 7 0 0
BITMAP
F8
00
F8
00
F8
00
F8
ENDCHAR
STARTCHAR U+2264
ENCODING 8804
SWIDTH 714 0
DWIDTH 5 0
BBX 5 6 0 1
BITMAP
10
20
40
F8
00
F8
ENDCHAR
STARTCHAR U+2265
ENCODING 8805
SWIDTH 714 0
DWIDTH 5 0
BBX 5 6 0 1
BITMAP
40
20
10
F8
00
F8
ENDCHAR
STARTCHAR U+2266
ENCODING 8806
SWIDTH 714 0
DWIDTH 5 0
BBX 5 8 0 -1
BITMAP
10
20
40
F8
00
F8
00
F8
ENDCHAR
STARTCHAR U+2267
ENCODING 8807
SWIDTH 714 0
DWIDTH 5 0
BBX 5 8 0 -1
BITMAP
40
20
10
F8
00
F8
00
F8
ENDCHAR
STARTCHAR U+2268
ENCODING 8808
SWIDTH 714 0
DWIDTH 5 0
BBX 5 9 0 -2
BITMAP
10
20
40
F8
00
F8
20
F8
40
ENDCHAR
STARTCHAR U+2269
ENCODING 8809
SWIDTH 714 0
DWIDTH 5 0
BBX 5 9 0 -2
BITMAP
40
20
10
F8
00
F8
20
F8
40
ENDCHAR
STARTCHAR U+226A
ENCODING 8810
SWIDTH 714 0
DWIDTH 5 0
BBX 5 5 0 1
BITMAP
28
50
A0
50
28
ENDCHAR
STARTCHAR U+226B
ENCODING 8811
SWIDTH 714 0
DWIDTH 5 0
BBX 5 5 0 1
BITMAP
A0
50
28
50
A0
ENDCHAR
STARTCHAR U+226C
ENCODING 8812
SWIDTH 714 0
DWIDTH 5 0
BBX 3 7 1 0
BITMAP
A0
40
A0
A0
A0
40
A0
ENDCHAR
STARTCHAR U+226D
ENCODING 8813
SWIDTH 714 0
DWIDTH 5 0
BBX 5 7 0 0
BITMAP
08
90
78
20
F0
48
80
ENDCHAR
STARTCHAR U+226E
ENCODING 8814
SWIDTH 714 0
DWIDTH 5 0
BBX 4 7 0 0
BITMAP
10
30
60
A0
40
60
90
ENDCHAR
STARTCHAR U+226F
ENCODING 8815
SWIDTH 714 0
DWIDTH 5 0
BBX 4 7 0 0
BITMAP
90
60
20
50
60
C0
80
ENDCHAR
STARTCHAR U+2270
ENCODING 8816
SWIDTH 714 0
DWIDTH 5 0
BBX 5 7 0 0
BITMAP
10
20
50
F8
20
F8
40
ENDCHAR
STARTCHAR U+2271
ENCODING 8817
SWIDTH 714 0
DWIDTH 5 0
BBX 5 7 0 0
BITMAP
40
20
10
F8
20
F8
40
ENDCHAR
STARTCHAR U+2272
ENCODING 8818
SWIDTH 714 0
DWIDTH 5 0
BBX 5 6 0 1
BITMAP
10
20
40
F8
60
98
ENDCHAR
STARTCHAR U+2273
ENCODING 8819
SWIDTH 714 0
DWIDTH 5 0
BBX 5 6 0 1
BITMAP
40
20
10
F8
60
98
ENDCHAR
STARTCHAR U+2274
ENCODING 8820
SWIDTH 714 0
DWIDTH 5 0
BBX 5 9 0 -1
BITMAP
20
30
20
60
F8
20
E8
30
20
ENDCHAR
STARTCHAR U+2275
ENCODING 8821
SWIDTH 714 0
DWIDTH 5 0
BBX 5 9 0 -1
BITMAP
20
60
20
30
F8
20
E8
30
20
ENDCHAR
STARTCHAR U+2276
ENCODING 8822
SWIDTH 714 0
DWIDTH 5 0
BBX 5 9 0 -1
BITMAP
10
20
40
F8
00
F8
10
20
40
ENDCHAR
STARTCHAR U+2277
ENCODING 8823
SWIDTH 714 0
DWIDTH 5 0
BBX 5 9 0 -1
BITMAP
40
20
10
F8
00
F8
40
20
10
ENDCHAR
STARTCHAR U+2278
ENCODING 8824
SWIDTH 714 0
DWIDTH 5 0
BBX 5 9 0 -1
BITMAP
28
30
60
F8
20
F8
30
60
A0
ENDCHAR
STARTCHAR U+2279
ENCODING 8825
SWIDTH 714 0
DWIDTH 5 0
BBX 5 9 0 -1
BITMAP
A0
60
30
F8
20
F8
60
30
28
ENDCHAR
STARTCHAR U+227A
ENCODING 8826
SWIDTH 714 0
DWIDTH 5 0
BBX 5 5 0 1
BITMAP
08
30
C0
30
08
ENDCHAR
STARTCHAR U+227B
ENCODING 8827
SWIDTH 714 0
DWIDTH 5 0
BBX 5 5 0 1
BITMAP
80
60
18
60
80
ENDCHAR
STARTCHAR U+227C
ENCODING 8828
SWIDTH 714 0
DWIDTH 5 0
BBX 5 7 0 -1
BITMAP
08
30
C0
30
C8
30
08
ENDCHAR
STARTCHAR U+227D
ENCODING 8829
SWIDTH 714 0
DWIDTH 5 0
BBX 5 7 0 -1
BITMAP
80
60
18
60
98
60
80
ENDCHAR
STARTCHAR U+227E
ENCODING 8830
SWIDTH 714 0
DWIDTH 5 0
BBX 5 7 0 -1
BITMAP
08
10
60
10
08
60
98
ENDCHAR
STARTCHAR U+227F
ENCODING 8831
SWIDTH 714 0
DWIDTH 5 0
BBX 5 7 0 -1
BITMAP
80
40
30
40
80
60
98
ENDCHAR
STARTCHAR U+2280
ENCODING 8832
SWIDTH 714 0
DWIDTH 5 0
BBX 5 7 0 0
BITMAP
20
28
30
E0
30
28
20
ENDCHAR
STARTCHAR U+2281
ENCODING 8833
SWIDTH 714 0
DWIDTH 5 0
BBX 5 7 0 0
BITMAP
20
A0
60
38
60
A0
20
ENDCHAR
STARTCHAR U+2282
ENCODING 8834
SWIDTH 714 0
DWIDTH 5 0
BBX 4 5 0 1
BITMAP
70
80
80
80
70
ENDCHAR
STARTCHAR U+2283
ENCODING 8835
SWIDTH 714 0
DWIDTH 5 0
BBX 4 5 0 1
BITMAP
E0
10
10
10
E0
ENDCHAR
STARTCHAR U+2284
ENCODING 8836
SWIDTH 714 0
DWIDTH 5 0
BBX 4 6 0 0
BITMAP
70
90
A0
A0
70
40
ENDCHAR
STARTCHAR U+2285
ENCODING 8837
SWIDTH 714 0
DWIDTH 5 0
BBX 4 6 0 0
BITMAP
E0
90
50
50
E0
20
ENDCHAR
STARTCHAR U+2286
ENCODING 8838
SWIDTH 714 0
DWIDTH 5 0
BBX 4 7 0 -1
BITMAP
70
80
80
80
70
00
F0
ENDCHAR
STARTCHAR U+2287
ENCODING 8839
SWIDTH 714 0
DWIDTH 5 0
BBX 4 7 0 -1
BITMAP
E0
10
10
10
E0
00
F0
ENDCHAR
STARTCHAR U+2288
ENCODING 8840
SWIDTH 714 0
DWIDTH 5 0
BBX 4 9 0 -2
BITMAP
20
70
A0
A0
A0
70
20
F0
20
ENDCHAR
STARTCHAR U+2289
ENCODING 8841
SWIDTH 714 0
DWIDTH 5 0
BBX 4 9 0 -2
BITMAP
20
E0
30
30
30
E0
20
F0
20
ENDCHAR
STARTCHAR U+228A
ENCODING 8842
SWIDTH 714 0
DWIDTH 5 0
BBX 4 8 0 -2
BITMAP
70
80
80
80
70
20
F0
40
ENDCHAR
STARTCHAR U+228B
ENCODING 8843
SWIDTH 714 0
DWIDTH 5 0
BBX 4 8 0 -2
BITMAP
E0
10
10
10
E0
40
F0
20
ENDCHAR
STARTCHAR U+228C
ENCODING 8844
SWIDTH 714 0
DWIDTH 5 0
BBX 4 8 0 1
BITMAP
40
F0
40
90
90
90
90
60
ENDCHAR
STARTCHAR U+228D
ENCODING 8845
SWIDTH 714 0
DWIDTH 5 0
BBX 4 7 0 1
BITMAP
20
00
90
90
90
90
60
ENDCHAR
STARTCHAR U+228E
ENCODING 8846
SWIDTH 714 0
DWIDTH 5 0
BBX 4 8 0 1
BITMAP
20
70
20
90
90
90
90
60
ENDCHAR
STARTCHAR U+228F
ENCODING 8847
SWIDTH 714 0
DWIDTH 5 0
BBX 4 5 0 1
BITMAP
F0
80
80
80
F0
ENDCHAR
STARTCHAR U+2290
ENCODING 8848
SWIDTH 714 0
DWIDTH 5 0
BBX 4 5 1 1
BITMAP
F0
10
10
10
F0
ENDCHAR
STARTCHAR U+2291
ENCODING 8849
SWIDTH 714 0
DWIDTH 5 0
BBX 4 7 0 0
BITMAP
F0
80
80
80
F0
00
F0
ENDCHAR
STARTCHAR U+2292
ENCODING 8850
SWIDTH 714 0
DWIDTH 5 0
BBX 4 7 1 0
BITMAP
F0
10
10
10
F0
00
F0
ENDCHAR
STARTCHAR U+2293
ENCODING 8851
SWIDTH 714 0
DWIDTH 5 0
BBX 4 5 0 1
BITMAP
F0
90
90
90
90
ENDCHAR
STARTCHAR U+2294
ENCODING 8852
SWIDTH 714 0
DWIDTH 5 0
BBX 4 5 0 1
BITMAP
90
90
90
90
F0
ENDCHAR
STARTCHAR U+2295
ENCODING 8853
SWIDTH 714 0
DWIDTH 5 0
BBX 5 5 0 1
BITMAP
50
D8
00
D8
50
ENDCHAR
STARTCHAR U+2296
ENCODING 8854
SWIDTH 714 0
DWIDTH 5 0
BBX 5 5 0 1
BITMAP
70
F8
00
F8
70
ENDCHAR
STARTCHAR U+2297
ENCODING 8855
SWIDTH 714 0
DWIDTH 5 0
BBX 5 5 0 1
BITMAP
70
A8
D8
A8
70
ENDCHAR
STARTCHAR U+2298
ENCODING 8856
SWIDTH 714 0
DWIDTH 5 0
BBX 5 5 0 1
BITMAP
70
E8
D8
B8
70
ENDCHAR
STARTCHAR U+2299
ENCODING 8857
SWIDTH 714 0
DWIDTH 5 0
BBX 5 5 0 1
BITMAP
70
F8
D8
F8
70
ENDCHAR
STARTCHAR U+229A
ENCODING 8858
SWIDTH 714 0
DWIDTH 5 0
BBX 5 5 0 1
BITMAP
70
88
A8
88
70
ENDCHAR
STARTCHAR U+229B
ENCODING 8859
SWIDTH 714 0
DWIDTH 5 0
BBX 5 5 0 1
BITMAP
70
D8
A8
D8
70
ENDCHAR
STARTCHAR U+229C
ENCODING 8860
SWIDTH 714 0
DWIDTH 5 0
BBX 5 5 0 1
BITMAP
70
88
F8
88
70
ENDCHAR
STARTCHAR U+229D
ENCODING 8861
SWIDTH 714 0
DWIDTH 5 0
BBX 5 5 0 1
BITMAP
70
F8
88
F8
70
ENDCHAR
STARTCHAR U+229E
ENCODING 8862
SWIDTH 714 0
DWIDTH 5 0
BBX 5 5 0 1
BITMAP
F8
D8
88
D8
F8
ENDCHAR
STARTCHAR U+229F
ENCODING 8863
SWIDTH 714 0
DWIDTH 5 0
BBX 5 5 0 1
BITMAP
F8
F8
88
F8
F8
ENDCHAR
STARTCHAR U+22A0
ENCODING 8864
SWIDTH 714 0
DWIDTH 5 0
BBX 5 5 0 1
BITMAP
F8
A8
D8
A8
F8
ENDCHAR
STARTCHAR U+22A1
ENCODING 8865
SWIDTH 714 0
DWIDTH 5 0
BBX 5 5 0 1
BITMAP
F8
F8
D8
F8
F8
ENDCHAR
STARTCHAR U+22A2
ENCODING 8866
SWIDTH 714 0
DWIDTH 5 0
BBX 5 7 0 0
BITMAP
80
80
80
F8
80
80
80
ENDCHAR
STARTCHAR U+22A3
ENCODING 8867
SWIDTH 714 0
DWIDTH 5 0
BBX 5 7 0 0
BITMAP
08
08
08
F8
08
08
08
ENDCHAR
STARTCHAR U+22A4
ENCODING 8868
SWIDTH 714 0
DWIDTH 5 0
BBX 5 7 0 0
BITMAP
F8
20
20
20
20
20
20
ENDCHAR
STARTCHAR U+22A5
ENCODING 8869
SWIDTH 714 0
DWIDTH 5 0
BBX 5 7 0 0
BITMAP
20
20
20
20
20
20
F8
ENDCHAR
STARTCHAR U+22A6
ENCODING 8870
SWIDTH 714 0
DWIDTH 5 0
BBX 3 7 0 0
BITMAP
80
80
80
E0
80
80
80
ENDCHAR
STARTCHAR U+22A7
ENCODING 8871
SWIDTH 714 0
DWIDTH 5 0
BBX 3 7 0 0
BITMAP
80
80
E0
80
E0
80
80
ENDCHAR
STARTCHAR U+22A8
ENCODING 8872
SWIDTH 714 0
DWIDTH 5 0
BBX 5 7 0 0
BITMAP
80
80
F8
80
F8
80
80
ENDCHAR
STARTCHAR U+22A9
ENCODING 8873
SWIDTH 714 0
DWIDTH 5 0
BBX 5 7 0 0
BITMAP
A0
A0
A0
B8
A0
A0
A0
ENDCHAR
STARTCHAR U+22AA
ENCODING 8874
SWIDTH 714 0
DWIDTH 5 0
BBX 5 7 0 0
BITMAP
B0
B0
B0
B8
B0
B0
B0
ENDCHAR
STARTCHAR U+22AB
ENCODING 8875
SWIDTH 714 0
DWIDTH 5 0
BBX 5 7 0 0
BITMAP
A0
A0
B8
A0
B8
A0
A0
ENDCHAR
STARTCHAR U+22AC
ENCODING 8876
SWIDTH 714 0
DWIDTH 5 0
BBX 5 7 0 0
BITMAP
80
80
90
F8
A0
80
80
ENDCHAR
STARTCHAR U+22AD
ENCODING 8877
SWIDTH 714 0
DWIDTH 5 0
BBX 5 7 0 0
BITMAP
80
90
F8
A0
F8
80
80
ENDCHAR
STARTCHAR U+22AE
ENCODING 8878
SWIDTH 714 0
DWIDTH 5 0
BBX 5 7 0 0
BITMAP
A0
A0
A8
B8
A8
A0
A0
ENDCHAR
STARTCHAR U+22AF
ENCODING 8879
SWIDTH 714 0
DWIDTH 5 0
BBX 5 7 0 0
BITMAP
A0
A8
B8
A8
B8
A8
A0
ENDCHAR
STARTCHAR U+22B0
ENCODING 8880
SWIDTH 714 0
DWIDTH 5 0
BBX 5 7 0 0
BITMAP
10
08
30
C0
30
08
10
ENDCHAR
STARTCHAR U+22B1
ENCODING 8881
SWIDTH 714 0
DWIDTH 5 0
BBX 5 7 0 0
BITMAP
40
80
60
18
60
80
40
ENDCHAR
STARTCHAR U+22B2
ENCODING 8882
SWIDTH 714 0
DWIDTH 5 0
BBX 5 5 0 1
BITMAP
08
38
C8
38
08
ENDCHAR
STARTCHAR U+22B3
ENCODING 8883
SWIDTH 714 0
DWIDTH 5 0
BBX 5 5 0 1
BITMAP
80
E0
98
E0
80
ENDCHAR
STARTCHAR U+22B4
ENCODING 8884
SWIDTH 714 0
DWIDTH 5 0
BBX 5 7 0 -1
BITMAP
08
38
C8
38
08
00
F8
ENDCHAR
STARTCHAR U+22B5
ENCODING 8885
SWIDTH 714 0
DWIDTH 5 0
BBX 5 7 0 -1
BITMAP
80
E0
98
E0
80
00
F8
ENDCHAR
STARTCHAR U+22B6
ENCODING 8886
SWIDTH 714 0
DWIDTH 5 0
BBX 5 3 0 2
BITMAP
50
B8
50
ENDCHAR
STARTCHAR U+22B7
ENCODING 8887
SWIDTH 714 0
DWIDTH 5 0
BBX 5 3 0 2
BITMAP
50
E8
50
ENDCHAR
STARTCHAR U+22B8
ENCODING 8888
SWIDTH 714 0
DWIDTH 5 0
BBX 5 3 0 2
BITMAP
10
E8
10
ENDCHAR
STARTCHAR U+22B9
ENCODING 8889
SWIDTH 714 0
DWIDTH 5 0
BBX 5 5 0 1
BITMAP
20
20
D8
20
20
ENDCHAR
STARTCHAR U+22BA
ENCODING 8890
SWIDTH 714 0
DWIDTH 5 0
BBX 3 6 0 0
BITMAP
E0
40
40
40
40
40
ENDCHAR
STARTCHAR U+22BB
ENCODING 8891
SWIDTH 714 0
DWIDTH 5 0
BBX 5 5 0 1
BITMAP
88
50
20
00
F8
ENDCHAR
STARTCHAR U+22BC
ENCODING 8892
SWIDTH 714 0
DWIDTH 5 0
BBX 5 5 0 1
BITMAP
F8
00
20
50
88
ENDCHAR
STARTCHAR U+22BD
ENCODING 8893
SWIDTH 714 0
DWIDTH 5 0
BBX 5 5 0 1
BITMAP
F8
00
88
50
20
ENDCHAR
STARTCHAR U+22BE
ENCODING 8894
SWIDTH 714 0
DWIDTH 5 0
BBX 5 5 0 1
BITMAP
80
80
C0
A0
F8
ENDCHAR
STARTCHAR U+22BF
ENCODING 8895
SWIDTH 714 0
DWIDTH 5 0
BBX 5 5 0 1
BITMAP
08
18
28
48
F8
ENDCHAR
STARTCHAR U+22C0
ENCODING 8896
SWIDTH 714 0
DWIDTH 5 0
BBX 5 12 0 -3
BITMAP
20
20
20
20
50
50
50
50
88
88
88
88
ENDCHAR
STARTCHAR U+22C1
ENCODING 8897
SWIDTH 714 0
DWIDTH 5 0
BBX 5 12 0 -3
BITMAP
88
88
88
88
50
50
50
50
20
20
20
20
ENDCHAR
STARTCHAR U+22C2
ENCODING 8898
SWIDTH 714 0
DWIDTH 5 0
BBX 5 12 0 -3
BITMAP
70
88
88
88
88
88
88
88
88
88
88
88
ENDCHAR
STARTCHAR U+22C3
ENCODING 8899
SWIDTH 714 0
DWIDTH 5 0
BBX 5 12 0 -3
BITMAP
88
88
88
88
88
88
88
88
88
88
88
70
ENDCHAR
STARTCHAR U+22C4
ENCODING 8900
SWIDTH 714 0
DWIDTH 5 0
BBX 5 5 0 1
BITMAP
20
50
88
50
20
ENDCHAR
STARTCHAR U+22C5
ENCODING 8901
SWIDTH 714 0
DWIDTH 5 0
BBX 1 1 1 3
BITMAP
80
ENDCHAR
STARTCHAR U+22C6
ENCODING 8902
SWIDTH 714 0
DWIDTH 5 0
BBX 3 4 0 1
BITMAP
40
E0
40
A0
ENDCHAR
STARTCHAR U+22C7
ENCODING 8903
SWIDTH 714 0
DWIDTH 5 0
BBX 5 7 0 0
BITMAP
20
88
50
F8
50
88
20
ENDCHAR
STARTCHAR U+22C8
ENCODING 8904
SWIDTH 714 0
DWIDTH 5 0
BBX 5 5 0 1
BITMAP
88
D8
A8
D8
88
ENDCHAR
STARTCHAR U+22C9
ENCODING 8905
SWIDTH 714 0
DWIDTH 5 0
BBX 5 5 0 1
BITMAP
88
D0
A0
D0
88
ENDCHAR
STARTCHAR U+22CA
ENCODING 8906
SWIDTH 714 0
DWIDTH 5 0
BBX 5 5 0 1
BITMAP
88
58
28
58
88
ENDCHAR
STARTCHAR U+22CB
ENCODING 8907
SWIDTH 714 0
DWIDTH 5 0
BBX 5 5 0 1
BITMAP
80
40
20
50
88
ENDCHAR
STARTCHAR U+22CC
ENCODING 8908
SWIDTH 714 0
DWIDTH 5 0
BBX 5 5 0 1
BITMAP
08
10
20
50
88
ENDCHAR
STARTCHAR U+22CD
ENCODING 8909
SWIDTH 714 0
DWIDTH 5 0
BBX 5 4 0 2
BITMAP
30
C8
00
F8
ENDCHAR
STARTCHAR U+22CE
ENCODING 8910
SWIDTH 714 0
DWIDTH 5 0
BBX 5 5 0 1
BITMAP
88
50
50
20
20
ENDCHAR
STARTCHAR U+22CF
ENCODING 8911
SWIDTH 714 0
DWIDTH 5 0
BBX 5 5 0 1
BITMAP
20
20
50
50
88
ENDCHAR
STARTCHAR U+22D0
ENCODING 8912
SWIDTH 714 0
DWIDTH 5 0
BBX 5 7 0 0
BITMAP
38
40
98
A0
98
40
38
ENDCHAR
STARTCHAR U+22D1
ENCODING 8913
SWIDTH 714 0
DWIDTH 5 0
BBX 5 7 0 0
BITMAP
E0
10
C8
28
C8
10
E0
ENDCHAR
STARTCHAR U+22D2
ENCODING 8914
SWIDTH 714 0
DWIDTH 5 0
BBX 5 7 0 0
BITMAP
70
88
A8
A8
A8
A8
A8
ENDCHAR
STARTCHAR U+22D3
ENCODING 8915
SWIDTH 714 0
DWIDTH 5 0
BBX 5 7 0 0
BITMAP
A8
A8
A8
A8
A8
88
70
ENDCHAR
STARTCHAR U+22D4
ENCODING 8916
SWIDTH 714 0
DWIDTH 5 0
BBX 5 7 0 0
BITMAP
20
20
70
A8
A8
A8
A8
ENDCHAR
STARTCHAR U+22D5
ENCODING 8917
SWIDTH 714 0
DWIDTH 5 0
BBX 5 9 0 -1
BITMAP
50
50
50
F8
50
F8
50
50
50
ENDCHAR
STARTCHAR U+22D6
ENCODING 8918
SWIDTH 714 0
DWIDTH 5 0
BBX 4 7 0 0
BITMAP
10
20
40
90
40
20
10
ENDCHAR
STARTCHAR U+22D7
ENCODING 8919
SWIDTH 714 0
DWIDTH 5 0
BBX 4 7 1 0
BITMAP
80
40
20
90
20
40
80
ENDCHAR
STARTCHAR U+22D8
ENCODING 8920
SWIDTH 714 0
DWIDTH 5 0
BBX 6 5 -1 1
BITMAP
34
68
D0
68
34
ENDCHAR
STARTCHAR U+22D9
ENCODING 8921
SWIDTH 714 0
DWIDTH 5 0
BBX 6 5 -1 1
BITMAP
B0
58
2C
58
B0
ENDCHAR
STARTCHAR U+22DA
ENCODING 8922
SWIDTH 714 0
DWIDTH 5 0
BBX 5 11 0 -2
BITMAP
10
20
40
F8
00
F8
00
F8
10
20
40
ENDCHAR
STARTCHAR U+22DB
ENCODING 8923
SWIDTH 714 0
DWIDTH 5 0
BBX 5 11 0 -2
BITMAP
40
20
10
F8
00
F8
00
F8
40
20
10
ENDCHAR
STARTCHAR U+22DC
ENCODING 8924
SWIDTH 714 0
DWIDTH 5 0
BBX 5 6 0 -1
BITMAP
F8
00
F8
40
20
10
ENDCHAR
STARTCHAR U+22DD
ENCODING 8925
SWIDTH 714 0
DWIDTH 5 0
BBX 5 6 0 -1
BITMAP
F8
00
F8
10
20
40
ENDCHAR
STARTCHAR U+22DE
ENCODING 8926
SWIDTH 714 0
DWIDTH 5 0
BBX 5 7 0 0
BITMAP
08
30
C8
30
C0
30
08
ENDCHAR
STARTCHAR U+22DF
ENCODING 8927
SWIDTH 714 0
DWIDTH 5 0
BBX 5 7 0 0
BITMAP
80
60
98
60
18
60
80
ENDCHAR
STARTCHAR U+22E0
ENCODING 8928
SWIDTH 714 0
DWIDTH 5 0
BBX 5 9 0 -2
BITMAP
20
28
30
E0
30
E8
30
28
20
ENDCHAR
STARTCHAR U+22E1
ENCODING 8929
SWIDTH 714 0
DWIDTH 5 0
BBX 5 9 0 -2
BITMAP
20
A0
60
38
60
B8
60
A0
20
ENDCHAR
STARTCHAR U+22E2
ENCODING 8930
SWIDTH 714 0
DWIDTH 5 0
BBX 4 9 0 -2
BITMAP
20
F0
A0
A0
A0
F0
20
F0
20
ENDCHAR
STARTCHAR U+22E3
ENCODING 8931
SWIDTH 714 0
DWIDTH 5 0
BBX 4 9 0 -2
BITMAP
20
F0
30
30
30
F0
20
F0
20
ENDCHAR
STARTCHAR U+22E4
ENCODING 8932
SWIDTH 714 0
DWIDTH 5 0
BBX 4 8 0 -2
BITMAP
F0
80
80
80
F0
20
F0
40
ENDCHAR
STARTCHAR U+22E5
ENCODING 8933
SWIDTH 714 0
DWIDTH 5 0
BBX 4 8 0 -2
BITMAP
F0
10
10
10
F0
20
F0
40
ENDCHAR
STARTCHAR U+22E6
ENCODING 8934
SWIDTH 714 0
DWIDTH 5 0
BBX 5 8 0 -1
BITMAP
10
20
40
F8
20
E8
30
20
ENDCHAR
STARTCHAR U+22E7
ENCODING 8935
SWIDTH 714 0
DWIDTH 5 0
BBX 5 8 0 -1
BITMAP
40
20
10
F8
20
E8
30
20
ENDCHAR
STARTCHAR U+22E8
ENCODING 8936
SWIDTH 714 0
DWIDTH 5 0
BBX 5 8 0 -2
BITMAP
08
30
C0
30
28
60
B8
20
ENDCHAR
STARTCHAR U+22E9
ENCODING 8937
SWIDTH 714 0
DWIDTH 5 0
BBX 5 8 0 -2
BITMAP
80
60
18
60
A0
60
B8
20
ENDCHAR
STARTCHAR U+22EA
ENCODING 8938
SWIDTH 714 0
DWIDTH 5 0
BBX 5 7 0 0
BITMAP
10
18
38
E8
38
48
40
ENDCHAR
STARTCHAR U+22EB
ENCODING 8939
SWIDTH 714 0
DWIDTH 5 0
BBX 5 7 0 0
BITMAP
10
90
E0
B8
E0
C0
40
ENDCHAR
STARTCHAR U+22EC
ENCODING 8940
SWIDTH 714 0
DWIDTH 5 0
BBX 5 9 0 -2
BITMAP
20
28
38
E8
38
28
20
F8
20
ENDCHAR
STARTCHAR U+22ED
ENCODING 8941
SWIDTH 714 0
DWIDTH 5 0
BBX 5 9 0 -2
BITMAP
20
A0
E0
B8
E0
A0
20
F8
20
ENDCHAR
STARTCHAR U+22EE
ENCODING 8942
SWIDTH 714 0
DWIDTH 5 0
BBX 1 7 2 0
BITMAP
80
00
00
80
00
00
80
ENDCHAR
STARTCHAR U+22EF
ENCODING 8943
SWIDTH 714 0
DWIDTH 5 0
BBX 5 1 0 3
BITMAP
A8
ENDCHAR
STARTCHAR U+22F0
ENCODING 8944
SWIDTH 714 0
DWIDTH 5 0
BBX 5 9 0 -1
BITMAP
08
00
00
00
20
00
00
00
80
ENDCHAR
STARTCHAR U+22F1
ENCODING 8945
SWIDTH 714 0
DWIDTH 5 0
BBX 5 9 0 -1
BITMAP
80
00
00
00
20
00
00
00
08
ENDCHAR
STARTCHAR U+2300
ENCODING 8960
SWIDTH 714 0
DWIDTH 5 0
BBX 5 5 0 1
BITMAP
70
98
A8
C8
70
ENDCHAR
STARTCHAR U+2301
ENCODING 8961
SWIDTH 714 0
DWIDTH 5 0
BBX 5 3 0 2
BITMAP
A0
70
28
ENDCHAR
STARTCHAR U+2302
ENCODING 8962
SWIDTH 714 0
DWIDTH 5 0
BBX 5 6 0 0
BITMAP
20
50
88
88
88
F8
ENDCHAR
STARTCHAR U+2303
ENCODING 8963
SWIDTH 714 0
DWIDTH 5 0
BBX 5 3 0 7
BITMAP
20
50
88
ENDCHAR
STARTCHAR U+2304
ENCODING 8964
SWIDTH 714 0
DWIDTH 5 0
BBX 5 3 0 -3
BITMAP
88
50
20
ENDCHAR
STARTCHAR U+2305
ENCODING 8965
SWIDTH 714 0
DWIDTH 5 0
BBX 5 5 0 1
BITMAP
F8
00
20
50
88
ENDCHAR
STARTCHAR U+2306
ENCODING 8966
SWIDTH 714 0
DWIDTH 5 0
BBX 5 7 0 1
BITMAP
F8
00
F8
00
20
50
88
ENDCHAR
STARTCHAR U+2307
ENCODING 8967
SWIDTH 714 0
DWIDTH 5 0
BBX 3 11 1 -2
BITMAP
80
40
20
40
80
40
20
40
80
40
20
ENDCHAR
STARTCHAR U+2308
ENCODING 8968
SWIDTH 714 0
DWIDTH 5 0
BBX 3 10 0 -1
BITMAP
E0
80
80
80
80
80
80
80
80
80
ENDCHAR
STARTCHAR U+2309
ENCODING 8969
SWIDTH 714 0
DWIDTH 5 0
BBX 3 10 1 -1
BITMAP
E0
20
20
20
20
20
20
20
20
20
ENDCHAR
STARTCHAR U+230A
ENCODING 8970
SWIDTH 714 0
DWIDTH 5 0
BBX 3 10 0 -2
BITMAP
80
80
80
80
80
80
80
80
80
E0
ENDCHAR
STARTCHAR U+230B
ENCODING 8971
SWIDTH 714 0
DWIDTH 5 0
BBX 3 10 1 -2
BITMAP
20
20
20
20
20
20
20
20
20
E0
ENDCHAR
STARTCHAR U+230C
ENCODING 8972
SWIDTH 714 0
DWIDTH 5 0
BBX 3 4 2 -3
BITMAP
60
80
80
80
ENDCHAR
STARTCHAR U+230D
ENCODING 8973
SWIDTH 714 0
DWIDTH 5 0
BBX 3 4 0 -3
BITMAP
C0
20
20
20
ENDCHAR
STARTCHAR U+230E
ENCODING 8974
SWIDTH 714 0
DWIDTH 5 0
BBX 3 4 2 6
BITMAP
80
80
80
60
ENDCHAR
STARTCHAR U+230F
ENCODING 8975
SWIDTH 714 0
DWIDTH 5 0
BBX 3 4 0 6
BITMAP
20
20
20
C0
ENDCHAR
STARTCHAR U+2310
ENCODING 8976
SWIDTH 714 0
DWIDTH 5 0
BBX 4 2 0 2
BITMAP
F0
80
ENDCHAR
STARTCHAR U+2311
ENCODING 8977
SWIDTH 714 0
DWIDTH 5 0
BBX 3 3 1 2
BITMAP
A0
40
A0
ENDCHAR
STARTCHAR U+2312
ENCODING 8978
SWIDTH 714 0
DWIDTH 5 0
BBX 5 2 0 3
BITMAP
70
88
ENDCHAR
STARTCHAR U+2313
ENCODING 8979
SWIDTH 714 0
DWIDTH 5 0
BBX 5 3 0 2
BITMAP
70
88
F8
ENDCHAR
STARTCHAR U+2314
ENCODING 8980
SWIDTH 714 0
DWIDTH 5 0
BBX 5 4 0 1
BITMAP
70
88
50
20
ENDCHAR
STARTCHAR U+2315
ENCODING 8981
SWIDTH 714 0
DWIDTH 5 0
BBX 5 6 0 0
BITMAP
70
88
88
88
70
80
ENDCHAR
STARTCHAR U+2316
ENCODING 8982
SWIDTH 714 0
DWIDTH 5 0
BBX 5 7 0 0
BITMAP
20
20
70
D8
70
20
20
ENDCHAR
STARTCHAR U+2317
ENCODING 8983
SWIDTH 714 0
DWIDTH 5 0
BBX 5 8 0 0
BITMAP
50
50
F8
50
50
F8
50
50
ENDCHAR
STARTCHAR U+2318
ENCODING 8984
SWIDTH 714 0
DWIDTH 5 0
BBX 5 5 0 1
BITMAP
D8
F8
50
F8
D8
ENDCHAR
STARTCHAR U+2319
ENCODING 8985
SWIDTH 714 0
DWIDTH 5 0
BBX 4 2 0 3
BITMAP
80
F0
ENDCHAR
STARTCHAR U+231B
ENCODING 8987
SWIDTH 714 0
DWIDTH 5 0
BBX 5 8 0 0
BITMAP
F8
70
70
20
20
50
50
F8
ENDCHAR
STARTCHAR U+231C
ENCODING 8988
SWIDTH 714 0
DWIDTH 5 0
BBX 3 3 0 7
BITMAP
E0
80
80
ENDCHAR
STARTCHAR U+231D
ENCODING 8989
SWIDTH 714 0
DWIDTH 5 0
BBX 3 3 2 7
BITMAP
E0
20
20
ENDCHAR
STARTCHAR U+231E
ENCODING 8990
SWIDTH 714 0
DWIDTH 5 0
BBX 3 3 0 -3
BITMAP
80
80
E0
ENDCHAR
STARTCHAR U+231F
ENCODING 8991
SWIDTH 714 0
DWIDTH 5 0
BBX 3 3 2 -3
BITMAP
20
20
E0
ENDCHAR
STARTCHAR U+2320
ENCODING 8992
SWIDTH 714 0
DWIDTH 5 0
BBX 3 13 2 -3
BITMAP
40
A0
A0
80
80
80
80
80
80
80
80
80
80
ENDCHAR
STARTCHAR U+2321
ENCODING 8993
SWIDTH 714 0
DWIDTH 5 0
BBX 3 13 0 -3
BITMAP
20
20
20
20
20
20
20
20
20
20
A0
A0
40
ENDCHAR
STARTCHAR U+2322
ENCODING 8994
SWIDTH 714 0
DWIDTH 5 0
BBX 5 2 0 2
BITMAP
70
88
ENDCHAR
STARTCHAR U+2323
ENCODING 8995
SWIDTH 714 0
DWIDTH 5 0
BBX 5 2 0 3
BITMAP
88
70
ENDCHAR
STARTCHAR U+2324
ENCODING 8996
SWIDTH 714 0
DWIDTH 5 0
BBX 5 4 0 1
BITMAP
D8
20
50
88
ENDCHAR
STARTCHAR U+2325
ENCODING 8997
SWIDTH 714 0
DWIDTH 5 0
BBX 5 6 0 0
BITMAP
D8
40
20
20
10
18
ENDCHAR
STARTCHAR U+2329
ENCODING 9001
SWIDTH 714 0
DWIDTH 5 0
BBX 4 13 0 -3
BITMAP
10
10
20
20
40
40
80
40
40
20
20
10
10
ENDCHAR
STARTCHAR U+232A
ENCODING 9002
SWIDTH 714 0
DWIDTH 5 0
BBX 4 13 0 -3
BITMAP
80
80
40
40
20
20
10
20
20
40
40
80
80
ENDCHAR
STARTCHAR U+2336
ENCODING 9014
SWIDTH 714 0
DWIDTH 5 0
BBX 5 7 0 0
BITMAP
F8
20
20
20
20
20
F8
ENDCHAR
STARTCHAR U+2337
ENCODING 9015
SWIDTH 714 0
DWIDTH 5 0
BBX 4 9 0 -1
BITMAP
F0
90
90
90
90
90
90
90
F0
ENDCHAR
STARTCHAR U+2338
ENCODING 9016
SWIDTH 714 0
DWIDTH 5 0
BBX 5 9 0 -1
BITMAP
F8
88
00
F8
00
F8
00
88
F8
ENDCHAR
STARTCHAR U+2339
ENCODING 9017
SWIDTH 714 0
DWIDTH 5 0
BBX 5 9 0 -1
BITMAP
F8
88
A8
00
F8
00
A8
88
F8
ENDCHAR
STARTCHAR U+233A
ENCODING 9018
SWIDTH 714 0
DWIDTH 5 0
BBX 5 9 0 -1
BITMAP
F8
88
A8
50
88
50
A8
88
F8
ENDCHAR
STARTCHAR U+233B
ENCODING 9019
SWIDTH 714 0
DWIDTH 5 0
BBX 5 9 0 -1
BITMAP
F8
88
88
A8
50
A8
88
88
F8
ENDCHAR
STARTCHAR U+233C
ENCODING 9020
SWIDTH 714 0
DWIDTH 5 0
BBX 5 9 0 -1
BITMAP
F8
88
70
88
88
88
70
88
F8
ENDCHAR
STARTCHAR U+233D
ENCODING 9021
SWIDTH 714 0
DWIDTH 5 0
BBX 5 11 0 -2
BITMAP
20
20
20
70
A8
A8
A8
70
20
20
20
ENDCHAR
STARTCHAR U+233E
ENCODING 9022
SWIDTH 714 0
DWIDTH 5 0
BBX 5 5 0 1
BITMAP
70
88
A8
88
70
ENDCHAR
STARTCHAR U+233F
ENCODING 9023
SWIDTH 714 0
DWIDTH 5 0
BBX 4 10 0 -1
BITMAP
10
10
20
20
20
F0
40
40
80
80
ENDCHAR
STARTCHAR U+2340
ENCODING 9024
SWIDTH 714 0
DWIDTH 5 0
BBX 4 10 0 -1
BITMAP
80
80
40
40
40
F0
20
20
10
10
ENDCHAR
STARTCHAR U+2341
ENCODING 9025
SWIDTH 714 0
DWIDTH 5 0
BBX 5 9 0 -1
BITMAP
F8
98
98
A8
A8
A8
C8
C8
F8
ENDCHAR
STARTCHAR U+2342
ENCODING 9026
SWIDTH 714 0
DWIDTH 5 0
BBX 5 9 0 -1
BITMAP
F8
C8
C8
A8
A8
A8
98
98
F8
ENDCHAR
STARTCHAR U+2343
ENCODING 9027
SWIDTH 714 0
DWIDTH 5 0
BBX 5 9 0 -1
BITMAP
F8
88
98
A8
C8
A8
98
88
F8
ENDCHAR
STARTCHAR U+2344
ENCODING 9028
SWIDTH 714 0
DWIDTH 5 0
BBX 5 9 0 -1
BITMAP
F8
88
C8
A8
98
A8
C8
88
F8
ENDCHAR
STARTCHAR U+2345
ENCODING 9029
SWIDTH 714 0
DWIDTH 5 0
BBX 5 9 0 -1
BITMAP
10
10
10
50
F8
50
10
10
10
ENDCHAR
STARTCHAR U+2346
ENCODING 9030
SWIDTH 714 0
DWIDTH 5 0
BBX 5 9 0 -1
BITMAP
40
40
40
50
F8
50
40
40
40
ENDCHAR
STARTCHAR U+2347
ENCODING 9031
SWIDTH 714 0
DWIDTH 5 0
BBX 5 9 0 -1
BITMAP
F8
88
28
40
F8
40
28
88
F8
ENDCHAR
STARTCHAR U+2348
ENCODING 9032
SWIDTH 714 0
DWIDTH 5 0
BBX 5 9 0 -1
BITMAP
F8
88
A0
10
F8
10
A0
88
F8
ENDCHAR
STARTCHAR U+2349
ENCODING 9033
SWIDTH 714 0
DWIDTH 5 0
BBX 5 9 0 -1
BITMAP
80
40
70
A8
A8
A8
70
10
08
ENDCHAR
STARTCHAR U+234A
ENCODING 9034
SWIDTH 714 0
DWIDTH 5 0
BBX 5 10 0 -2
BITMAP
20
20
20
20
20
20
20
F8
00
F8
ENDCHAR
STARTCHAR U+234B
ENCODING 9035
SWIDTH 714 0
DWIDTH 5 0
BBX 5 11 0 -2
BITMAP
20
20
20
20
20
70
70
A8
F8
20
20
ENDCHAR
STARTCHAR U+234C
ENCODING 9036
SWIDTH 714 0
DWIDTH 5 0
BBX 5 9 0 -1
BITMAP
F8
88
88
88
50
A8
88
88
F8
ENDCHAR
STARTCHAR U+234D
ENCODING 9037
SWIDTH 714 0
DWIDTH 5 0
BBX 5 9 0 -1
BITMAP
F8
88
A8
A8
50
50
F8
88
F8
ENDCHAR
STARTCHAR U+234E
ENCODING 9038
SWIDTH 714 0
DWIDTH 5 0
BBX 5 7 0 0
BITMAP
20
20
70
50
70
20
F8
ENDCHAR
STARTCHAR U+234F
ENCODING 9039
SWIDTH 714 0
DWIDTH 5 0
BBX 5 8 0 -1
BITMAP
20
70
20
F8
20
20
20
20
ENDCHAR
STARTCHAR U+2350
ENCODING 9040
SWIDTH 714 0
DWIDTH 5 0
BBX 5 9 0 -1
BITMAP
F8
20
70
A8
20
A8
A8
88
F8
ENDCHAR
STARTCHAR U+2351
ENCODING 9041
SWIDTH 714 0
DWIDTH 5 0
BBX 5 9 0 0
BITMAP
F8
00
F8
20
20
20
20
20
20
ENDCHAR
STARTCHAR U+2352
ENCODING 9042
SWIDTH 714 0
DWIDTH 5 0
BBX 5 11 0 -2
BITMAP
20
20
20
F8
A8
70
70
20
20
20
20
ENDCHAR
STARTCHAR U+2353
ENCODING 9043
SWIDTH 714 0
DWIDTH 5 0
BBX 5 9 0 -1
BITMAP
F8
88
88
A8
50
88
88
88
F8
ENDCHAR
STARTCHAR U+2354
ENCODING 9044
SWIDTH 714 0
DWIDTH 5 0
BBX 5 9 0 -1
BITMAP
F8
88
F8
50
50
A8
A8
88
F8
ENDCHAR
STARTCHAR U+2355
ENCODING 9045
SWIDTH 714 0
DWIDTH 5 0
BBX 5 7 0 0
BITMAP
F8
20
70
50
70
20
20
ENDCHAR
STARTCHAR U+2356
ENCODING 9046
SWIDTH 714 0
DWIDTH 5 0
BBX 5 8 0 0
BITMAP
20
20
20
20
F8
20
70
20
ENDCHAR
STARTCHAR U+2357
ENCODING 9047
SWIDTH 714 0
DWIDTH 5 0
BBX 5 9 0 -1
BITMAP
F8
88
A8
A8
20
A8
70
20
F8
ENDCHAR
STARTCHAR U+2358
ENCODING 9048
SWIDTH 714 0
DWIDTH 5 0
BBX 3 10 0 -2
BITMAP
40
40
40
00
00
00
00
00
00
E0
ENDCHAR
STARTCHAR U+2359
ENCODING 9049
SWIDTH 714 0
DWIDTH 5 0
BBX 5 8 0 -2
BITMAP
20
20
50
50
88
F8
00
F8
ENDCHAR
STARTCHAR U+235A
ENCODING 9050
SWIDTH 714 0
DWIDTH 5 0
BBX 5 8 0 -2
BITMAP
20
50
88
50
20
00
00
F8
ENDCHAR
STARTCHAR U+235B
ENCODING 9051
SWIDTH 714 0
DWIDTH 5 0
BBX 3 7 0 -2
BITMAP
40
A0
40
00
00
00
E0
ENDCHAR
STARTCHAR U+235C
ENCODING 9052
SWIDTH 714 0
DWIDTH 5 0
BBX 5 8 0 -2
BITMAP
70
88
88
88
70
00
00
F8
ENDCHAR
STARTCHAR U+235D
ENCODING 9053
SWIDTH 714 0
DWIDTH 5 0
BBX 5 7 0 0
BITMAP
70
88
A8
D8
A8
88
88
ENDCHAR
STARTCHAR U+235E
ENCODING 9054
SWIDTH 714 0
DWIDTH 5 0
BBX 5 9 0 -1
BITMAP
F8
A8
A8
88
88
88
88
88
F8
ENDCHAR
STARTCHAR U+235F
ENCODING 9055
SWIDTH 714 0
DWIDTH 5 0
BBX 5 5 0 1
BITMAP
70
D8
A8
D8
70
ENDCHAR
STARTCHAR U+2360
ENCODING 9056
SWIDTH 714 0
DWIDTH 5 0
BBX 5 9 0 -1
BITMAP
F8
88
A8
88
88
88
A8
88
F8
ENDCHAR
STARTCHAR U+2361
ENCODING 9057
SWIDTH 714 0
DWIDTH 5 0
BBX 5 9 0 0
BITMAP
50
00
F8
20
20
20
20
20
20
ENDCHAR
STARTCHAR U+2362
ENCODING 9058
SWIDTH 714 0
DWIDTH 5 0
BBX 5 8 0 0
BITMAP
50
00
F8
88
50
50
20
20
ENDCHAR
STARTCHAR U+2363
ENCODING 9059
SWIDTH 714 0
DWIDTH 5 0
BBX 3 6 0 1
BITMAP
A0
00
40
E0
40
A0
ENDCHAR
STARTCHAR U+2364
ENCODING 9060
SWIDTH 714 0
DWIDTH 5 0
BBX 3 5 0 2
BITMAP
A0
00
40
A0
40
ENDCHAR
STARTCHAR U+2365
ENCODING 9061
SWIDTH 714 0
DWIDTH 5 0
BBX 5 7 0 1
BITMAP
50
00
70
88
88
88
70
ENDCHAR
STARTCHAR U+2366
ENCODING 9062
SWIDTH 714 0
DWIDTH 5 0
BBX 5 11 0 -2
BITMAP
20
20
20
A8
A8
A8
A8
70
20
20
20
ENDCHAR
STARTCHAR U+2367
ENCODING 9063
SWIDTH 714 0
DWIDTH 5 0
BBX 4 11 0 -2
BITMAP
20
20
20
70
A0
A0
A0
70
20
20
20
ENDCHAR
STARTCHAR U+2368
ENCODING 9064
SWIDTH 714 0
DWIDTH 5 0
BBX 5 5 0 2
BITMAP
50
00
48
A8
90
ENDCHAR
STARTCHAR U+2369
ENCODING 9065
SWIDTH 714 0
DWIDTH 5 0
BBX 5 6 0 1
BITMAP
50
00
F8
10
20
40
ENDCHAR
STARTCHAR U+236A
ENCODING 9066
SWIDTH 714 0
DWIDTH 5 0
BBX 3 5 0 -1
BITMAP
E0
00
40
40
80
ENDCHAR
STARTCHAR U+236B
ENCODING 9067
SWIDTH 714 0
DWIDTH 5 0
BBX 5 9 0 0
BITMAP
60
98
00
F8
88
50
50
20
20
ENDCHAR
STARTCHAR U+236C
ENCODING 9068
SWIDTH 714 0
DWIDTH 5 0
BBX 5 9 0 -1
BITMAP
70
88
88
60
98
00
88
88
70
ENDCHAR
STARTCHAR U+236D
ENCODING 9069
SWIDTH 714 0
DWIDTH 5 0
BBX 5 11 0 -2
BITMAP
20
20
20
20
68
B0
20
20
20
20
20
ENDCHAR
STARTCHAR U+236E
ENCODING 9070
SWIDTH 714 0
DWIDTH 5 0
BBX 3 7 0 -2
BITMAP
40
00
40
40
80
00
E0
ENDCHAR
STARTCHAR U+236F
ENCODING 9071
SWIDTH 714 0
DWIDTH 5 0
BBX 5 9 0 -1
BITMAP
F8
80
10
F8
20
F8
40
08
F8
ENDCHAR
STARTCHAR U+2370
ENCODING 9072
SWIDTH 714 0
DWIDTH 5 0
BBX 5 9 0 -1
BITMAP
F8
88
A0
90
A0
88
A8
88
F8
ENDCHAR
STARTCHAR U+2371
ENCODING 9073
SWIDTH 714 0
DWIDTH 5 0
BBX 5 9 0 0
BITMAP
60
98
00
88
88
50
50
20
20
ENDCHAR
STARTCHAR U+2372
ENCODING 9074
SWIDTH 714 0
DWIDTH 5 0
BBX 5 9 0 0
BITMAP
60
98
00
20
20
50
50
88
88
ENDCHAR
STARTCHAR U+2373
ENCODING 9075
SWIDTH 714 0
DWIDTH 5 0
BBX 4 5 0 0
BITMAP
40
C0
40
50
20
ENDCHAR
STARTCHAR U+2374
ENCODING 9076
SWIDTH 714 0
DWIDTH 5 0
BBX 4 7 0 -2
BITMAP
60
90
90
90
A0
80
80
ENDCHAR
STARTCHAR U+2375
ENCODING 9077
SWIDTH 714 0
DWIDTH 5 0
BBX 5 5 0 0
BITMAP
50
88
A8
A8
50
ENDCHAR
STARTCHAR U+2376
ENCODING 9078
SWIDTH 714 0
DWIDTH 5 0
BBX 5 7 0 -2
BITMAP
68
90
90
90
68
00
F8
ENDCHAR
STARTCHAR U+2377
ENCODING 9079
SWIDTH 714 0
DWIDTH 5 0
BBX 4 7 0 -2
BITMAP
60
80
40
90
60
00
F0
ENDCHAR
STARTCHAR U+2378
ENCODING 9080
SWIDTH 714 0
DWIDTH 5 0
BBX 4 7 0 -2
BITMAP
40
C0
40
50
20
00
F0
ENDCHAR
STARTCHAR U+2379
ENCODING 9081
SWIDTH 714 0
DWIDTH 5 0
BBX 5 7 0 -2
BITMAP
50
88
A8
A8
50
00
F8
ENDCHAR
STARTCHAR U+237A
ENCODING 9082
SWIDTH 714 0
DWIDTH 5 0
BBX 5 5 0 0
BITMAP
68
90
90
90
68
ENDCHAR
STARTCHAR U+2385
ENCODING 9093
SWIDTH 714 0
DWIDTH 5 0
BBX 5 7 0 0
BITMAP
20
E8
A8
A8
A8
E8
20
ENDCHAR
STARTCHAR U+2387
ENCODING 9095
SWIDTH 714 0
DWIDTH 5 0
BBX 5 4 0 1
BITMAP
18
20
40
D8
ENDCHAR
STARTCHAR U+238B
ENCODING 9099
SWIDTH 714 0
DWIDTH 5 0
BBX 5 5 0 1
BITMAP
D0
C8
28
98
70
ENDCHAR
STARTCHAR U+238C
ENCODING 9100
SWIDTH 714 0
DWIDTH 5 0
BBX 5 6 0 1
BITMAP
70
88
C0
00
D8
D8
ENDCHAR
STARTCHAR U+238D
ENCODING 9101
SWIDTH 714 0
DWIDTH 5 0
BBX 5 8 0 0
BITMAP
70
50
50
50
50
50
50
D8
ENDCHAR
STARTCHAR U+238E
ENCODING 9102
SWIDTH 714 0
DWIDTH 5 0
BBX 5 8 0 0
BITMAP
38
50
50
50
50
50
50
E0
ENDCHAR
STARTCHAR U+238F
ENCODING 9103
SWIDTH 714 0
DWIDTH 5 0
BBX 5 6 0 1
BITMAP
F8
20
50
88
50
20
ENDCHAR
STARTCHAR U+2390
ENCODING 9104
SWIDTH 714 0
DWIDTH 5 0
BBX 5 6 0 0
BITMAP
20
50
88
50
20
F8
ENDCHAR
STARTCHAR U+2391
ENCODING 9105
SWIDTH 714 0
DWIDTH 5 0
BBX 5 6 0 1
BITMAP
F8
20
50
F8
50
20
ENDCHAR
STARTCHAR U+2392
ENCODING 9106
SWIDTH 714 0
DWIDTH 5 0
BBX 5 6 0 0
BITMAP
20
50
F8
50
20
F8
ENDCHAR
STARTCHAR U+2395
ENCODING 9109
SWIDTH 714 0
DWIDTH 5 0
BBX 5 9 0 -1
BITMAP
F8
88
88
88
88
88
88
88
F8
ENDCHAR
STARTCHAR U+2396
ENCODING 9110
SWIDTH 714 0
DWIDTH 5 0
BBX 4 8 0 0
BITMAP
F0
F0
E0
E0
C0
C0
80
80
ENDCHAR
STARTCHAR U+239B
ENCODING 9115
SWIDTH 714 0
DWIDTH 5 0
BBX 4 13 1 -3
BITMAP
10
20
20
40
40
40
80
80
80
80
80
80
80
ENDCHAR
STARTCHAR U+239C
ENCODING 9116
SWIDTH 714 0
DWIDTH 5 0
BBX 1 13 1 -3
BITMAP
80
80
80
80
80
80
80
80
80
80
80
80
80
ENDCHAR
STARTCHAR U+239D
ENCODING 9117
SWIDTH 714 0
DWIDTH 5 0
BBX 4 13 1 -3
BITMAP
80
80
80
80
80
80
80
40
40
40
20
20
10
ENDCHAR
STARTCHAR U+239E
ENCODING 9118
SWIDTH 714 0
DWIDTH 5 0
BBX 4 13 0 -3
BITMAP
80
40
40
20
20
20
10
10
10
10
10
10
10
ENDCHAR
STARTCHAR U+239F
ENCODING 9119
SWIDTH 714 0
DWIDTH 5 0
BBX 1 13 3 -3
BITMAP
80
80
80
80
80
80
80
80
80
80
80
80
80
ENDCHAR
STARTCHAR U+23A0
ENCODING 9120
SWIDTH 714 0
DWIDTH 5 0
BBX 4 13 0 -3
BITMAP
10
10
10
10
10
10
10
20
20
20
40
40
80
ENDCHAR
STARTCHAR U+23A1
ENCODING 9121
SWIDTH 714 0
DWIDTH 5 0
BBX 3 13 1 -3
BITMAP
E0
80
80
80
80
80
80
80
80
80
80
80
80
ENDCHAR
STARTCHAR U+23A2
ENCODING 9122
SWIDTH 714 0
DWIDTH 5 0
BBX 1 13 1 -3
BITMAP
80
80
80
80
80
80
80
80
80
80
80
80
80
ENDCHAR
STARTCHAR U+23A3
ENCODING 9123
SWIDTH 714 0
DWIDTH 5 0
BBX 3 13 1 -3
BITMAP
80
80
80
80
80
80
80
80
80
80
80
80
E0
ENDCHAR
STARTCHAR U+23A4
ENCODING 9124
SWIDTH 714 0
DWIDTH 5 0
BBX 3 13 1 -3
BITMAP
E0
20
20
20
20
20
20
20
20
20
20
20
20
ENDCHAR
STARTCHAR U+23A5
ENCODING 9125
SWIDTH 714 0
DWIDTH 5 0
BBX 1 13 3 -3
BITMAP
80
80
80
80
80
80
80
80
80
80
80
80
80
ENDCHAR
STARTCHAR U+23A6
ENCODING 9126
SWIDTH 714 0
DWIDTH 5 0
BBX 3 13 1 -3
BITMAP
20
20
20
20
20
20
20
20
20
20
20
20
E0
ENDCHAR
STARTCHAR U+23A7
ENCODING 9127
SWIDTH 714 0
DWIDTH 5 0
BBX 3 13 2 -3
BITMAP
60
80
80
80
80
80
80
80
80
80
80
80
80
ENDCHAR
STARTCHAR U+23A8
ENCODING 9128
SWIDTH 714 0
DWIDTH 5 0
BBX 3 13 0 -3
BITMAP
20
20
20
20
20
20
C0
20
20
20
20
20
20
ENDCHAR
STARTCHAR U+23A9
ENCODING 9129
SWIDTH 714 0
DWIDTH 5 0
BBX 3 13 2 -3
BITMAP
80
80
80
80
80
80
80
80
80
80
80
80
60
ENDCHAR
STARTCHAR U+23AA
ENCODING 9130
SWIDTH 714 0
DWIDTH 5 0
BBX 1 13 2 -3
BITMAP
80
80
80
80
80
80
80
80
80
80
80
80
80
ENDCHAR
STARTCHAR U+23AB
ENCODING 9131
SWIDTH 714 0
DWIDTH 5 0
BBX 3 13 0 -3
BITMAP
C0
20
20
20
20
20
20
20
20
20
20
20
20
ENDCHAR
STARTCHAR U+23AC
ENCODING 9132
SWIDTH 714 0
DWIDTH 5 0
BBX 3 13 2 -3
BITMAP
80
80
80
80
80
80
60
80
80
80
80
80
80
ENDCHAR
STARTCHAR U+23AD
ENCODING 9133
SWIDTH 714 0
DWIDTH 5 0
BBX 3 13 0 -3
BITMAP
20
20
20
20
20
20
20
20
20
20
20
20
C0
ENDCHAR
STARTCHAR U+23AE
ENCODING 9134
SWIDTH 714 0
DWIDTH 5 0
BBX 1 13 2 -3
BITMAP
80
80
80
80
80
80
80
80
80
80
80
80
80
ENDCHAR
STARTCHAR U+23AF
ENCODING 9135
SWIDTH 714 0
DWIDTH 5 0
BBX 5 1 0 3
BITMAP
F8
ENDCHAR
STARTCHAR U+23B0
ENCODING 9136
SWIDTH 714 0
DWIDTH 5 0
BBX 5 13 0 -3
BITMAP
18
20
20
20
20
20
20
20
20
20
20
20
C0
ENDCHAR
STARTCHAR U+23B1
ENCODING 9137
SWIDTH 714 0
DWIDTH 5 0
BBX 5 13 0 -3
BITMAP
C0
20
20
20
20
20
20
20
20
20
20
20
18
ENDCHAR
STARTCHAR U+23B2
ENCODING 9138
SWIDTH 714 0
DWIDTH 5 0
BBX 5 12 0 -3
BITMAP
F8
48
40
40
40
40
20
20
20
20
20
10
ENDCHAR
STARTCHAR U+23B3
ENCODING 9139
SWIDTH 714 0
DWIDTH 5 0
BBX 5 12 0 -2
BITMAP
10
20
20
20
20
20
40
40
40
40
48
F8
ENDCHAR
STARTCHAR U+23B4
ENCODING 9140
SWIDTH 714 0
DWIDTH 5 0
BBX 5 2 0 7
BITMAP
F8
88
ENDCHAR
STARTCHAR U+23B5
ENCODING 9141
SWIDTH 714 0
DWIDTH 5 0
BBX 5 2 0 -2
BITMAP
88
F8
ENDCHAR
STARTCHAR U+23B6
ENCODING 9142
SWIDTH 714 0
DWIDTH 5 0
BBX 5 5 0 1
BITMAP
88
F8
00
F8
88
ENDCHAR
STARTCHAR U+23B7
ENCODING 9143
SWIDTH 714 0
DWIDTH 5 0
BBX 3 11 0 -1
BITMAP
20
20
20
20
20
20
A0
60
60
20
20
ENDCHAR
STARTCHAR U+23B8
ENCODING 9144
SWIDTH 714 0
DWIDTH 5 0
BBX 1 13 1 -3
BITMAP
80
80
80
80
80
80
80
80
80
80
80
80
80
ENDCHAR
STARTCHAR U+23B9
ENCODING 9145
SWIDTH 714 0
DWIDTH 5 0
BBX 1 13 3 -3
BITMAP
80
80
80
80
80
80
80
80
80
80
80
80
80
ENDCHAR
STARTCHAR U+23BA
ENCODING 9146
SWIDTH 714 0
DWIDTH 5 0
BBX 4 1 1 8
BITMAP
F0
ENDCHAR
STARTCHAR U+23BB
ENCODING 9147
SWIDTH 714 0
DWIDTH 5 0
BBX 4 1 1 5
BITMAP
F0
ENDCHAR
STARTCHAR U+23BC
ENCODING 9148
SWIDTH 714 0
DWIDTH 5 0
BBX 4 1 1 2
BITMAP
F0
ENDCHAR
STARTCHAR U+23BD
ENCODING 9149
SWIDTH 714 0
DWIDTH 5 0
BBX 4 1 1 -1
BITMAP
F0
ENDCHAR
STARTCHAR U+23BE
ENCODING 9150
SWIDTH 714 0
DWIDTH 5 0
BBX 5 11 0 -3
BITMAP
F8
80
80
80
80
80
80
80
80
80
80
ENDCHAR
STARTCHAR U+23BF
ENCODING 9151
SWIDTH 714 0
DWIDTH 5 0
BBX 5 11 0 -1
BITMAP
80
80
80
80
80
80
80
80
80
80
F8
ENDCHAR
STARTCHAR U+23C0
ENCODING 9152
SWIDTH 714 0
DWIDTH 5 0
BBX 5 13 0 -3
BITMAP
20
20
20
20
70
A8
A8
A8
70
20
20
20
20
ENDCHAR
STARTCHAR U+23C1
ENCODING 9153
SWIDTH 714 0
DWIDTH 5 0
BBX 5 11 0 -3
BITMAP
F8
20
70
A8
A8
A8
70
20
20
20
20
ENDCHAR
STARTCHAR U+23C2
ENCODING 9154
SWIDTH 714 0
DWIDTH 5 0
BBX 5 11 0 -1
BITMAP
20
20
20
20
70
A8
A8
A8
70
20
F8
ENDCHAR
STARTCHAR U+23C3
ENCODING 9155
SWIDTH 714 0
DWIDTH 5 0
BBX 5 13 0 -3
BITMAP
20
20
20
00
20
20
70
70
F8
20
20
20
20
ENDCHAR
STARTCHAR U+23C4
ENCODING 9156
SWIDTH 714 0
DWIDTH 5 0
BBX 5 11 0 -3
BITMAP
F8
00
20
20
70
70
F8
20
20
20
20
ENDCHAR
STARTCHAR U+23C5
ENCODING 9157
SWIDTH 714 0
DWIDTH 5 0
BBX 5 11 0 -1
BITMAP
20
20
20
00
20
20
50
50
F8
20
F8
ENDCHAR
STARTCHAR U+23C6
ENCODING 9158
SWIDTH 714 0
DWIDTH 5 0
BBX 5 13 0 -3
BITMAP
20
20
20
20
20
20
68
B0
20
20
20
20
20
ENDCHAR
STARTCHAR U+23C7
ENCODING 9159
SWIDTH 714 0
DWIDTH 5 0
BBX 5 11 0 -3
BITMAP
F8
20
20
20
68
B0
20
20
20
20
20
ENDCHAR
STARTCHAR U+23C8
ENCODING 9160
SWIDTH 714 0
DWIDTH 5 0
BBX 5 11 0 -1
BITMAP
20
20
20
20
20
20
68
B0
20
20
F8
ENDCHAR
STARTCHAR U+23C9
ENCODING 9161
SWIDTH 714 0
DWIDTH 5 0
BBX 5 11 0 -3
BITMAP
F8
20
20
20
20
20
20
20
20
20
20
ENDCHAR
STARTCHAR U+23CA
ENCODING 9162
SWIDTH 714 0
DWIDTH 5 0
BBX 5 11 0 -1
BITMAP
20
20
20
20
20
20
20
20
20
20
F8
ENDCHAR
STARTCHAR U+23CB
ENCODING 9163
SWIDTH 714 0
DWIDTH 5 0
BBX 5 11 0 -3
BITMAP
F8
08
08
08
08
08
08
08
08
08
08
ENDCHAR
STARTCHAR U+23CC
ENCODING 9164
SWIDTH 714 0
DWIDTH 5 0
BBX 5 11 0 -1
BITMAP
08
08
08
08
08
08
08
08
08
08
F8
ENDCHAR
STARTCHAR U+23CD
ENCODING 9165
SWIDTH 714 0
DWIDTH 5 0
BBX 5 7 0 1
BITMAP
20
B8
A8
88
88
88
F8
ENDCHAR
STARTCHAR U+23CE
ENCODING 9166
SWIDTH 714 0
DWIDTH 5 0
BBX 5 6 0 2
BITMAP
18
18
18
58
F0
40
ENDCHAR
STARTCHAR U+23CF
ENCODING 9167
SWIDTH 714 0
DWIDTH 5 0
BBX 5 6 0 1
BITMAP
20
70
F8
00
F8
F8
ENDCHAR
STARTCHAR U+23DA
ENCODING 9178
SWIDTH 714 0
DWIDTH 5 0
BBX 5 9 0 -3
BITMAP
20
20
20
20
F8
00
70
00
20
ENDCHAR
STARTCHAR U+23E8
ENCODING 9192
SWIDTH 714 0
DWIDTH 5 0
BBX 5 5 0 -2
BITMAP
50
E8
68
68
50
ENDCHAR
STARTCHAR U+23E9
ENCODING 9193
SWIDTH 714 0
DWIDTH 5 0
BBX 5 5 0 0
BITMAP
A0
F0
F8
F0
A0
ENDCHAR
STARTCHAR U+23EA
ENCODING 9194
SWIDTH 714 0
DWIDTH 5 0
BBX 5 5 0 0
BITMAP
28
78
F8
78
28
ENDCHAR
STARTCHAR U+23EB
ENCODING 9195
SWIDTH 714 0
DWIDTH 5 0
BBX 5 5 0 0
BITMAP
20
70
F8
70
F8
ENDCHAR
STARTCHAR U+23EC
ENCODING 9196
SWIDTH 714 0
DWIDTH 5 0
BBX 5 5 0 0
BITMAP
F8
70
F8
70
20
ENDCHAR
STARTCHAR U+23ED
ENCODING 9197
SWIDTH 714 0
DWIDTH 5 0
BBX 5 9 0 -2
BITMAP
08
08
A0
F0
F8
F0
A0
08
08
ENDCHAR
STARTCHAR U+23EE
ENCODING 9198
SWIDTH 714 0
DWIDTH 5 0
BBX 5 9 0 -2
BITMAP
80
80
28
78
F8
78
28
80
80
ENDCHAR
STARTCHAR U+23EF
ENCODING 9199
SWIDTH 714 0
DWIDTH 5 0
BBX 5 5 0 0
BITMAP
98
D8
F8
D8
98
ENDCHAR
STARTCHAR U+23F4
ENCODING 9204
SWIDTH 714 0
DWIDTH 5 0
BBX 3 5 0 1
BITMAP
20
60
E0
60
20
ENDCHAR
STARTCHAR U+23F5
ENCODING 9205
SWIDTH 714 0
DWIDTH 5 0
BBX 3 5 1 1
BITMAP
80
C0
E0
C0
80
ENDCHAR
STARTCHAR U+23F6
ENCODING 9206
SWIDTH 714 0
DWIDTH 5 0
BBX 5 3 0 2
BITMAP
20
70
F8
ENDCHAR
STARTCHAR U+23F7
ENCODING 9207
SWIDTH 714 0
DWIDTH 5 0
BBX 5 3 0 2
BITMAP
F8
70
20
ENDCHAR
STARTCHAR U+23F8
ENCODING 9208
SWIDTH 714 0
DWIDTH 5 0
BBX 3 5 0 1
BITMAP
A0
A0
A0
A0
A0
ENDCHAR
STARTCHAR U+23F9
ENCODING 9209
SWIDTH 714 0
DWIDTH 5 0
BBX 3 3 0 2
BITMAP
E0
E0
E0
ENDCHAR
STARTCHAR U+23FA
ENCODING 9210
SWIDTH 714 0
DWIDTH 5 0
BBX 4 4 0 1
BITMAP
60
F0
F0
60
ENDCHAR
STARTCHAR U+23FB
ENCODING 9211
SWIDTH 714 0
DWIDTH 5 0
BBX 5 6 0 1
BITMAP
20
20
A8
A8
88
70
ENDCHAR
STARTCHAR U+2500
ENCODING 9472
SWIDTH 714 0
DWIDTH 5 0
BBX 5 1 0 3
BITMAP
F8
ENDCHAR
STARTCHAR U+2501
ENCODING 9473
SWIDTH 714 0
DWIDTH 5 0
BBX 5 3 0 2
BITMAP
F8
F8
F8
ENDCHAR
STARTCHAR U+2502
ENCODING 9474
SWIDTH 714 0
DWIDTH 5 0
BBX 1 13 2 -3
BITMAP
80
80
80
80
80
80
80
80
80
80
80
80
80
ENDCHAR
STARTCHAR U+2503
ENCODING 9475
SWIDTH 714 0
DWIDTH 5 0
BBX 3 13 1 -3
BITMAP
E0
E0
E0
E0
E0
E0
E0
E0
E0
E0
E0
E0
E0
ENDCHAR
STARTCHAR U+2504
ENCODING 9476
SWIDTH 714 0
DWIDTH 5 0
BBX 5 1 0 3
BITMAP
A8
ENDCHAR
STARTCHAR U+2505
ENCODING 9477
SWIDTH 714 0
DWIDTH 5 0
BBX 5 3 0 2
BITMAP
A8
A8
A8
ENDCHAR
STARTCHAR U+2506
ENCODING 9478
SWIDTH 714 0
DWIDTH 5 0
BBX 1 11 2 -2
BITMAP
80
80
80
00
80
80
80
00
80
80
80
ENDCHAR
STARTCHAR U+2507
ENCODING 9479
SWIDTH 714 0
DWIDTH 5 0
BBX 3 11 1 -2
BITMAP
E0
E0
E0
00
E0
E0
E0
00
E0
E0
E0
ENDCHAR
STARTCHAR U+2508
ENCODING 9480
SWIDTH 714 0
DWIDTH 5 0
BBX 5 3 0 2
BITMAP
20
88
20
ENDCHAR
STARTCHAR U+2509
ENCODING 9481
SWIDTH 714 0
DWIDTH 5 0
BBX 5 5 0 1
BITMAP
20
A8
88
A8
20
ENDCHAR
STARTCHAR U+250A
ENCODING 9482
SWIDTH 714 0
DWIDTH 5 0
BBX 1 11 2 -2
BITMAP
80
80
00
80
80
00
80
80
00
80
80
ENDCHAR
STARTCHAR U+250B
ENCODING 9483
SWIDTH 714 0
DWIDTH 5 0
BBX 3 11 1 -2
BITMAP
E0
E0
00
E0
E0
00
E0
E0
00
E0
E0
ENDCHAR
STARTCHAR U+250C
ENCODING 9484
SWIDTH 714 0
DWIDTH 5 0
BBX 3 7 2 -3
BITMAP
E0
80
80
80
80
80
80
ENDCHAR
STARTCHAR U+250D
ENCODING 9485
SWIDTH 714 0
DWIDTH 5 0
BBX 3 8 2 -3
BITMAP
E0
E0
E0
80
80
80
80
80
ENDCHAR
STARTCHAR U+250E
ENCODING 9486
SWIDTH 714 0
DWIDTH 5 0
BBX 4 7 1 -3
BITMAP
F0
E0
E0
E0
E0
E0
E0
ENDCHAR
STARTCHAR U+250F
ENCODING 9487
SWIDTH 714 0
DWIDTH 5 0
BBX 4 8 1 -3
BITMAP
F0
F0
F0
E0
E0
E0
E0
E0
ENDCHAR
STARTCHAR U+2510
ENCODING 9488
SWIDTH 714 0
DWIDTH 5 0
BBX 3 7 0 -3
BITMAP
E0
20
20
20
20
20
20
ENDCHAR
STARTCHAR U+2511
ENCODING 9489
SWIDTH 714 0
DWIDTH 5 0
BBX 3 8 0 -3
BITMAP
E0
E0
E0
20
20
20
20
20
ENDCHAR
STARTCHAR U+2512
ENCODING 9490
SWIDTH 714 0
DWIDTH 5 0
BBX 4 7 0 -3
BITMAP
F0
70
70
70
70
70
70
ENDCHAR
STARTCHAR U+2513
ENCODING 9491
SWIDTH 714 0
DWIDTH 5 0
BBX 4 8 0 -3
BITMAP
F0
F0
F0
70
70
70
70
70
ENDCHAR
STARTCHAR U+2514
ENCODING 9492
SWIDTH 714 0
DWIDTH 5 0
BBX 3 7 2 3
BITMAP
80
80
80
80
80
80
E0
ENDCHAR
STARTCHAR U+2515
ENCODING 9493
SWIDTH 714 0
DWIDTH 5 0
BBX 3 8 2 2
BITMAP
80
80
80
80
80
E0
E0
E0
ENDCHAR
STARTCHAR U+2516
ENCODING 9494
SWIDTH 714 0
DWIDTH 5 0
BBX 4 7 1 3
BITMAP
E0
E0
E0
E0
E0
E0
F0
ENDCHAR
STARTCHAR U+2517
ENCODING 9495
SWIDTH 714 0
DWIDTH 5 0
BBX 4 8 1 2
BITMAP
E0
E0
E0
E0
E0
F0
F0
F0
ENDCHAR
STARTCHAR U+2518
ENCODING 9496
SWIDTH 714 0
DWIDTH 5 0
BBX 3 7 0 3
BITMAP
20
20
20
20
20
20
E0
ENDCHAR
STARTCHAR U+2519
ENCODING 9497
SWIDTH 714 0
DWIDTH 5 0
BBX 3 8 0 2
BITMAP
20
20
20
20
20
E0
E0
E0
ENDCHAR
STARTCHAR U+251A
ENCODING 9498
SWIDTH 714 0
DWIDTH 5 0
BBX 4 7 0 3
BITMAP
70
70
70
70
70
70
F0
ENDCHAR
STARTCHAR U+251B
ENCODING 9499
SWIDTH 714 0
DWIDTH 5 0
BBX 4 8 0 2
BITMAP
70
70
70
70
70
F0
F0
F0
ENDCHAR
STARTCHAR U+251C
ENCODING 9500
SWIDTH 714 0
DWIDTH 5 0
BBX 3 13 2 -3
BITMAP
80
80
80
80
80
80
E0
80
80
80
80
80
80
ENDCHAR
STARTCHAR U+251D
ENCODING 9501
SWIDTH 714 0
DWIDTH 5 0
BBX 3 13 2 -3
BITMAP
80
80
80
80
80
E0
E0
E0
80
80
80
80
80
ENDCHAR
STARTCHAR U+251E
ENCODING 9502
SWIDTH 714 0
DWIDTH 5 0
BBX 4 13 1 -3
BITMAP
E0
E0
E0
E0
E0
E0
F0
40
40
40
40
40
40
ENDCHAR
STARTCHAR U+251F
ENCODING 9503
SWIDTH 714 0
DWIDTH 5 0
BBX 4 13 1 -3
BITMAP
40
40
40
40
40
40
F0
E0
E0
E0
E0
E0
E0
ENDCHAR
STARTCHAR U+2520
ENCODING 9504
SWIDTH 714 0
DWIDTH 5 0
BBX 4 13 1 -3
BITMAP
E0
E0
E0
E0
E0
E0
F0
E0
E0
E0
E0
E0
E0
ENDCHAR
STARTCHAR U+2521
ENCODING 9505
SWIDTH 714 0
DWIDTH 5 0
BBX 4 13 1 -3
BITMAP
E0
E0
E0
E0
E0
F0
F0
F0
40
40
40
40
40
ENDCHAR
STARTCHAR U+2522
ENCODING 9506
SWIDTH 714 0
DWIDTH 5 0
BBX 4 13 1 -3
BITMAP
40
40
40
40
40
F0
F0
F0
E0
E0
E0
E0
E0
ENDCHAR
STARTCHAR U+2523
ENCODING 9507
SWIDTH 714 0
DWIDTH 5 0
BBX 4 13 1 -3
BITMAP
E0
E0
E0
E0
E0
F0
F0
F0
E0
E0
E0
E0
E0
ENDCHAR
STARTCHAR U+2524
ENCODING 9508
SWIDTH 714 0
DWIDTH 5 0
BBX 3 13 0 -3
BITMAP
20
20
20
20
20
20
E0
20
20
20
20
20
20
ENDCHAR
STARTCHAR U+2525
ENCODING 9509
SWIDTH 714 0
DWIDTH 5 0
BBX 3 13 0 -3
BITMAP
20
20
20
20
20
E0
E0
E0
20
20
20
20
20
ENDCHAR
STARTCHAR U+2526
ENCODING 9510
SWIDTH 714 0
DWIDTH 5 0
BBX 4 13 0 -3
BITMAP
70
70
70
70
70
70
F0
20
20
20
20
20
20
ENDCHAR
STARTCHAR U+2527
ENCODING 9511
SWIDTH 714 0
DWIDTH 5 0
BBX 4 13 0 -3
BITMAP
20
20
20
20
20
20
F0
70
70
70
70
70
70
ENDCHAR
STARTCHAR U+2528
ENCODING 9512
SWIDTH 714 0
DWIDTH 5 0
BBX 4 13 0 -3
BITMAP
70
70
70
70
70
70
F0
70
70
70
70
70
70
ENDCHAR
STARTCHAR U+2529
ENCODING 9513
SWIDTH 714 0
DWIDTH 5 0
BBX 4 13 0 -3
BITMAP
70
70
70
70
70
F0
F0
F0
20
20
20
20
20
ENDCHAR
STARTCHAR U+252A
ENCODING 9514
SWIDTH 714 0
DWIDTH 5 0
BBX 4 13 0 -3
BITMAP
20
20
20
20
20
F0
F0
F0
70
70
70
70
70
ENDCHAR
STARTCHAR U+252B
ENCODING 9515
SWIDTH 714 0
DWIDTH 5 0
BBX 4 13 0 -3
BITMAP
70
70
70
70
70
F0
F0
F0
70
70
70
70
70
ENDCHAR
STARTCHAR U+252C
ENCODING 9516
SWIDTH 714 0
DWIDTH 5 0
BBX 5 7 0 -3
BITMAP
F8
20
20
20
20
20
20
ENDCHAR
STARTCHAR U+252D
ENCODING 9517
SWIDTH 714 0
DWIDTH 5 0
BBX 5 8 0 -3
BITMAP
E0
F8
E0
20
20
20
20
20
ENDCHAR
STARTCHAR U+252E
ENCODING 9518
SWIDTH 714 0
DWIDTH 5 0
BBX 5 8 0 -3
BITMAP
38
F8
38
20
20
20
20
20
ENDCHAR
STARTCHAR U+252F
ENCODING 9519
SWIDTH 714 0
DWIDTH 5 0
BBX 5 8 0 -3
BITMAP
F8
F8
F8
20
20
20
20
20
ENDCHAR
STARTCHAR U+2530
ENCODING 9520
SWIDTH 714 0
DWIDTH 5 0
BBX 5 7 0 -3
BITMAP
F8
70
70
70
70
70
70
ENDCHAR
STARTCHAR U+2531
ENCODING 9521
SWIDTH 714 0
DWIDTH 5 0
BBX 5 8 0 -3
BITMAP
F0
F8
F0
70
70
70
70
70
ENDCHAR
STARTCHAR U+2532
ENCODING 9522
SWIDTH 714 0
DWIDTH 5 0
BBX 5 8 0 -3
BITMAP
78
F8
78
70
70
70
70
70
ENDCHAR
STARTCHAR U+2533
ENCODING 9523
SWIDTH 714 0
DWIDTH 5 0
BBX 5 8 0 -3
BITMAP
F8
F8
F8
70
70
70
70
70
ENDCHAR
STARTCHAR U+2534
ENCODING 9524
SWIDTH 714 0
DWIDTH 5 0
BBX 5 7 0 3
BITMAP
20
20
20
20
20
20
F8
ENDCHAR
STARTCHAR U+2535
ENCODING 9525
SWIDTH 714 0
DWIDTH 5 0
BBX 5 8 0 2
BITMAP
20
20
20
20
20
E0
F8
E0
ENDCHAR
STARTCHAR U+2536
ENCODING 9526
SWIDTH 714 0
DWIDTH 5 0
BBX 5 8 0 2
BITMAP
20
20
20
20
20
38
F8
38
ENDCHAR
STARTCHAR U+2537
ENCODING 9527
SWIDTH 714 0
DWIDTH 5 0
BBX 5 8 0 2
BITMAP
20
20
20
20
20
F8
F8
F8
ENDCHAR
STARTCHAR U+2538
ENCODING 9528
SWIDTH 714 0
DWIDTH 5 0
BBX 5 7 0 3
BITMAP
70
70
70
70
70
70
F8
ENDCHAR
STARTCHAR U+2539
ENCODING 9529
SWIDTH 714 0
DWIDTH 5 0
BBX 5 8 0 2
BITMAP
70
70
70
70
70
F0
F8
F0
ENDCHAR
STARTCHAR U+253A
ENCODING 9530
SWIDTH 714 0
DWIDTH 5 0
BBX 5 8 0 2
BITMAP
70
70
70
70
70
78
F8
78
ENDCHAR
STARTCHAR U+253B
ENCODING 9531
SWIDTH 714 0
DWIDTH 5 0
BBX 5 8 0 2
BITMAP
70
70
70
70
70
F8
F8
F8
ENDCHAR
STARTCHAR U+253C
ENCODING 9532
SWIDTH 714 0
DWIDTH 5 0
BBX 5 13 0 -3
BITMAP
20
20
20
20
20
20
F8
20
20
20
20
20
20
ENDCHAR
STARTCHAR U+253D
ENCODING 9533
SWIDTH 714 0
DWIDTH 5 0
BBX 5 13 0 -3
BITMAP
20
20
20
20
20
E0
F8
E0
20
20
20
20
20
ENDCHAR
STARTCHAR U+253E
ENCODING 9534
SWIDTH 714 0
DWIDTH 5 0
BBX 5 13 0 -3
BITMAP
20
20
20
20
20
38
F8
38
20
20
20
20
20
ENDCHAR
STARTCHAR U+253F
ENCODING 9535
SWIDTH 714 0
DWIDTH 5 0
BBX 5 13 0 -3
BITMAP
20
20
20
20
20
F8
F8
F8
20
20
20
20
20
ENDCHAR
STARTCHAR U+2540
ENCODING 9536
SWIDTH 714 0
DWIDTH 5 0
BBX 5 13 0 -3
BITMAP
70
70
70
70
70
70
F8
20
20
20
20
20
20
ENDCHAR
STARTCHAR U+2541
ENCODING 9537
SWIDTH 714 0
DWIDTH 5 0
BBX 5 13 0 -3
BITMAP
20
20
20
20
20
20
F8
70
70
70
70
70
70
ENDCHAR
STARTCHAR U+2542
ENCODING 9538
SWIDTH 714 0
DWIDTH 5 0
BBX 5 13 0 -3
BITMAP
70
70
70
70
70
70
F8
70
70
70
70
70
70
ENDCHAR
STARTCHAR U+2543
ENCODING 9539
SWIDTH 714 0
DWIDTH 5 0
BBX 5 13 0 -3
BITMAP
70
70
70
70
70
F0
F8
F0
20
20
20
20
20
ENDCHAR
STARTCHAR U+2544
ENCODING 9540
SWIDTH 714 0
DWIDTH 5 0
BBX 5 13 0 -3
BITMAP
70
70
70
70
70
78
F8
78
20
20
20
20
20
ENDCHAR
STARTCHAR U+2545
ENCODING 9541
SWIDTH 714 0
DWIDTH 5 0
BBX 5 13 0 -3
BITMAP
20
20
20
20
20
F0
F8
F0
70
70
70
70
70
ENDCHAR
STARTCHAR U+2546
ENCODING 9542
SWIDTH 714 0
DWIDTH 5 0
BBX 5 13 0 -3
BITMAP
20
20
20
20
20
78
F8
78
70
70
70
70
70
ENDCHAR
STARTCHAR U+2547
ENCODING 9543
SWIDTH 714 0
DWIDTH 5 0
BBX 5 13 0 -3
BITMAP
70
70
70
70
70
F8
F8
F8
20
20
20
20
20
ENDCHAR
STARTCHAR U+2548
ENCODING 9544
SWIDTH 714 0
DWIDTH 5 0
BBX 5 13 0 -3
BITMAP
20
20
20
20
20
F8
F8
F8
70
70
70
70
70
ENDCHAR
STARTCHAR U+2549
ENCODING 9545
SWIDTH 714 0
DWIDTH 5 0
BBX 5 13 0 -3
BITMAP
70
70
70
70
70
F0
F8
F0
70
70
70
70
70
ENDCHAR
STARTCHAR U+254A
ENCODING 9546
SWIDTH 714 0
DWIDTH 5 0
BBX 5 13 0 -3
BITMAP
70
70
70
70
70
78
F8
78
70
70
70
70
70
ENDCHAR
STARTCHAR U+254B
ENCODING 9547
SWIDTH 714 0
DWIDTH 5 0
BBX 5 13 0 -3
BITMAP
70
70
70
70
70
F8
F8
F8
70
70
70
70
70
ENDCHAR
STARTCHAR U+254C
ENCODING 9548
SWIDTH 714 0
DWIDTH 5 0
BBX 5 1 0 3
BITMAP
D8
ENDCHAR
STARTCHAR U+254D
ENCODING 9549
SWIDTH 714 0
DWIDTH 5 0
BBX 5 3 0 2
BITMAP
D8
D8
D8
ENDCHAR
STARTCHAR U+254E
ENCODING 9550
SWIDTH 714 0
DWIDTH 5 0
BBX 1 13 2 -3
BITMAP
80
80
80
80
80
80
00
80
80
80
80
80
80
ENDCHAR
STARTCHAR U+254F
ENCODING 9551
SWIDTH 714 0
DWIDTH 5 0
BBX 3 13 1 -3
BITMAP
E0
E0
E0
E0
E0
E0
00
E0
E0
E0
E0
E0
E0
ENDCHAR
STARTCHAR U+2550
ENCODING 9552
SWIDTH 714 0
DWIDTH 5 0
BBX 5 3 0 2
BITMAP
F8
00
F8
ENDCHAR
STARTCHAR U+2551
ENCODING 9553
SWIDTH 714 0
DWIDTH 5 0
BBX 3 13 1 -3
BITMAP
A0
A0
A0
A0
A0
A0
A0
A0
A0
A0
A0
A0
A0
ENDCHAR
STARTCHAR U+2552
ENCODING 9554
SWIDTH 714 0
DWIDTH 5 0
BBX 3 8 2 -3
BITMAP
E0
80
E0
80
80
80
80
80
ENDCHAR
STARTCHAR U+2553
ENCODING 9555
SWIDTH 714 0
DWIDTH 5 0
BBX 4 7 1 -3
BITMAP
F0
A0
A0
A0
A0
A0
A0
ENDCHAR
STARTCHAR U+2554
ENCODING 9556
SWIDTH 714 0
DWIDTH 5 0
BBX 4 8 1 -3
BITMAP
F0
80
B0
A0
A0
A0
A0
A0
ENDCHAR
STARTCHAR U+2555
ENCODING 9557
SWIDTH 714 0
DWIDTH 5 0
BBX 3 8 0 -3
BITMAP
E0
20
E0
20
20
20
20
20
ENDCHAR
STARTCHAR U+2556
ENCODING 9558
SWIDTH 714 0
DWIDTH 5 0
BBX 4 7 0 -3
BITMAP
F0
50
50
50
50
50
50
ENDCHAR
STARTCHAR U+2557
ENCODING 9559
SWIDTH 714 0
DWIDTH 5 0
BBX 4 8 0 -3
BITMAP
F0
10
D0
50
50
50
50
50
ENDCHAR
STARTCHAR U+2558
ENCODING 9560
SWIDTH 714 0
DWIDTH 5 0
BBX 3 8 2 2
BITMAP
80
80
80
80
80
E0
80
E0
ENDCHAR
STARTCHAR U+2559
ENCODING 9561
SWIDTH 714 0
DWIDTH 5 0
BBX 4 7 1 3
BITMAP
A0
A0
A0
A0
A0
A0
F0
ENDCHAR
STARTCHAR U+255A
ENCODING 9562
SWIDTH 714 0
DWIDTH 5 0
BBX 4 8 1 2
BITMAP
A0
A0
A0
A0
A0
B0
80
F0
ENDCHAR
STARTCHAR U+255B
ENCODING 9563
SWIDTH 714 0
DWIDTH 5 0
BBX 3 8 0 2
BITMAP
20
20
20
20
20
E0
20
E0
ENDCHAR
STARTCHAR U+255C
ENCODING 9564
SWIDTH 714 0
DWIDTH 5 0
BBX 4 7 0 3
BITMAP
50
50
50
50
50
50
F0
ENDCHAR
STARTCHAR U+255D
ENCODING 9565
SWIDTH 714 0
DWIDTH 5 0
BBX 4 8 0 2
BITMAP
50
50
50
50
50
D0
10
F0
ENDCHAR
STARTCHAR U+255E
ENCODING 9566
SWIDTH 714 0
DWIDTH 5 0
BBX 3 13 2 -3
BITMAP
80
80
80
80
80
E0
80
E0
80
80
80
80
80
ENDCHAR
STARTCHAR U+255F
ENCODING 9567
SWIDTH 714 0
DWIDTH 5 0
BBX 4 13 1 -3
BITMAP
A0
A0
A0
A0
A0
A0
B0
A0
A0
A0
A0
A0
A0
ENDCHAR
STARTCHAR U+2560
ENCODING 9568
SWIDTH 714 0
DWIDTH 5 0
BBX 4 13 1 -3
BITMAP
A0
A0
A0
A0
A0
B0
80
B0
A0
A0
A0
A0
A0
ENDCHAR
STARTCHAR U+2561
ENCODING 9569
SWIDTH 714 0
DWIDTH 5 0
BBX 3 13 0 -3
BITMAP
20
20
20
20
20
E0
20
E0
20
20
20
20
20
ENDCHAR
STARTCHAR U+2562
ENCODING 9570
SWIDTH 714 0
DWIDTH 5 0
BBX 4 13 0 -3
BITMAP
50
50
50
50
50
50
D0
50
50
50
50
50
50
ENDCHAR
STARTCHAR U+2563
ENCODING 9571
SWIDTH 714 0
DWIDTH 5 0
BBX 4 13 0 -3
BITMAP
50
50
50
50
50
D0
10
D0
50
50
50
50
50
ENDCHAR
STARTCHAR U+2564
ENCODING 9572
SWIDTH 714 0
DWIDTH 5 0
BBX 5 8 0 -3
BITMAP
F8
00
F8
20
20
20
20
20
ENDCHAR
STARTCHAR U+2565
ENCODING 9573
SWIDTH 714 0
DWIDTH 5 0
BBX 5 7 0 -3
BITMAP
F8
50
50
50
50
50
50
ENDCHAR
STARTCHAR U+2566
ENCODING 9574
SWIDTH 714 0
DWIDTH 5 0
BBX 5 8 0 -3
BITMAP
F8
00
D8
50
50
50
50
50
ENDCHAR
STARTCHAR U+2567
ENCODING 9575
SWIDTH 714 0
DWIDTH 5 0
BBX 5 8 0 2
BITMAP
20
20
20
20
20
F8
00
F8
ENDCHAR
STARTCHAR U+2568
ENCODING 9576
SWIDTH 714 0
DWIDTH 5 0
BBX 5 7 0 3
BITMAP
50
50
50
50
50
50
F8
ENDCHAR
STARTCHAR U+2569
ENCODING 9577
SWIDTH 714 0
DWIDTH 5 0
BBX 5 8 0 2
BITMAP
50
50
50
50
50
D8
00
F8
ENDCHAR
STARTCHAR U+256A
ENCODING 9578
SWIDTH 714 0
DWIDTH 5 0
BBX 5 13 0 -3
BITMAP
20
20
20
20
20
F8
20
F8
20
20
20
20
20
ENDCHAR
STARTCHAR U+256B
ENCODING 9579
SWIDTH 714 0
DWIDTH 5 0
BBX 5 13 0 -3
BITMAP
50
50
50
50
50
50
F8
50
50
50
50
50
50
ENDCHAR
STARTCHAR U+256C
ENCODING 9580
SWIDTH 714 0
DWIDTH 5 0
BBX 5 13 0 -3
BITMAP
50
50
50
50
50
D8
00
D8
50
50
50
50
50
ENDCHAR
STARTCHAR U+256D
ENCODING 9581
SWIDTH 714 0
DWIDTH 5 0
BBX 3 7 2 -3
BITMAP
20
40
80
80
80
80
80
ENDCHAR
STARTCHAR U+256E
ENCODING 9582
SWIDTH 714 0
DWIDTH 5 0
BBX 3 7 0 -3
BITMAP
80
40
20
20
20
20
20
ENDCHAR
STARTCHAR U+256F
ENCODING 9583
SWIDTH 714 0
DWIDTH 5 0
BBX 3 7 0 3
BITMAP
20
20
20
20
20
40
80
ENDCHAR
STARTCHAR U+2570
ENCODING 9584
SWIDTH 714 0
DWIDTH 5 0
BBX 3 7 2 3
BITMAP
80
80
80
80
80
40
20
ENDCHAR
STARTCHAR U+2571
ENCODING 9585
SWIDTH 714 0
DWIDTH 5 0
BBX 5 13 0 -3
BITMAP
08
08
08
10
10
20
20
20
40
40
80
80
80
ENDCHAR
STARTCHAR U+2572
ENCODING 9586
SWIDTH 714 0
DWIDTH 5 0
BBX 5 13 0 -3
BITMAP
80
80
80
40
40
20
20
20
10
10
08
08
08
ENDCHAR
STARTCHAR U+2573
ENCODING 9587
SWIDTH 714 0
DWIDTH 5 0
BBX 5 13 0 -3
BITMAP
88
88
88
50
50
20
20
20
50
50
88
88
88
ENDCHAR
STARTCHAR U+2574
ENCODING 9588
SWIDTH 714 0
DWIDTH 5 0
BBX 3 1 0 3
BITMAP
E0
ENDCHAR
STARTCHAR U+2575
ENCODING 9589
SWIDTH 714 0
DWIDTH 5 0
BBX 1 7 2 3
BITMAP
80
80
80
80
80
80
80
ENDCHAR
STARTCHAR U+2576
ENCODING 9590
SWIDTH 714 0
DWIDTH 5 0
BBX 3 1 2 3
BITMAP
E0
ENDCHAR
STARTCHAR U+2577
ENCODING 9591
SWIDTH 714 0
DWIDTH 5 0
BBX 1 7 2 -3
BITMAP
80
80
80
80
80
80
80
ENDCHAR
STARTCHAR U+2578
ENCODING 9592
SWIDTH 714 0
DWIDTH 5 0
BBX 3 3 0 2
BITMAP
E0
E0
E0
ENDCHAR
STARTCHAR U+2579
ENCODING 9593
SWIDTH 714 0
DWIDTH 5 0
BBX 3 7 1 3
BITMAP
E0
E0
E0
E0
E0
E0
E0
ENDCHAR
STARTCHAR U+257A
ENCODING 9594
SWIDTH 714 0
DWIDTH 5 0
BBX 3 3 2 2
BITMAP
E0
E0
E0
ENDCHAR
STARTCHAR U+257B
ENCODING 9595
SWIDTH 714 0
DWIDTH 5 0
BBX 3 7 1 -3
BITMAP
E0
E0
E0
E0
E0
E0
E0
ENDCHAR
STARTCHAR U+257C
ENCODING 9596
SWIDTH 714 0
DWIDTH 5 0
BBX 5 3 0 2
BITMAP
38
F8
38
ENDCHAR
STARTCHAR U+257D
ENCODING 9597
SWIDTH 714 0
DWIDTH 5 0
BBX 3 13 1 -3
BITMAP
40
40
40
40
40
40
E0
E0
E0
E0
E0
E0
E0
ENDCHAR
STARTCHAR U+257E
ENCODING 9598
SWIDTH 714 0
DWIDTH 5 0
BBX 5 3 0 2
BITMAP
E0
F8
E0
ENDCHAR
STARTCHAR U+257F
ENCODING 9599
SWIDTH 714 0
DWIDTH 5 0
BBX 3 13 1 -3
BITMAP
E0
E0
E0
E0
E0
E0
E0
40
40
40
40
40
40
ENDCHAR
STARTCHAR U+2580
ENCODING 9600
SWIDTH 714 0
DWIDTH 5 0
BBX 5 7 0 3
BITMAP
F8
F8
F8
F8
F8
F8
F8
ENDCHAR
STARTCHAR U+2581
ENCODING 9601
SWIDTH 714 0
DWIDTH 5 0
BBX 5 1 0 -3
BITMAP
F8
ENDCHAR
STARTCHAR U+2582
ENCODING 9602
SWIDTH 714 0
DWIDTH 5 0
BBX 5 2 0 -3
BITMAP
F8
F8
ENDCHAR
STARTCHAR U+2583
ENCODING 9603
SWIDTH 714 0
DWIDTH 5 0
BBX 5 4 0 -3
BITMAP
F8
F8
F8
F8
ENDCHAR
STARTCHAR U+2584
ENCODING 9604
SWIDTH 714 0
DWIDTH 5 0
BBX 5 6 0 -3
BITMAP
F8
F8
F8
F8
F8
F8
ENDCHAR
STARTCHAR U+2585
ENCODING 9605
SWIDTH 714 0
DWIDTH 5 0
BBX 5 8 0 -3
BITMAP
F8
F8
F8
F8
F8
F8
F8
F8
ENDCHAR
STARTCHAR U+2586
ENCODING 9606
SWIDTH 714 0
DWIDTH 5 0
BBX 5 10 0 -3
BITMAP
F8
F8
F8
F8
F8
F8
F8
F8
F8
F8
ENDCHAR
STARTCHAR U+2587
ENCODING 9607
SWIDTH 714 0
DWIDTH 5 0
BBX 5 12 0 -3
BITMAP
F8
F8
F8
F8
F8
F8
F8
F8
F8
F8
F8
F8
ENDCHAR
STARTCHAR U+2588
ENCODING 9608
SWIDTH 714 0
DWIDTH 5 0
BBX 5 13 0 -3
BITMAP
F8
F8
F8
F8
F8
F8
F8
F8
F8
F8
F8
F8
F8
ENDCHAR
STARTCHAR U+2589
ENCODING 9609
SWIDTH 714 0
DWIDTH 5 0
BBX 4 13 0 -3
BITMAP
F0
F0
F0
F0
F0
F0
F0
F0
F0
F0
F0
F0
F0
ENDCHAR
STARTCHAR U+258A
ENCODING 9610
SWIDTH 714 0
DWIDTH 5 0
BBX 4 13 0 -3
BITMAP
F0
F0
F0
F0
F0
F0
F0
F0
F0
F0
F0
F0
F0
ENDCHAR
STARTCHAR U+258B
ENCODING 9611
SWIDTH 714 0
DWIDTH 5 0
BBX 3 13 0 -3
BITMAP
E0
E0
E0
E0
E0
E0
E0
E0
E0
E0
E0
E0
E0
ENDCHAR
STARTCHAR U+258C
ENCODING 9612
SWIDTH 714 0
DWIDTH 5 0
BBX 3 13 0 -3
BITMAP
E0
E0
E0
E0
E0
E0
E0
E0
E0
E0
E0
E0
E0
ENDCHAR
STARTCHAR U+258D
ENCODING 9613
SWIDTH 714 0
DWIDTH 5 0
BBX 2 13 0 -3
BITMAP
C0
C0
C0
C0
C0
C0
C0
C0
C0
C0
C0
C0
C0
ENDCHAR
STARTCHAR U+258E
ENCODING 9614
SWIDTH 714 0
DWIDTH 5 0
BBX 2 13 0 -3
BITMAP
C0
C0
C0
C0
C0
C0
C0
C0
C0
C0
C0
C0
C0
ENDCHAR
STARTCHAR U+258F
ENCODING 9615
SWIDTH 714 0
DWIDTH 5 0
BBX 1 13 0 -3
BITMAP
80
80
80
80
80
80
80
80
80
80
80
80
80
ENDCHAR
STARTCHAR U+2590
ENCODING 9616
SWIDTH 714 0
DWIDTH 5 0
BBX 2 13 3 -3
BITMAP
C0
C0
C0
C0
C0
C0
C0
C0
C0
C0
C0
C0
C0
ENDCHAR
STARTCHAR U+2591
ENCODING 9617
SWIDTH 714 0
DWIDTH 5 0
BBX 5 13 0 -3
BITMAP
A8
00
50
00
A8
00
50
00
A8
00
50
00
A8
ENDCHAR
STARTCHAR U+2592
ENCODING 9618
SWIDTH 714 0
DWIDTH 5 0
BBX 5 13 0 -3
BITMAP
A8
50
A8
50
A8
50
A8
50
A8
50
A8
50
A8
ENDCHAR
STARTCHAR U+2593
ENCODING 9619
SWIDTH 714 0
DWIDTH 5 0
BBX 5 13 0 -3
BITMAP
F8
A8
F8
A8
F8
A8
F8
A8
F8
A8
F8
A8
F8
ENDCHAR
STARTCHAR U+2594
ENCODING 9620
SWIDTH 714 0
DWIDTH 5 0
BBX 5 1 0 9
BITMAP
F8
ENDCHAR
STARTCHAR U+2595
ENCODING 9621
SWIDTH 714 0
DWIDTH 5 0
BBX 1 13 4 -3
BITMAP
80
80
80
80
80
80
80
80
80
80
80
80
80
ENDCHAR
STARTCHAR U+2596
ENCODING 9622
SWIDTH 714 0
DWIDTH 5 0
BBX 3 6 0 -3
BITMAP
E0
E0
E0
E0
E0
E0
ENDCHAR
STARTCHAR U+2597
ENCODING 9623
SWIDTH 714 0
DWIDTH 5 0
BBX 2 6 3 -3
BITMAP
C0
C0
C0
C0
C0
C0
ENDCHAR
STARTCHAR U+2598
ENCODING 9624
SWIDTH 714 0
DWIDTH 5 0
BBX 3 7 0 3
BITMAP
E0
E0
E0
E0
E0
E0
E0
ENDCHAR
STARTCHAR U+2599
ENCODING 9625
SWIDTH 714 0
DWIDTH 5 0
BBX 5 13 0 -3
BITMAP
E0
E0
E0
E0
E0
E0
E0
F8
F8
F8
F8
F8
F8
ENDCHAR
STARTCHAR U+259A
ENCODING 9626
SWIDTH 714 0
DWIDTH 5 0
BBX 5 13 0 -3
BITMAP
E0
E0
E0
E0
E0
E0
E0
18
18
18
18
18
18
ENDCHAR
STARTCHAR U+259B
ENCODING 9627
SWIDTH 714 0
DWIDTH 5 0
BBX 5 13 0 -3
BITMAP
F8
F8
F8
F8
F8
F8
F8
E0
E0
E0
E0
E0
E0
ENDCHAR
STARTCHAR U+259C
ENCODING 9628
SWIDTH 714 0
DWIDTH 5 0
BBX 5 13 0 -3
BITMAP
F8
F8
F8
F8
F8
F8
F8
18
18
18
18
18
18
ENDCHAR
STARTCHAR U+259D
ENCODING 9629
SWIDTH 714 0
DWIDTH 5 0
BBX 2 7 3 3
BITMAP
C0
C0
C0
C0
C0
C0
C0
ENDCHAR
STARTCHAR U+259E
ENCODING 9630
SWIDTH 714 0
DWIDTH 5 0
BBX 5 13 0 -3
BITMAP
18
18
18
18
18
18
18
E0
E0
E0
E0
E0
E0
ENDCHAR
STARTCHAR U+259F
ENCODING 9631
SWIDTH 714 0
DWIDTH 5 0
BBX 5 13 0 -3
BITMAP
18
18
18
18
18
18
18
F8
F8
F8
F8
F8
F8
ENDCHAR
STARTCHAR U+25A0
ENCODING 9632
SWIDTH 714 0
DWIDTH 5 0
BBX 5 5 0 1
BITMAP
F8
F8
F8
F8
F8
ENDCHAR
STARTCHAR U+25A1
ENCODING 9633
SWIDTH 714 0
DWIDTH 5 0
BBX 5 5 0 1
BITMAP
F8
88
88
88
F8
ENDCHAR
STARTCHAR U+25A2
ENCODING 9634
SWIDTH 714 0
DWIDTH 5 0
BBX 4 4 0 1
BITMAP
60
90
90
60
ENDCHAR
STARTCHAR U+25A3
ENCODING 9635
SWIDTH 714 0
DWIDTH 5 0
BBX 5 5 0 1
BITMAP
F8
88
A8
88
F8
ENDCHAR
STARTCHAR U+25A4
ENCODING 9636
SWIDTH 714 0
DWIDTH 5 0
BBX 5 5 0 1
BITMAP
F8
00
F8
00
F8
ENDCHAR
STARTCHAR U+25A5
ENCODING 9637
SWIDTH 714 0
DWIDTH 5 0
BBX 5 5 0 1
BITMAP
A8
A8
A8
A8
A8
ENDCHAR
STARTCHAR U+25A6
ENCODING 9638
SWIDTH 714 0
DWIDTH 5 0
BBX 5 5 0 1
BITMAP
F8
A8
F8
A8
F8
ENDCHAR
STARTCHAR U+25A7
ENCODING 9639
SWIDTH 714 0
DWIDTH 5 0
BBX 5 5 0 1
BITMAP
58
A8
50
A8
D0
ENDCHAR
STARTCHAR U+25A8
ENCODING 9640
SWIDTH 714 0
DWIDTH 5 0
BBX 5 5 0 1
BITMAP
D0
A8
50
A8
58
ENDCHAR
STARTCHAR U+25A9
ENCODING 9641
SWIDTH 714 0
DWIDTH 5 0
BBX 5 5 0 1
BITMAP
A8
50
A8
50
A8
ENDCHAR
STARTCHAR U+25AA
ENCODING 9642
SWIDTH 714 0
DWIDTH 5 0
BBX 3 3 1 2
BITMAP
E0
E0
E0
ENDCHAR
STARTCHAR U+25AB
ENCODING 9643
SWIDTH 714 0
DWIDTH 5 0
BBX 3 3 1 2
BITMAP
E0
A0
E0
ENDCHAR
STARTCHAR U+25AC
ENCODING 9644
SWIDTH 714 0
DWIDTH 5 0
BBX 5 3 0 2
BITMAP
F8
F8
F8
ENDCHAR
STARTCHAR U+25AD
ENCODING 9645
SWIDTH 714 0
DWIDTH 5 0
BBX 5 3 0 2
BITMAP
F8
88
F8
ENDCHAR
STARTCHAR U+25AE
ENCODING 9646
SWIDTH 714 0
DWIDTH 5 0
BBX 4 7 0 0
BITMAP
F0
F0
F0
F0
F0
F0
F0
ENDCHAR
STARTCHAR U+25AF
ENCODING 9647
SWIDTH 714 0
DWIDTH 5 0
BBX 4 7 0 0
BITMAP
F0
90
90
90
90
90
F0
ENDCHAR
STARTCHAR U+25B0
ENCODING 9648
SWIDTH 714 0
DWIDTH 5 0
BBX 5 3 0 2
BITMAP
38
70
E0
ENDCHAR
STARTCHAR U+25B1
ENCODING 9649
SWIDTH 714 0
DWIDTH 5 0
BBX 5 3 0 2
BITMAP
38
50
E0
ENDCHAR
STARTCHAR U+25B2
ENCODING 9650
SWIDTH 714 0
DWIDTH 5 0
BBX 5 5 0 2
BITMAP
20
20
70
70
F8
ENDCHAR
STARTCHAR U+25B3
ENCODING 9651
SWIDTH 714 0
DWIDTH 5 0
BBX 5 5 0 2
BITMAP
20
20
50
50
F8
ENDCHAR
STARTCHAR U+25B4
ENCODING 9652
SWIDTH 714 0
DWIDTH 5 0
BBX 5 3 0 2
BITMAP
20
70
F8
ENDCHAR
STARTCHAR U+25B5
ENCODING 9653
SWIDTH 714 0
DWIDTH 5 0
BBX 5 3 0 2
BITMAP
20
50
F8
ENDCHAR
STARTCHAR U+25B6
ENCODING 9654
SWIDTH 714 0
DWIDTH 5 0
BBX 5 5 0 1
BITMAP
80
E0
F8
E0
80
ENDCHAR
STARTCHAR U+25B7
ENCODING 9655
SWIDTH 714 0
DWIDTH 5 0
BBX 5 5 0 1
BITMAP
80
E0
98
E0
80
ENDCHAR
STARTCHAR U+25B8
ENCODING 9656
SWIDTH 714 0
DWIDTH 5 0
BBX 3 5 0 1
BITMAP
80
C0
E0
C0
80
ENDCHAR
STARTCHAR U+25B9
ENCODING 9657
SWIDTH 714 0
DWIDTH 5 0
BBX 3 5 0 1
BITMAP
80
C0
A0
C0
80
ENDCHAR
STARTCHAR U+25BA
ENCODING 9658
SWIDTH 714 0
DWIDTH 5 0
BBX 5 3 0 2
BITMAP
C0
F8
C0
ENDCHAR
STARTCHAR U+25BB
ENCODING 9659
SWIDTH 714 0
DWIDTH 5 0
BBX 5 3 0 2
BITMAP
C0
B8
C0
ENDCHAR
STARTCHAR U+25BC
ENCODING 9660
SWIDTH 714 0
DWIDTH 5 0
BBX 5 5 0 1
BITMAP
F8
70
70
20
20
ENDCHAR
STARTCHAR U+25BD
ENCODING 9661
SWIDTH 714 0
DWIDTH 5 0
BBX 5 5 0 1
BITMAP
F8
50
50
20
20
ENDCHAR
STARTCHAR U+25BE
ENCODING 9662
SWIDTH 714 0
DWIDTH 5 0
BBX 5 3 0 2
BITMAP
F8
70
20
ENDCHAR
STARTCHAR U+25BF
ENCODING 9663
SWIDTH 714 0
DWIDTH 5 0
BBX 5 3 0 2
BITMAP
F8
50
20
ENDCHAR
STARTCHAR U+25C0
ENCODING 9664
SWIDTH 714 0
DWIDTH 5 0
BBX 5 5 0 1
BITMAP
08
38
F8
38
08
ENDCHAR
STARTCHAR U+25C1
ENCODING 9665
SWIDTH 714 0
DWIDTH 5 0
BBX 5 5 0 1
BITMAP
08
38
C8
38
08
ENDCHAR
STARTCHAR U+25C2
ENCODING 9666
SWIDTH 714 0
DWIDTH 5 0
BBX 3 5 0 1
BITMAP
20
60
E0
60
20
ENDCHAR
STARTCHAR U+25C3
ENCODING 9667
SWIDTH 714 0
DWIDTH 5 0
BBX 3 5 0 1
BITMAP
20
60
A0
60
20
ENDCHAR
STARTCHAR U+25C4
ENCODING 9668
SWIDTH 714 0
DWIDTH 5 0
BBX 5 3 0 2
BITMAP
18
F8
18
ENDCHAR
STARTCHAR U+25C5
ENCODING 9669
SWIDTH 714 0
DWIDTH 5 0
BBX 5 3 0 2
BITMAP
18
E8
18
ENDCHAR
STARTCHAR U+25C6
ENCODING 9670
SWIDTH 714 0
DWIDTH 5 0
BBX 5 5 0 1
BITMAP
20
70
F8
70
20
ENDCHAR
STARTCHAR U+25C7
ENCODING 9671
SWIDTH 714 0
DWIDTH 5 0
BBX 5 5 0 1
BITMAP
20
50
88
50
20
ENDCHAR
STARTCHAR U+25C8
ENCODING 9672
SWIDTH 714 0
DWIDTH 5 0
BBX 5 5 0 1
BITMAP
20
50
A8
50
20
ENDCHAR
STARTCHAR U+25C9
ENCODING 9673
SWIDTH 714 0
DWIDTH 5 0
BBX 5 5 0 1
BITMAP
70
98
A8
88
70
ENDCHAR
STARTCHAR U+25CA
ENCODING 9674
SWIDTH 714 0
DWIDTH 5 0
BBX 5 9 0 -1
BITMAP
20
20
50
50
88
50
50
20
20
ENDCHAR
STARTCHAR U+25CB
ENCODING 9675
SWIDTH 714 0
DWIDTH 5 0
BBX 5 5 0 1
BITMAP
70
88
88
88
70
ENDCHAR
STARTCHAR U+25CC
ENCODING 9676
SWIDTH 714 0
DWIDTH 5 0
BBX 5 5 0 1
BITMAP
50
88
00
88
50
ENDCHAR
STARTCHAR U+25CD
ENCODING 9677
SWIDTH 714 0
DWIDTH 5 0
BBX 5 5 0 1
BITMAP
20
A8
A8
A8
20
ENDCHAR
STARTCHAR U+25CE
ENCODING 9678
SWIDTH 714 0
DWIDTH 5 0
BBX 5 5 0 1
BITMAP
70
88
A8
88
70
ENDCHAR
STARTCHAR U+25CF
ENCODING 9679
SWIDTH 714 0
DWIDTH 5 0
BBX 5 5 0 1
BITMAP
70
F8
F8
F8
70
ENDCHAR
STARTCHAR U+25D0
ENCODING 9680
SWIDTH 714 0
DWIDTH 5 0
BBX 5 5 0 1
BITMAP
70
E8
E8
E8
70
ENDCHAR
STARTCHAR U+25D1
ENCODING 9681
SWIDTH 714 0
DWIDTH 5 0
BBX 5 5 0 1
BITMAP
70
B8
B8
B8
70
ENDCHAR
STARTCHAR U+25D2
ENCODING 9682
SWIDTH 714 0
DWIDTH 5 0
BBX 5 5 0 1
BITMAP
70
88
F8
F8
70
ENDCHAR
STARTCHAR U+25D3
ENCODING 9683
SWIDTH 714 0
DWIDTH 5 0
BBX 5 5 0 1
BITMAP
70
F8
F8
88
70
ENDCHAR
STARTCHAR U+25D4
ENCODING 9684
SWIDTH 714 0
DWIDTH 5 0
BBX 5 5 0 1
BITMAP
70
B8
B8
88
70
ENDCHAR
STARTCHAR U+25D5
ENCODING 9685
SWIDTH 714 0
DWIDTH 5 0
BBX 5 5 0 1
BITMAP
70
98
98
F8
70
ENDCHAR
STARTCHAR U+25D6
ENCODING 9686
SWIDTH 714 0
DWIDTH 5 0
BBX 2 5 0 1
BITMAP
40
C0
C0
C0
40
ENDCHAR
STARTCHAR U+25D7
ENCODING 9687
SWIDTH 714 0
DWIDTH 5 0
BBX 2 5 3 1
BITMAP
80
C0
C0
C0
80
ENDCHAR
STARTCHAR U+25D8
ENCODING 9688
SWIDTH 714 0
DWIDTH 5 0
BBX 3 5 1 1
BITMAP
E0
E0
A0
E0
E0
ENDCHAR
STARTCHAR U+25D9
ENCODING 9689
SWIDTH 714 0
DWIDTH 5 0
BBX 5 5 0 1
BITMAP
F8
D8
A8
D8
F8
ENDCHAR
STARTCHAR U+25DA
ENCODING 9690
SWIDTH 714 0
DWIDTH 5 0
BBX 5 3 0 1
BITMAP
A8
D8
F8
ENDCHAR
STARTCHAR U+25DB
ENCODING 9691
SWIDTH 714 0
DWIDTH 5 0
BBX 5 3 0 3
BITMAP
F8
D8
A8
ENDCHAR
STARTCHAR U+25DC
ENCODING 9692
SWIDTH 714 0
DWIDTH 5 0
BBX 3 3 0 3
BITMAP
60
80
80
ENDCHAR
STARTCHAR U+25DD
ENCODING 9693
SWIDTH 714 0
DWIDTH 5 0
BBX 3 3 2 3
BITMAP
C0
20
20
ENDCHAR
STARTCHAR U+25DE
ENCODING 9694
SWIDTH 714 0
DWIDTH 5 0
BBX 3 3 2 1
BITMAP
20
20
C0
ENDCHAR
STARTCHAR U+25DF
ENCODING 9695
SWIDTH 714 0
DWIDTH 5 0
BBX 3 3 0 1
BITMAP
80
80
60
ENDCHAR
STARTCHAR U+25E0
ENCODING 9696
SWIDTH 714 0
DWIDTH 5 0
BBX 5 3 0 3
BITMAP
70
88
88
ENDCHAR
STARTCHAR U+25E1
ENCODING 9697
SWIDTH 714 0
DWIDTH 5 0
BBX 5 3 0 1
BITMAP
88
88
70
ENDCHAR
STARTCHAR U+25E2
ENCODING 9698
SWIDTH 714 0
DWIDTH 5 0
BBX 5 5 0 1
BITMAP
08
18
38
78
F8
ENDCHAR
STARTCHAR U+25E3
ENCODING 9699
SWIDTH 714 0
DWIDTH 5 0
BBX 5 5 0 1
BITMAP
80
C0
E0
F0
F8
ENDCHAR
STARTCHAR U+25E4
ENCODING 9700
SWIDTH 714 0
DWIDTH 5 0
BBX 5 5 0 1
BITMAP
F8
F0
E0
C0
80
ENDCHAR
STARTCHAR U+25E5
ENCODING 9701
SWIDTH 714 0
DWIDTH 5 0
BBX 5 5 0 1
BITMAP
F8
78
38
18
08
ENDCHAR
STARTCHAR U+25E6
ENCODING 9702
SWIDTH 714 0
DWIDTH 5 0
BBX 3 3 1 2
BITMAP
40
A0
40
ENDCHAR
STARTCHAR U+25E7
ENCODING 9703
SWIDTH 714 0
DWIDTH 5 0
BBX 5 5 0 1
BITMAP
F8
E8
E8
E8
F8
ENDCHAR
STARTCHAR U+25E8
ENCODING 9704
SWIDTH 714 0
DWIDTH 5 0
BBX 5 5 0 1
BITMAP
F8
B8
B8
B8
F8
ENDCHAR
ENDFONT
